<?xml version="1.0" encoding="utf-8" standalone="no"?>
<!DOCTYPE svg PUBLIC "-//W3C//DTD SVG 1.1//EN"
  "http://www.w3.org/Graphics/SVG/1.1/DTD/svg11.dtd">
<svg xmlns:xlink="http://www.w3.org/1999/xlink" width="138.55pt" height="98.291465pt" viewBox="0 0 138.55 98.291465" xmlns="http://www.w3.org/2000/svg" version="1.1">
 <metadata>
  <rdf:RDF xmlns:dc="http://purl.org/dc/elements/1.1/" xmlns:cc="http://creativecommons.org/ns#" xmlns:rdf="http://www.w3.org/1999/02/22-rdf-syntax-ns#">
   <cc:Work>
    <dc:type rdf:resource="http://purl.org/dc/dcmitype/StillImage"/>
    <dc:date>2026-10-08T07:39:18.540213</dc:date>
    <dc:format>image/svg+xml</dc:format>
    <dc:creator>
     <cc:Agent>
      <dc:title>Matplotlib v3.11.1, https://matplotlib.org/</dc:title>
     </cc:Agent>
    </dc:creator>
   </cc:Work>
  </rdf:RDF>
 </metadata>
 <defs>
  <style type="text/css">*{stroke-linejoin: round; stroke-linecap: butt}</style>
 </defs>
 <g id="figure_1">
  <g id="patch_1">
   <path d="M 0 98.291465 
L 138.55 98.291465 
L 138.55 0 
L 0 0 
L 0 98.291465 
z
" style="fill: none; opacity: 0"/>
  </g>
  <g id="axes_1">
   <g id="patch_2">
    <path d="M 3.19 84.6 
L 137.11 84.6 
L 137.11 1.44 
L 3.19 1.44 
L 3.19 84.6 
z
" style="fill: none; opacity: 0"/>
   </g>
   <g id="FillBetweenPolyCollection_1">
    <defs>
     <path id="m5b88cb6cc6" d="M 36.702727 -93.071465 
L 36.702727 -67.871465 
L 103.728182 -67.871465 
L 103.728182 -93.071465 
L 103.728182 -93.071465 
L 36.702727 -93.071465 
z
"/>
    </defs>
    <g clip-path="url(#p39f798d864)">
     <use xlink:href="#m5b88cb6cc6" x="0" y="98.291465" style="fill: #b2abd2; fill-opacity: 0.35"/>
    </g>
   </g>
   <g id="FillBetweenPolyCollection_2">
    <defs>
     <path id="m45a7a3c93b" d="M 36.702727 -67.871465 
L 36.702727 -42.671465 
L 103.728182 -42.671465 
L 103.728182 -67.871465 
L 103.728182 -67.871465 
L 36.702727 -67.871465 
z
"/>
    </defs>
    <g clip-path="url(#p39f798d864)">
     <use xlink:href="#m45a7a3c93b" x="0" y="98.291465" style="fill: #b2abd2; fill-opacity: 0.35"/>
    </g>
   </g>
   <g id="FillBetweenPolyCollection_3">
    <defs>
     <path id="m212796d556" d="M 3.19 -42.671465 
L 3.19 -17.471465 
L 70.215455 -17.471465 
L 70.215455 -42.671465 
L 70.215455 -42.671465 
L 3.19 -42.671465 
z
"/>
    </defs>
    <g clip-path="url(#p39f798d864)">
     <use xlink:href="#m212796d556" x="0" y="98.291465" style="fill: #b2abd2; fill-opacity: 0.35"/>
    </g>
   </g>
   <g id="matplotlib.axis_1">
    <g id="xtick_1">
     <g id="line2d_1">
      <defs>
       <path id="me58ef9feb1" d="M 0 0 
L 0 2.5 
" style="stroke: #000000; stroke-width: 0.6"/>
      </defs>
      <g>
       <use xlink:href="#me58ef9feb1" x="3.19" y="84.6" style="stroke: #000000; stroke-width: 0.6"/>
      </g>
     </g>
     <g id="text_1">
      <text style="font-weight: 700; font-size: 7px; font-family: 'Times New Roman', 'Times', 'Liberation Serif', 'Nimbus Roman', 'Nimbus Roman No9 L', 'STIXGeneral', serif; text-anchor: middle" x="3.19" y="95.340723" transform="rotate(-0 3.19 95.340723)">0</text>
     </g>
    </g>
    <g id="xtick_2">
     <g id="line2d_2">
      <g>
       <use xlink:href="#me58ef9feb1" x="36.702727" y="84.6" style="stroke: #000000; stroke-width: 0.6"/>
      </g>
     </g>
     <g id="text_2">
      <text style="font-weight: 700; font-size: 7px; font-family: 'Times New Roman', 'Times', 'Liberation Serif', 'Nimbus Roman', 'Nimbus Roman No9 L', 'STIXGeneral', serif; text-anchor: middle" x="36.702727" y="95.340723" transform="rotate(-0 36.702727 95.340723)">1</text>
     </g>
    </g>
    <g id="xtick_3">
     <g id="line2d_3">
      <g>
       <use xlink:href="#me58ef9feb1" x="70.215455" y="84.6" style="stroke: #000000; stroke-width: 0.6"/>
      </g>
     </g>
     <g id="text_3">
      <text style="font-weight: 700; font-size: 7px; font-family: 'Times New Roman', 'Times', 'Liberation Serif', 'Nimbus Roman', 'Nimbus Roman No9 L', 'STIXGeneral', serif; text-anchor: middle" x="70.215455" y="95.340723" transform="rotate(-0 70.215455 95.340723)">2</text>
     </g>
    </g>
    <g id="xtick_4">
     <g id="line2d_4">
      <g>
       <use xlink:href="#me58ef9feb1" x="103.728182" y="84.6" style="stroke: #000000; stroke-width: 0.6"/>
      </g>
     </g>
     <g id="text_4">
      <text style="font-weight: 700; font-size: 7px; font-family: 'Times New Roman', 'Times', 'Liberation Serif', 'Nimbus Roman', 'Nimbus Roman No9 L', 'STIXGeneral', serif; text-anchor: middle" x="103.728182" y="95.340723" transform="rotate(-0 103.728182 95.340723)">3</text>
     </g>
    </g>
   </g>
   <g id="matplotlib.axis_2"/>
   <g id="line2d_5">
    <path d="M 3.19 17.341468 
L 6.724545 17.013684 
L 13.400909 16.519054 
L 17.720909 16.429141 
L 21.648182 16.61459 
L 25.706364 17.167356 
L 29.502727 18.061444 
L 30.942727 18.522494 
L 31.728182 18.776445 
L 32.513636 19.096531 
L 33.43 19.423566 
L 34.084545 19.720513 
L 35.393636 20.302959 
L 35.655455 20.388118 
L 36.048182 20.581349 
L 36.571818 20.84677 
L 36.702727 21.113659 
L 36.964545 20.656256 
L 37.095455 21.088054 
L 37.226364 20.717293 
L 37.488182 21.406344 
L 37.619091 21.258951 
L 38.404545 22.166896 
L 38.535455 21.986769 
L 38.666364 22.271119 
L 38.928182 21.750771 
L 39.059091 22.195332 
L 39.19 22.016894 
L 39.451818 22.605748 
L 39.582727 22.404809 
L 39.975455 23.124698 
L 40.106364 23.276321 
L 40.237273 23.171232 
L 40.499091 23.358876 
L 40.63 23.665907 
L 40.760909 23.338921 
L 41.022727 23.64404 
L 41.284545 23.553035 
L 41.415455 23.883025 
L 41.677273 23.349456 
L 41.939091 24.165795 
L 42.07 24.212566 
L 42.331818 24.005271 
L 42.462727 24.147849 
L 42.593636 24.535572 
L 42.724545 24.52849 
L 42.986364 24.959607 
L 43.117273 24.960177 
L 43.248182 25.126395 
L 43.379091 24.987464 
L 43.51 25.19442 
L 43.771818 24.840378 
L 44.033636 25.524345 
L 44.164545 25.34079 
L 44.295455 24.945718 
L 44.557273 25.481604 
L 44.688182 25.613126 
L 44.819091 25.574034 
L 44.95 25.332815 
L 45.342727 26.068633 
L 45.473636 25.887343 
L 45.604545 25.965871 
L 45.866364 26.512616 
L 46.128182 26.673429 
L 46.259091 26.938542 
L 46.39 26.903226 
L 46.651818 27.449577 
L 46.782727 27.088871 
L 47.044545 27.841405 
L 47.175455 27.641842 
L 47.306364 26.83853 
L 47.437273 27.630265 
L 47.568182 27.641452 
L 47.699091 27.527649 
L 47.83 27.110063 
L 48.091818 28.658239 
L 48.222727 28.709637 
L 48.353636 29.130175 
L 48.877273 8.314377 
L 49.008182 8.055472 
L 49.139091 8.29025 
L 49.27 7.60544 
L 49.531818 8.573375 
L 49.924545 9.293784 
L 50.055455 9.121252 
L 50.186364 9.137604 
L 50.317273 9.013842 
L 50.579091 9.097234 
L 50.71 9.125426 
L 50.840909 9.476371 
L 50.971818 9.466816 
L 51.102727 9.722771 
L 51.233636 9.439921 
L 51.626364 10.341357 
L 51.757273 9.778329 
L 52.019091 10.688454 
L 52.15 10.412646 
L 52.673636 10.668518 
L 52.804545 10.61787 
L 52.935455 10.331583 
L 53.066364 11.033929 
L 53.197273 10.886358 
L 53.328182 11.081295 
L 53.459091 10.902955 
L 53.720909 11.449705 
L 53.982727 11.83878 
L 54.244545 12.128551 
L 54.375455 12.094615 
L 54.637273 12.2576 
L 55.03 12.406799 
L 55.291818 12.613527 
L 55.946364 13.173783 
L 56.339091 13.333355 
L 56.600909 13.616095 
L 56.731818 13.624631 
L 56.993636 13.82026 
L 57.255455 13.841229 
L 57.517273 14.144259 
L 59.873636 15.481622 
L 60.397273 15.759349 
L 61.051818 16.070471 
L 61.313636 16.301826 
L 61.706364 16.360773 
L 61.837273 16.555292 
L 61.968182 16.526669 
L 62.360909 16.709441 
L 63.539091 17.409934 
L 63.800909 17.375684 
L 64.062727 17.600651 
L 64.586364 17.727887 
L 64.979091 18.011256 
L 65.764545 18.248584 
L 66.026364 18.428019 
L 66.288182 18.457913 
L 66.55 18.599998 
L 67.204545 18.733271 
L 67.597273 18.894008 
L 67.728182 18.843428 
L 67.99 18.986751 
L 68.251818 19.102641 
L 70.084545 19.655816 
L 70.608182 19.658371 
L 71.000909 19.703571 
L 71.131818 19.656959 
L 71.393636 19.754481 
L 72.048182 19.720604 
L 72.31 19.803234 
L 72.571818 19.830835 
L 72.833636 19.77059 
L 73.095455 19.847695 
L 73.619091 19.872207 
L 73.880909 19.893154 
L 76.760909 19.656935 
L 76.891818 19.718443 
L 77.153636 19.586531 
L 77.415455 19.612953 
L 77.939091 19.504594 
L 78.855455 19.285039 
L 79.117273 19.191703 
L 79.379091 19.151201 
L 80.295455 18.955253 
L 80.557273 18.834296 
L 80.819091 18.854033 
L 81.080909 18.685103 
L 81.473636 18.60092 
L 81.866364 18.441667 
L 81.997273 18.3458 
L 82.128182 18.401972 
L 82.651818 18.181794 
L 83.175455 18.069411 
L 83.568182 17.826292 
L 85.139091 17.212414 
L 85.531818 16.997111 
L 85.793636 16.989925 
L 86.317273 16.768184 
L 86.448182 16.71606 
L 87.102727 15.830617 
L 87.233636 15.920316 
L 87.364545 16.253322 
L 87.495455 16.065726 
L 87.626364 15.641912 
L 87.888182 16.027144 
L 88.15 15.308233 
L 88.280909 15.135993 
L 88.411818 15.275098 
L 88.542727 15.245823 
L 88.673636 15.425921 
L 88.804545 14.817544 
L 88.935455 14.766577 
L 89.066364 14.862672 
L 89.59 14.34148 
L 89.720909 14.313664 
L 89.851818 13.948723 
L 90.113636 14.407689 
L 90.506364 13.899962 
L 90.637273 13.87427 
L 90.768182 13.597365 
L 90.899091 13.740907 
L 91.03 13.265487 
L 91.291818 13.519133 
L 91.422727 13.848758 
L 91.946364 12.917041 
L 92.077273 12.928474 
L 92.208182 12.681 
L 92.339091 12.081931 
L 92.600909 12.541137 
L 92.731818 12.199458 
L 92.862727 12.52534 
L 92.993636 12.153537 
L 93.124545 12.415219 
L 93.517273 11.296285 
L 93.648182 11.715245 
L 93.91 11.066862 
L 94.171818 11.534629 
L 94.433636 11.088257 
L 94.564545 11.141106 
L 94.826364 10.791423 
L 95.088182 10.056468 
L 95.219091 10.434627 
L 95.611818 10.245891 
L 95.742727 10.017307 
L 95.873636 10.157448 
L 96.004545 10.018636 
L 96.135455 10.046877 
L 96.266364 9.696701 
L 96.528182 10.073409 
L 96.79 9.12885 
L 96.920909 9.148878 
L 97.182727 8.638497 
L 97.313636 8.426249 
L 97.444545 8.737592 
L 97.575455 8.747256 
L 97.837273 8.408007 
L 98.099091 8.861549 
L 98.23 9.861958 
L 98.491818 6.034573 
L 98.622727 7.449677 
L 98.753636 10.532147 
L 99.015455 26.928025 
L 99.277273 29.651896 
L 99.408182 28.316475 
L 99.539091 28.737661 
L 99.67 28.323197 
L 99.800909 28.737394 
L 100.062727 27.381778 
L 100.193636 27.443802 
L 100.717273 27.03069 
L 100.848182 27.078414 
L 100.979091 27.450086 
L 101.371818 26.413771 
L 101.633636 26.3888 
L 101.895455 26.176884 
L 102.026364 26.170246 
L 102.157273 25.714218 
L 102.288182 25.829512 
L 102.419091 25.700277 
L 102.680909 25.043717 
L 102.811818 25.586675 
L 102.942727 25.557661 
L 103.073636 25.690884 
L 103.466364 24.151175 
L 103.597273 24.865381 
L 104.120909 24.182465 
L 104.382727 24.090068 
L 104.513636 23.750263 
L 104.906364 23.739993 
L 105.168182 23.356282 
L 105.43 23.35673 
L 105.691818 22.953632 
L 105.953636 22.957006 
L 106.346364 22.557294 
L 106.608182 22.453989 
L 106.87 22.17388 
L 107.131818 22.111692 
L 107.393636 21.799643 
L 107.655455 21.756058 
L 107.917273 21.440093 
L 108.179091 21.39509 
L 108.702727 21.036835 
L 113.677273 18.213386 
L 114.986364 17.631215 
L 115.771818 17.293061 
L 116.819091 16.914172 
L 120.222727 16.020563 
L 123.364545 15.681667 
L 125.459091 15.712597 
L 127.684545 15.979838 
L 130.040909 16.516969 
L 135.67 18.789332 
L 136.062727 18.983221 
L 137.11 19.576071 
L 137.11 19.576071 
" clip-path="url(#p39f798d864)" style="fill: none; stroke: #2166ac; stroke-width: 0.8; stroke-linecap: square"/>
   </g>
   <g id="line2d_6">
    <path d="M 3.19 42.540689 
L 6.724545 42.213321 
L 13.400909 41.719183 
L 17.720909 41.629416 
L 21.648182 41.814907 
L 25.706364 42.367649 
L 29.502727 43.261676 
L 30.942727 43.722696 
L 31.728182 43.97663 
L 32.513636 44.296698 
L 33.43 44.623711 
L 34.084545 44.920642 
L 35.393636 45.503057 
L 35.655455 45.58821 
L 36.048182 45.781432 
L 36.571818 46.04684 
L 36.833636 46.419015 
L 36.964545 45.937219 
L 37.095455 46.271552 
L 37.357273 46.222294 
L 37.75 46.911956 
L 37.880909 46.953408 
L 38.011818 46.801635 
L 38.142727 47.181363 
L 38.273636 47.065576 
L 38.404545 47.493917 
L 38.535455 47.370365 
L 38.666364 47.454625 
L 38.928182 46.792407 
L 39.059091 47.211043 
L 39.19 47.247943 
L 39.451818 47.802255 
L 39.582727 47.747634 
L 39.713636 47.945887 
L 39.844545 47.794536 
L 39.975455 47.93669 
L 40.106364 48.325532 
L 40.368182 48.182949 
L 40.891818 48.637233 
L 41.022727 48.629741 
L 41.153636 48.741667 
L 41.284545 48.612231 
L 41.415455 49.010522 
L 41.677273 48.491754 
L 42.07 49.415125 
L 42.200909 49.122023 
L 42.593636 49.908486 
L 42.724545 49.829762 
L 42.986364 50.155666 
L 43.379091 50.03864 
L 43.51 50.599879 
L 43.640909 50.495197 
L 43.771818 50.195684 
L 44.033636 50.663604 
L 44.295455 50.063268 
L 44.426364 50.747556 
L 44.688182 50.70885 
L 44.819091 50.714616 
L 44.95 50.364224 
L 45.342727 51.303321 
L 45.473636 51.28391 
L 45.735455 51.388882 
L 45.997273 51.310744 
L 46.39 51.821394 
L 46.520909 52.344512 
L 46.782727 52.054979 
L 47.044545 52.717157 
L 47.306364 52.083845 
L 47.437273 52.667038 
L 47.568182 52.729538 
L 47.699091 52.581745 
L 47.960909 53.067225 
L 48.091818 54.228934 
L 48.222727 54.266088 
L 48.353636 54.422513 
L 48.877273 33.171962 
L 49.008182 32.588874 
L 49.139091 33.49949 
L 49.27 32.805861 
L 49.793636 34.242822 
L 50.186364 34.485463 
L 50.317273 34.054894 
L 50.448182 34.52813 
L 50.71 34.394702 
L 50.971818 34.893817 
L 51.102727 35.211337 
L 51.233636 34.825696 
L 51.364545 35.045332 
L 51.626364 35.662737 
L 51.757273 35.124274 
L 51.888182 35.878337 
L 52.019091 35.881052 
L 52.15 35.538151 
L 52.280909 35.767354 
L 52.411818 36.297934 
L 52.542727 36.018151 
L 52.673636 36.009705 
L 52.804545 35.833495 
L 53.197273 36.337306 
L 53.459091 36.265188 
L 54.244545 37.27275 
L 54.375455 37.223686 
L 54.637273 37.51533 
L 54.768182 37.512511 
L 55.160909 37.814106 
L 59.611818 40.551078 
L 59.742727 40.529566 
L 60.004545 40.821121 
L 60.266364 40.911934 
L 60.659091 41.132823 
L 61.051818 41.325628 
L 61.313636 41.548564 
L 62.884545 42.24784 
L 63.539091 42.682993 
L 63.800909 42.604554 
L 64.062727 42.83345 
L 64.324545 42.905462 
L 65.11 43.222065 
L 65.633636 43.443615 
L 65.895455 43.595131 
L 66.288182 43.700181 
L 67.335455 44.053455 
L 67.728182 44.098236 
L 67.99 44.217907 
L 68.120909 44.199537 
L 68.382727 44.299777 
L 68.644545 44.395401 
L 68.775455 44.349876 
L 69.037273 44.563997 
L 69.299091 44.544423 
L 69.822727 44.710801 
L 70.084545 44.672495 
L 70.346364 44.982129 
L 70.608182 44.947841 
L 70.87 44.961892 
L 71.524545 45.043871 
L 72.048182 45.059458 
L 72.31 45.149832 
L 72.571818 45.190417 
L 72.964545 45.189072 
L 73.226364 45.241657 
L 73.488182 45.170915 
L 73.880909 45.234042 
L 74.797273 45.174673 
L 75.059091 45.125755 
L 75.844545 45.093279 
L 75.975455 45.134369 
L 76.106364 45.008739 
L 76.368182 45.041989 
L 76.499091 44.978943 
L 76.63 45.062478 
L 77.153636 44.920476 
L 77.546364 44.920894 
L 77.677273 44.821878 
L 77.939091 44.870428 
L 78.724545 44.666825 
L 79.640909 44.407686 
L 79.902727 44.337493 
L 80.426364 44.144486 
L 81.473636 43.862521 
L 81.604545 43.887218 
L 81.866364 43.697656 
L 82.913636 43.318272 
L 83.568182 43.012077 
L 83.699091 43.049499 
L 83.960909 42.831313 
L 84.091818 42.902868 
L 84.615455 42.579427 
L 85.400909 42.281468 
L 85.531818 42.159268 
L 85.793636 42.183893 
L 86.055455 42.049369 
L 87.233636 40.92824 
L 87.364545 41.36681 
L 87.626364 40.768245 
L 87.757273 41.169225 
L 87.888182 41.123034 
L 88.019091 40.432295 
L 88.15 40.705724 
L 88.280909 40.279387 
L 88.411818 40.409772 
L 88.542727 40.256805 
L 88.804545 40.350273 
L 89.328182 39.794511 
L 89.459091 39.909689 
L 89.59 39.544438 
L 89.851818 39.531198 
L 89.982727 39.103941 
L 90.113636 39.3251 
L 90.244545 39.125313 
L 90.375455 39.254345 
L 90.768182 38.853263 
L 90.899091 39.062861 
L 91.160909 38.525469 
L 91.422727 38.884968 
L 91.684545 38.359934 
L 91.815455 38.379765 
L 91.946364 37.826258 
L 92.077273 37.901233 
L 92.47 37.049827 
L 92.731818 37.641164 
L 92.862727 37.679873 
L 92.993636 37.01717 
L 93.124545 37.385012 
L 93.386364 37.043794 
L 93.517273 36.103585 
L 93.648182 36.801079 
L 93.779091 36.754158 
L 94.040909 36.374671 
L 94.171818 36.674825 
L 94.564545 36.084329 
L 94.695455 36.293796 
L 95.088182 35.328131 
L 95.219091 35.494027 
L 95.35 35.434515 
L 95.480909 35.615819 
L 95.611818 35.385296 
L 95.742727 34.842277 
L 95.873636 35.182435 
L 96.135455 35.035289 
L 96.266364 34.475747 
L 96.528182 35.137748 
L 96.79 34.204216 
L 96.920909 34.289878 
L 97.051818 34.673372 
L 97.313636 33.374938 
L 97.575455 33.74651 
L 97.706364 33.698069 
L 97.837273 32.798217 
L 98.23 34.84643 
L 98.360909 33.524656 
L 98.753636 35.036623 
L 99.015455 53.072222 
L 99.277273 56.148097 
L 99.539091 53.289638 
L 99.67 53.640906 
L 100.062727 52.284511 
L 100.193636 52.48757 
L 100.324545 52.736816 
L 100.717273 52.120278 
L 100.848182 51.986618 
L 100.979091 52.461132 
L 101.11 52.425937 
L 101.240909 51.747372 
L 101.371818 51.656416 
L 101.633636 51.848381 
L 101.764545 51.329068 
L 102.026364 51.643072 
L 102.157273 50.933433 
L 102.288182 50.956578 
L 102.55 50.637154 
L 102.680909 50.309609 
L 102.811818 50.40057 
L 103.073636 50.675221 
L 103.204545 50.382941 
L 103.335455 50.407121 
L 103.466364 49.902788 
L 103.597273 50.112294 
L 103.99 49.334947 
L 104.251818 49.390909 
L 104.382727 49.290023 
L 104.513636 48.950221 
L 104.906364 48.93995 
L 105.168182 48.556241 
L 105.43 48.556689 
L 105.691818 48.153593 
L 105.953636 48.156966 
L 106.346364 47.757257 
L 106.608182 47.653952 
L 106.87 47.373845 
L 107.131818 47.311657 
L 107.393636 46.99961 
L 107.655455 46.956024 
L 107.917273 46.640061 
L 108.179091 46.595058 
L 108.702727 46.236805 
L 113.677273 43.413371 
L 114.986364 42.831202 
L 115.771818 42.493049 
L 116.819091 42.114162 
L 120.222727 41.220557 
L 123.364545 40.881662 
L 125.459091 40.912592 
L 127.684545 41.179831 
L 130.040909 41.716959 
L 135.67 43.989307 
L 136.062727 44.183195 
L 137.11 44.77604 
L 137.11 44.77604 
" clip-path="url(#p39f798d864)" style="fill: none; stroke: #2166ac; stroke-width: 0.8; stroke-linecap: square"/>
   </g>
   <g id="line2d_7">
    <path d="M 3.19 67.755247 
L 3.320909 67.8052 
L 3.582727 67.625788 
L 5.808182 67.462453 
L 5.939091 67.402523 
L 6.07 67.488505 
L 6.331818 67.427674 
L 6.724545 67.421663 
L 7.117273 67.346868 
L 7.248182 67.412717 
L 7.379091 67.267637 
L 7.640909 67.322973 
L 8.164545 67.27472 
L 14.448182 66.825997 
L 14.71 66.918143 
L 14.971818 66.832909 
L 15.626364 66.884381 
L 15.888182 66.831996 
L 16.542727 66.828233 
L 17.066364 66.824789 
L 18.637273 66.779617 
L 19.03 66.84358 
L 19.291818 66.89331 
L 19.815455 66.913395 
L 19.946364 66.838617 
L 20.077273 66.901105 
L 20.208182 66.829712 
L 20.47 66.945807 
L 20.600909 66.872433 
L 20.993636 66.989474 
L 21.255455 66.861033 
L 21.517273 67.034221 
L 22.695455 67.163128 
L 23.219091 67.281314 
L 23.742727 67.255041 
L 24.528182 67.464768 
L 25.444545 67.543699 
L 25.837273 67.732567 
L 25.968182 67.668676 
L 26.23 67.736957 
L 26.360909 67.710383 
L 26.622727 67.762361 
L 26.753636 67.718047 
L 27.015455 67.843369 
L 27.931818 68.057505 
L 28.324545 68.192164 
L 28.455455 68.099211 
L 28.717273 68.253589 
L 28.848182 68.193181 
L 29.502727 68.458254 
L 32.120909 69.282097 
L 32.382727 69.508241 
L 32.644545 69.560087 
L 32.906364 69.721135 
L 33.299091 69.777374 
L 34.084545 70.16819 
L 34.608182 70.280474 
L 34.87 70.394582 
L 35.524545 70.71516 
L 36.571818 71.361607 
L 36.702727 71.766025 
L 36.833636 71.41045 
L 36.964545 70.689524 
L 37.226364 71.31207 
L 37.357273 71.397424 
L 37.880909 72.282698 
L 38.011818 72.062518 
L 38.142727 72.490188 
L 38.273636 72.327418 
L 38.535455 72.518099 
L 38.666364 72.59692 
L 38.928182 71.974452 
L 39.19 72.442603 
L 39.713636 73.125891 
L 39.844545 72.985432 
L 40.237273 73.455566 
L 40.368182 73.318152 
L 40.891818 73.888421 
L 41.022727 73.697659 
L 41.153636 73.884846 
L 41.284545 73.547901 
L 41.415455 74.068605 
L 41.546364 73.856929 
L 41.808182 74.021542 
L 42.07 74.538662 
L 42.200909 74.397531 
L 42.331818 74.685804 
L 42.462727 74.3411 
L 42.855455 75.247191 
L 42.986364 75.258095 
L 43.248182 75.54577 
L 43.379091 75.506252 
L 43.640909 75.804271 
L 43.771818 75.525328 
L 44.033636 75.920382 
L 44.295455 75.238264 
L 44.426364 75.853592 
L 44.557273 75.614315 
L 44.819091 76.083594 
L 45.080909 75.926613 
L 45.211818 76.089378 
L 45.342727 76.576178 
L 45.604545 76.552962 
L 45.866364 76.47853 
L 45.997273 76.266169 
L 46.39 76.752984 
L 46.520909 77.54371 
L 46.782727 77.186514 
L 46.913636 77.824825 
L 47.175455 77.877677 
L 47.306364 77.440426 
L 47.568182 78.113711 
L 47.699091 78.165775 
L 47.83 78.096896 
L 48.091818 79.5427 
L 48.222727 78.617656 
L 48.353636 78.839279 
L 48.484545 74.29739 
L 48.746364 61.020386 
L 49.008182 57.761408 
L 49.139091 58.990486 
L 49.27 58.000081 
L 49.400909 58.715951 
L 49.531818 58.773006 
L 49.924545 59.799549 
L 50.055455 59.724196 
L 50.186364 59.81366 
L 50.317273 59.563922 
L 50.448182 59.987503 
L 50.71 59.716721 
L 50.840909 60.399124 
L 50.971818 60.366176 
L 51.102727 60.590901 
L 51.233636 60.175994 
L 51.626364 60.981127 
L 51.757273 60.452786 
L 51.888182 61.213044 
L 52.019091 61.205521 
L 52.15 60.828107 
L 52.411818 61.570194 
L 52.673636 61.216653 
L 52.804545 60.856965 
L 53.066364 61.431621 
L 53.328182 61.39388 
L 53.459091 61.405924 
L 53.982727 62.138287 
L 54.375455 62.372684 
L 54.637273 62.637782 
L 54.768182 62.615429 
L 55.422727 63.177952 
L 55.684545 63.253691 
L 55.946364 63.585 
L 56.208182 63.669653 
L 57.124545 64.184201 
L 57.386364 64.353678 
L 57.648182 64.563554 
L 58.040909 64.693145 
L 58.695455 65.184248 
L 58.957273 65.31853 
L 59.611818 65.703438 
L 59.742727 65.614519 
L 60.004545 65.898837 
L 60.266364 65.95511 
L 60.659091 66.286137 
L 62.23 67.071817 
L 62.622727 67.186576 
L 63.277273 67.58505 
L 63.408182 67.589076 
L 63.539091 67.748699 
L 63.67 67.6438 
L 64.062727 67.887069 
L 64.717273 68.202281 
L 64.979091 68.283284 
L 68.251818 69.396429 
L 68.513636 69.445857 
L 68.906364 69.520385 
L 69.037273 69.613363 
L 69.168182 69.539065 
L 69.43 69.649517 
L 69.560909 69.689617 
L 69.691818 69.909421 
L 69.953636 69.764126 
L 70.084545 69.790594 
L 70.346364 69.968945 
L 71.917273 70.189631 
L 73.75 70.308981 
L 75.975455 70.239733 
L 78.593636 69.866202 
L 82.128182 68.838988 
L 85.924545 67.191511 
L 86.317273 66.979316 
L 87.102727 66.53767 
L 87.364545 66.382381 
L 87.626364 66.262436 
L 87.888182 66.06638 
L 88.15 65.976572 
L 88.411818 65.739218 
L 88.673636 65.675392 
L 88.935455 65.403363 
L 89.328182 65.219064 
L 89.59 65.028754 
L 89.851818 64.918255 
L 90.113636 64.668701 
L 90.375455 64.603911 
L 90.637273 64.295806 
L 90.899091 64.267525 
L 91.160909 63.913064 
L 91.422727 63.904936 
L 91.946364 63.519113 
L 92.077273 63.476417 
L 92.208182 63.156939 
L 92.600909 63.148547 
L 92.862727 62.746074 
L 93.124545 62.786988 
L 93.386364 62.321181 
L 93.648182 62.382489 
L 94.040909 61.928544 
L 94.302727 61.93293 
L 94.433636 61.494802 
L 94.826364 61.609823 
L 95.088182 61.067165 
L 95.219091 61.065869 
L 95.35 61.218568 
L 95.611818 60.588712 
L 95.873636 60.753436 
L 96.004545 60.636419 
L 96.135455 60.108876 
L 96.528182 60.394653 
L 96.659091 59.685952 
L 96.79 59.815899 
L 96.920909 59.752206 
L 97.051818 60.064967 
L 97.182727 59.384188 
L 97.444545 59.334192 
L 97.575455 59.575872 
L 97.837273 58.66036 
L 97.968182 59.026044 
L 98.099091 58.941245 
L 98.23 59.174778 
L 98.360909 58.119277 
L 98.622727 58.728669 
L 98.753636 57.787357 
L 99.015455 79.519103 
L 99.146364 77.649404 
L 99.277273 79.264901 
L 99.408182 77.744167 
L 99.539091 78.042508 
L 99.67 77.858169 
L 99.800909 78.250249 
L 100.062727 77.336837 
L 100.324545 77.607304 
L 100.455455 77.672424 
L 100.586364 76.976389 
L 100.979091 77.242282 
L 101.240909 76.54908 
L 101.371818 76.762926 
L 101.502727 76.745533 
L 101.633636 76.538489 
L 101.764545 76.064127 
L 101.895455 76.351382 
L 102.157273 76.266708 
L 102.288182 75.665576 
L 102.419091 75.904376 
L 102.55 75.797817 
L 102.680909 75.913382 
L 102.811818 75.347712 
L 102.942727 75.432745 
L 103.073636 75.382062 
L 103.204545 75.494417 
L 103.466364 74.967273 
L 103.728182 75.044413 
L 103.99 74.535269 
L 104.251818 74.591236 
L 104.382727 74.490348 
L 104.513636 74.150528 
L 104.906364 74.140262 
L 105.168182 73.756536 
L 105.43 73.756986 
L 105.691818 73.353873 
L 105.953636 73.357249 
L 106.346364 72.957523 
L 106.608182 72.854216 
L 106.87 72.574097 
L 107.131818 72.51191 
L 107.393636 72.199848 
L 107.655455 72.156263 
L 107.917273 71.840286 
L 108.179091 71.795284 
L 108.702727 71.437018 
L 113.677273 68.613485 
L 114.986364 68.031297 
L 115.771818 67.693132 
L 116.819091 67.314232 
L 120.222727 66.420599 
L 123.364545 66.081697 
L 125.459091 66.112631 
L 127.684545 66.379885 
L 130.040909 66.917038 
L 135.67 69.189492 
L 136.062727 69.383389 
L 137.11 69.976262 
L 137.11 69.976262 
" clip-path="url(#p39f798d864)" style="fill: none; stroke: #2166ac; stroke-width: 0.8; stroke-linecap: square"/>
   </g>
   <g id="patch_3">
    <path d="M 3.19 84.6 
L 137.11 84.6 
" style="fill: none; stroke: #000000; stroke-width: 0.6; stroke-linejoin: miter; stroke-linecap: square"/>
   </g>
  </g>
 </g>
 <defs>
  <clipPath id="p39f798d864">
   <rect x="3.19" y="1.44" width="133.92" height="83.16"/>
  </clipPath>
 </defs>
</svg>
