<?xml version="1.0" encoding="utf-8" standalone="no"?>
<!DOCTYPE svg PUBLIC "-//W3C//DTD SVG 1.1//EN"
  "http://www.w3.org/Graphics/SVG/1.1/DTD/svg11.dtd">
<svg xmlns:xlink="http://www.w3.org/1999/xlink" width="138.55pt" height="98.291465pt" viewBox="0 0 138.55 98.291465" xmlns="http://www.w3.org/2000/svg" version="1.1">
 <metadata>
  <rdf:RDF xmlns:dc="http://purl.org/dc/elements/1.1/" xmlns:cc="http://creativecommons.org/ns#" xmlns:rdf="http://www.w3.org/1999/02/22-rdf-syntax-ns#">
   <cc:Work>
    <dc:type rdf:resource="http://purl.org/dc/dcmitype/StillImage"/>
    <dc:date>2026-10-08T08:11:31.218822</dc:date>
    <dc:format>image/svg+xml</dc:format>
    <dc:creator>
     <cc:Agent>
      <dc:title>Matplotlib v3.11.1, https://matplotlib.org/</dc:title>
     </cc:Agent>
    </dc:creator>
   </cc:Work>
  </rdf:RDF>
 </metadata>
 <defs>
  <style type="text/css">*{stroke-linejoin: round; stroke-linecap: butt}</style>
 </defs>
 <g id="figure_1">
  <g id="patch_1">
   <path d="M 0 98.291465 
L 138.55 98.291465 
L 138.55 0 
L 0 0 
L 0 98.291465 
z
" style="fill: none; opacity: 0"/>
  </g>
  <g id="axes_1">
   <g id="patch_2">
    <path d="M 3.19 84.6 
L 137.11 84.6 
L 137.11 1.44 
L 3.19 1.44 
L 3.19 84.6 
z
" style="fill: none; opacity: 0"/>
   </g>
   <g id="FillBetweenPolyCollection_1">
    <defs>
     <path id="m3d1fd75ad6" d="M 36.702727 -93.071465 
L 36.702727 -67.919439 
L 103.728182 -67.919439 
L 103.728182 -93.071465 
L 103.728182 -93.071465 
L 36.702727 -93.071465 
z
"/>
    </defs>
    <g clip-path="url(#p614c80845d)">
     <use xlink:href="#m3d1fd75ad6" x="0" y="98.291465" style="fill: #b2abd2; fill-opacity: 0.35"/>
    </g>
   </g>
   <g id="FillBetweenPolyCollection_2">
    <defs>
     <path id="md5b941dda3" d="M 36.702727 -67.919439 
L 36.702727 -42.767413 
L 103.728182 -42.767413 
L 103.728182 -67.919439 
L 103.728182 -67.919439 
L 36.702727 -67.919439 
z
"/>
    </defs>
    <g clip-path="url(#p614c80845d)">
     <use xlink:href="#md5b941dda3" x="0" y="98.291465" style="fill: #b2abd2; fill-opacity: 0.35"/>
    </g>
   </g>
   <g id="FillBetweenPolyCollection_3">
    <defs>
     <path id="mdcb4282eca" d="M 36.702727 -42.767413 
L 36.702727 -17.615388 
L 103.728182 -17.615388 
L 103.728182 -42.767413 
L 103.728182 -42.767413 
L 36.702727 -42.767413 
z
"/>
    </defs>
    <g clip-path="url(#p614c80845d)">
     <use xlink:href="#mdcb4282eca" x="0" y="98.291465" style="fill: #b2abd2; fill-opacity: 0.35"/>
    </g>
   </g>
   <g id="matplotlib.axis_1">
    <g id="xtick_1">
     <g id="line2d_1">
      <defs>
       <path id="maf7e215deb" d="M 0 0 
L 0 2.5 
" style="stroke: #000000; stroke-width: 0.6"/>
      </defs>
      <g>
       <use xlink:href="#maf7e215deb" x="3.19" y="84.6" style="stroke: #000000; stroke-width: 0.6"/>
      </g>
     </g>
     <g id="text_1">
      <text style="font-weight: 700; font-size: 7px; font-family: 'Times New Roman', 'Times', 'Liberation Serif', 'Nimbus Roman', 'Nimbus Roman No9 L', 'STIXGeneral', serif; text-anchor: middle" x="3.19" y="95.340723" transform="rotate(-0 3.19 95.340723)">0</text>
     </g>
    </g>
    <g id="xtick_2">
     <g id="line2d_2">
      <g>
       <use xlink:href="#maf7e215deb" x="36.702727" y="84.6" style="stroke: #000000; stroke-width: 0.6"/>
      </g>
     </g>
     <g id="text_2">
      <text style="font-weight: 700; font-size: 7px; font-family: 'Times New Roman', 'Times', 'Liberation Serif', 'Nimbus Roman', 'Nimbus Roman No9 L', 'STIXGeneral', serif; text-anchor: middle" x="36.702727" y="95.340723" transform="rotate(-0 36.702727 95.340723)">1</text>
     </g>
    </g>
    <g id="xtick_3">
     <g id="line2d_3">
      <g>
       <use xlink:href="#maf7e215deb" x="70.215455" y="84.6" style="stroke: #000000; stroke-width: 0.6"/>
      </g>
     </g>
     <g id="text_3">
      <text style="font-weight: 700; font-size: 7px; font-family: 'Times New Roman', 'Times', 'Liberation Serif', 'Nimbus Roman', 'Nimbus Roman No9 L', 'STIXGeneral', serif; text-anchor: middle" x="70.215455" y="95.340723" transform="rotate(-0 70.215455 95.340723)">2</text>
     </g>
    </g>
    <g id="xtick_4">
     <g id="line2d_4">
      <g>
       <use xlink:href="#maf7e215deb" x="103.728182" y="84.6" style="stroke: #000000; stroke-width: 0.6"/>
      </g>
     </g>
     <g id="text_4">
      <text style="font-weight: 700; font-size: 7px; font-family: 'Times New Roman', 'Times', 'Liberation Serif', 'Nimbus Roman', 'Nimbus Roman No9 L', 'STIXGeneral', serif; text-anchor: middle" x="103.728182" y="95.340723" transform="rotate(-0 103.728182 95.340723)">3</text>
     </g>
    </g>
   </g>
   <g id="matplotlib.axis_2"/>
   <g id="line2d_5">
    <path d="M 3.19 23.741593 
L 3.320909 24.586057 
L 3.451818 23.142998 
L 3.713636 9.774041 
L 3.975455 17.632966 
L 4.106364 19.47441 
L 4.368182 14.306256 
L 4.499091 15.615985 
L 4.891818 23.355463 
L 5.022727 22.617478 
L 5.284545 11.350163 
L 5.677273 22.701345 
L 6.07 12.872523 
L 6.200909 15.289693 
L 6.331818 14.252855 
L 6.462727 17.263529 
L 6.593636 24.03658 
L 6.724545 22.987762 
L 6.986364 15.426361 
L 7.117273 12.78774 
L 7.248182 15.423936 
L 7.379091 10.445225 
L 7.902727 25.769404 
L 8.164545 13.724409 
L 8.426364 13.369492 
L 8.557273 16.746527 
L 8.688182 16.180743 
L 9.080909 22.254835 
L 9.211818 20.027013 
L 9.473636 14.094008 
L 9.604545 16.226729 
L 9.735455 16.413704 
L 9.997273 18.018949 
L 10.128182 17.810421 
L 10.259091 16.273256 
L 10.39 17.039264 
L 10.782727 21.873826 
L 10.913636 19.418081 
L 11.044545 14.38787 
L 11.306364 18.899922 
L 11.437273 21.781358 
L 11.83 13.7681 
L 11.960909 15.58105 
L 12.091818 14.215615 
L 12.746364 23.873903 
L 12.877273 20.778578 
L 13.008182 14.854002 
L 13.139091 14.095105 
L 13.27 17.426679 
L 13.400909 16.142058 
L 13.662727 17.556192 
L 14.055455 21.852787 
L 14.186364 21.46366 
L 14.448182 13.906691 
L 14.840909 18.032498 
L 14.971818 18.290917 
L 15.233636 23.43448 
L 15.364545 20.830989 
L 15.495455 13.934396 
L 15.626364 14.087918 
L 15.888182 18.596577 
L 16.019091 18.651744 
L 16.15 20.100387 
L 16.280909 24.805342 
L 16.411818 25.21938 
L 16.542727 20.981368 
L 16.804545 10.639796 
L 16.935455 16.128432 
L 17.066364 15.808894 
L 17.197273 16.721671 
L 17.328182 15.943339 
L 17.459091 16.78064 
L 17.720909 20.069584 
L 17.982727 16.931498 
L 18.244545 18.765441 
L 18.375455 16.650663 
L 18.637273 21.931533 
L 18.899091 11.837069 
L 19.160909 18.142096 
L 19.422727 26.657822 
L 19.815455 12.834889 
L 19.946364 13.458014 
L 20.339091 22.923695 
L 20.47 22.630259 
L 20.731818 11.072886 
L 20.993636 21.497802 
L 21.386364 14.097616 
L 21.517273 14.536923 
L 21.648182 17.730857 
L 21.779091 16.572913 
L 22.040909 19.959978 
L 22.171818 19.554409 
L 22.302727 17.649757 
L 22.433636 17.661151 
L 22.695455 22.581446 
L 22.957273 13.69044 
L 23.088182 14.847589 
L 23.219091 19.234016 
L 23.480909 19.66637 
L 23.742727 17.382077 
L 24.004545 20.62345 
L 24.266364 16.470748 
L 24.397273 16.770949 
L 24.528182 18.202627 
L 24.659091 17.540074 
L 25.051818 21.195343 
L 25.313636 15.057065 
L 25.444545 13.99173 
L 25.837273 28.136845 
L 25.968182 28.220839 
L 26.23 11.167559 
L 26.360909 15.125424 
L 26.491818 13.634814 
L 26.622727 16.812587 
L 26.753636 15.161839 
L 27.146364 18.107771 
L 27.408182 21.977147 
L 27.67 16.19417 
L 27.800909 15.234431 
L 27.931818 17.821016 
L 28.193636 18.228977 
L 28.455455 16.918763 
L 28.586364 17.103569 
L 28.848182 19.517039 
L 28.979091 20.056371 
L 29.11 17.187735 
L 29.240909 16.767749 
L 29.371818 17.814929 
L 29.502727 20.201642 
L 29.764545 14.591916 
L 30.157273 19.545875 
L 30.419091 14.707689 
L 30.680909 18.632563 
L 30.811818 23.385522 
L 30.942727 21.483763 
L 31.204545 10.842718 
L 31.597273 24.522538 
L 31.728182 26.798957 
L 31.99 11.474158 
L 32.644545 21.566445 
L 32.775455 20.57751 
L 33.037273 9.24414 
L 33.560909 27.174542 
L 33.691818 25.358743 
L 33.822727 12.327161 
L 33.953636 11.466607 
L 34.084545 13.906255 
L 34.215455 18.93888 
L 34.346364 17.191519 
L 34.608182 22.160861 
L 34.87 14.120265 
L 35.000909 14.280644 
L 35.524545 18.488785 
L 35.655455 18.534157 
L 35.786364 21.261353 
L 35.917273 20.028244 
L 36.179091 12.758278 
L 36.571818 25.612655 
L 36.833636 14.296368 
L 36.964545 13.564764 
L 37.226364 19.988382 
L 37.357273 20.375361 
L 37.619091 16.364896 
L 37.75 16.2065 
L 37.880909 18.06504 
L 38.011818 17.609 
L 38.273636 22.221476 
L 38.535455 15.330011 
L 38.797273 17.43226 
L 39.059091 19.550849 
L 39.320909 21.022951 
L 39.582727 13.234951 
L 39.713636 15.084434 
L 39.975455 22.483756 
L 40.106364 21.452178 
L 40.368182 14.49622 
L 40.499091 16.559737 
L 40.63 16.792823 
L 40.760909 18.117542 
L 40.891818 18.024186 
L 41.022727 18.602552 
L 41.153636 20.478046 
L 41.415455 17.767724 
L 41.546364 17.393381 
L 41.677273 16.340504 
L 41.939091 21.053438 
L 42.07 19.50825 
L 42.331818 14.425999 
L 42.593636 18.910453 
L 42.855455 24.070349 
L 42.986364 20.975498 
L 43.248182 8.40424 
L 43.640909 29.428728 
L 43.771818 28.283194 
L 44.033636 10.410654 
L 44.164545 10.213498 
L 44.295455 8.979919 
L 44.557273 17.227492 
L 44.819091 20.280544 
L 44.95 19.490011 
L 45.080909 21.044704 
L 45.211818 20.971667 
L 45.342727 20.375899 
L 45.604545 11.83436 
L 45.866364 16.795732 
L 45.997273 18.438705 
L 46.39 14.24137 
L 46.782727 21.207207 
L 46.913636 20.698545 
L 47.044545 22.245733 
L 47.306364 13.667878 
L 47.437273 11.80421 
L 47.699091 18.079139 
L 47.960909 20.841441 
L 48.091818 20.35206 
L 48.222727 20.941081 
L 48.353636 18.734177 
L 48.484545 13.768788 
L 48.615455 13.349107 
L 48.746364 14.2772 
L 48.877273 17.5592 
L 49.008182 16.858647 
L 49.27 20.335771 
L 49.400909 19.063249 
L 49.662727 15.594202 
L 49.924545 17.173407 
L 50.055455 16.924446 
L 50.317273 21.716253 
L 50.448182 24.373486 
L 50.579091 23.787733 
L 50.840909 10.531318 
L 51.233636 17.672323 
L 51.364545 16.877345 
L 51.495455 16.83185 
L 51.888182 25.765248 
L 52.280909 12.171622 
L 52.411818 13.052722 
L 52.542727 18.311615 
L 52.804545 18.935566 
L 52.935455 17.665026 
L 53.066364 17.629439 
L 53.328182 21.607543 
L 53.459091 20.871129 
L 53.720909 14.485786 
L 53.851818 15.973434 
L 53.982727 15.04356 
L 54.506364 23.990639 
L 54.768182 13.149082 
L 54.899091 13.800134 
L 55.03 13.598988 
L 55.291818 20.442595 
L 55.422727 20.760975 
L 55.815455 15.626025 
L 56.208182 20.66082 
L 56.47 15.390736 
L 56.600909 16.824798 
L 56.993636 24.659589 
L 57.124545 22.742475 
L 57.386364 12.638586 
L 57.779091 22.433956 
L 57.91 21.645847 
L 58.171818 6.35023 
L 58.433636 21.126786 
L 58.564545 23.170975 
L 58.695455 20.052503 
L 58.826364 21.666849 
L 59.219091 12.422973 
L 59.35 16.023855 
L 59.480909 15.108763 
L 59.611818 16.936024 
L 60.004545 25.48603 
L 60.397273 11.901041 
L 60.528182 10.420691 
L 60.920909 23.12377 
L 61.051818 23.883394 
L 61.313636 13.941816 
L 61.575455 18.187683 
L 61.706364 18.347934 
L 61.837273 13.998236 
L 61.968182 14.205575 
L 62.23 17.252064 
L 62.360909 17.598858 
L 62.491818 19.111037 
L 62.622727 23.337566 
L 62.753636 23.04206 
L 63.146364 13.264743 
L 63.277273 15.246318 
L 63.408182 14.341921 
L 63.800909 22.544663 
L 63.931818 24.760274 
L 64.193636 11.759246 
L 64.455455 12.807876 
L 64.717273 18.182359 
L 64.848182 19.353909 
L 65.240909 16.205251 
L 65.371818 16.73393 
L 65.633636 20.709067 
L 65.764545 18.320408 
L 65.895455 17.976367 
L 66.026364 20.5525 
L 66.157273 20.846021 
L 66.419091 15.987891 
L 66.55 16.248095 
L 66.680909 16.882223 
L 66.811818 13.551225 
L 67.204545 26.838517 
L 67.466364 13.426537 
L 67.597273 11.15639 
L 67.728182 17.223588 
L 67.859091 16.843144 
L 67.99 18.120315 
L 68.120909 20.81312 
L 68.382727 14.021012 
L 68.513636 15.45724 
L 68.775455 21.089521 
L 68.906364 17.039188 
L 69.037273 16.582503 
L 69.168182 19.864892 
L 69.299091 20.130336 
L 69.822727 16.023759 
L 69.953636 14.021054 
L 70.346364 20.984024 
L 70.608182 15.427346 
L 70.87 23.658914 
L 71.000909 21.08253 
L 71.131818 11.442016 
L 71.262727 11.486059 
L 71.655455 19.15448 
L 71.786364 19.050195 
L 72.048182 15.438693 
L 72.179091 16.176313 
L 72.31 15.928364 
L 72.571818 23.405835 
L 72.833636 13.606797 
L 72.964545 12.332876 
L 73.095455 14.899675 
L 73.357273 24.697874 
L 73.75 12.245776 
L 74.011818 14.403237 
L 74.142727 14.14708 
L 74.404545 25.709973 
L 74.535455 24.530796 
L 74.666364 20.418145 
L 74.797273 9.484617 
L 74.928182 10.982813 
L 75.451818 25.723223 
L 75.713636 16.415096 
L 75.844545 12.582134 
L 75.975455 14.296628 
L 76.237273 23.145882 
L 76.63 15.686118 
L 76.760909 15.546137 
L 76.891818 14.930719 
L 77.022727 16.553597 
L 77.153636 20.430892 
L 77.284545 20.014171 
L 77.546364 15.821878 
L 77.808182 21.140643 
L 78.07 18.163523 
L 78.200909 17.955734 
L 78.331818 18.131745 
L 78.462727 16.78939 
L 78.593636 16.837235 
L 78.855455 23.714957 
L 79.117273 16.810281 
L 79.379091 20.643392 
L 79.51 15.110754 
L 79.902727 20.161549 
L 80.033636 17.93291 
L 80.164545 19.342083 
L 80.426364 16.630785 
L 80.557273 14.191668 
L 80.688182 14.085489 
L 80.95 23.904504 
L 81.342727 12.925271 
L 81.604545 18.297345 
L 81.735455 18.791085 
L 81.866364 15.7571 
L 81.997273 16.170279 
L 82.128182 19.824046 
L 82.259091 17.789763 
L 82.39 22.209462 
L 82.520909 30.415606 
L 82.913636 10.260501 
L 83.175455 14.345259 
L 83.437273 15.575326 
L 83.568182 15.817202 
L 83.83 21.528892 
L 84.091818 19.556035 
L 84.222727 13.627839 
L 84.353636 13.90693 
L 84.484545 16.173005 
L 84.615455 15.9746 
L 84.877273 22.466389 
L 85.27 20.266716 
L 85.400909 18.204741 
L 85.531818 13.413049 
L 85.924545 18.096041 
L 86.186364 15.023011 
L 86.448182 22.530569 
L 86.71 17.615972 
L 86.840909 15.993925 
L 86.971818 17.32858 
L 87.102727 15.192546 
L 87.233636 15.05746 
L 87.364545 15.426402 
L 87.495455 14.978885 
L 87.757273 21.797564 
L 87.888182 20.979364 
L 88.019091 21.710317 
L 88.411818 10.585705 
L 88.542727 12.678475 
L 88.804545 17.401165 
L 89.066364 23.133818 
L 89.328182 15.552589 
L 89.459091 13.28588 
L 89.59 14.250164 
L 89.720909 19.923616 
L 89.851818 20.255382 
L 89.982727 20.195639 
L 90.113636 19.580578 
L 90.244545 16.219203 
L 90.506364 20.302373 
L 90.637273 17.122558 
L 90.768182 11.049053 
L 90.899091 12.360249 
L 91.03 18.250586 
L 91.160909 18.509674 
L 91.422727 27.070419 
L 91.553636 19.142854 
L 91.684545 18.391365 
L 91.815455 16.573219 
L 91.946364 16.518838 
L 92.077273 10.493761 
L 92.47 17.234928 
L 92.731818 16.636673 
L 92.993636 21.99555 
L 93.124545 22.478128 
L 93.255455 23.629149 
L 93.648182 13.07093 
L 93.779091 14.977342 
L 94.040909 23.7286 
L 94.302727 18.796003 
L 94.433636 14.1706 
L 94.695455 13.324237 
L 94.826364 14.584495 
L 94.957273 19.450748 
L 95.088182 19.027754 
L 95.35 24.555997 
L 95.742727 14.155521 
L 95.873636 14.406403 
L 96.004545 14.099489 
L 96.397273 21.500898 
L 96.528182 20.59443 
L 96.659091 18.739742 
L 96.79 12.617429 
L 96.920909 12.746263 
L 97.182727 18.380999 
L 97.313636 19.231964 
L 97.575455 18.40963 
L 97.706364 18.013132 
L 97.968182 21.526227 
L 98.360909 13.038662 
L 98.491818 14.134752 
L 98.753636 24.184867 
L 99.015455 18.452927 
L 99.146364 12.451811 
L 99.539091 20.80479 
L 99.800909 13.353222 
L 100.062727 15.871219 
L 100.193636 23.12134 
L 100.324545 23.975163 
L 100.586364 22.066353 
L 100.717273 20.0127 
L 100.848182 20.184136 
L 101.240909 9.344458 
L 101.371818 11.781312 
L 101.502727 18.528018 
L 101.633636 18.463543 
L 101.764545 18.806954 
L 101.895455 17.693773 
L 102.157273 23.534496 
L 102.419091 18.175693 
L 102.55 13.759224 
L 102.811818 15.642561 
L 102.942727 14.970807 
L 103.204545 20.810559 
L 103.728182 13.516266 
L 103.859091 17.867596 
L 103.99 17.991554 
L 104.120909 19.525722 
L 104.251818 24.188482 
L 104.513636 18.004758 
L 104.644545 12.722473 
L 104.906364 13.993411 
L 105.168182 18.285327 
L 105.299091 17.749919 
L 105.560909 14.123106 
L 105.822727 22.543135 
L 106.084545 17.810428 
L 106.215455 18.749591 
L 106.346364 21.108875 
L 106.608182 17.224032 
L 106.739091 10.687573 
L 106.87 10.331244 
L 107.131818 21.357136 
L 107.262727 17.375833 
L 107.393636 18.483685 
L 107.524545 22.178856 
L 107.655455 20.580617 
L 107.786364 11.760133 
L 108.31 19.335063 
L 108.440909 18.990898 
L 108.571818 19.003001 
L 108.702727 20.440086 
L 108.833636 20.186475 
L 108.964545 18.606924 
L 109.095455 15.675365 
L 109.226364 16.211414 
L 109.357273 18.295286 
L 109.488182 18.087732 
L 109.619091 15.608419 
L 110.011818 19.017378 
L 110.142727 14.684609 
L 110.404545 17.205392 
L 110.666364 20.243699 
L 110.797273 17.525487 
L 110.928182 20.168736 
L 111.059091 25.499825 
L 111.451818 14.84266 
L 111.582727 15.626157 
L 111.713636 15.474475 
L 111.975455 18.490257 
L 112.106364 17.831601 
L 112.237273 14.925577 
L 112.368182 15.114724 
L 112.499091 17.921353 
L 112.63 18.133229 
L 112.760909 17.719305 
L 112.891818 15.806679 
L 113.022727 18.098096 
L 113.153636 23.525396 
L 113.284545 23.546573 
L 113.415455 20.225218 
L 113.546364 12.626321 
L 113.808182 13.887364 
L 114.07 17.46878 
L 114.200909 14.513864 
L 114.462727 29.40173 
L 114.724545 16.874748 
L 114.855455 5.845077 
L 114.986364 7.665007 
L 115.379091 22.522829 
L 115.51 25.761535 
L 115.771818 16.202492 
L 115.902727 16.921131 
L 116.033636 19.8779 
L 116.295455 17.451571 
L 116.426364 17.05124 
L 116.688182 18.190939 
L 117.080909 22.105078 
L 117.211818 10.815209 
L 117.866364 20.253881 
L 117.997273 20.866998 
L 118.128182 20.48108 
L 118.259091 14.89434 
L 118.520909 19.051351 
L 118.651818 18.439135 
L 118.782727 15.272319 
L 118.913636 15.884165 
L 119.044545 20.594471 
L 119.175455 20.373167 
L 119.437273 25.800471 
L 119.699091 15.616825 
L 120.091818 18.654977 
L 120.222727 18.906361 
L 120.484545 15.81235 
L 120.615455 19.828205 
L 120.746364 19.868417 
L 120.877273 16.191399 
L 121.008182 16.156385 
L 121.139091 21.978864 
L 121.27 22.558502 
L 121.400909 14.947614 
L 121.662727 18.496286 
L 121.924545 17.342289 
L 122.055455 17.06812 
L 122.186364 14.582565 
L 122.317273 15.600277 
L 122.579091 22.660948 
L 122.71 17.40776 
L 122.840909 17.467606 
L 122.971818 16.468246 
L 123.102727 17.9184 
L 123.233636 20.897966 
L 123.364545 19.802442 
L 123.495455 19.850815 
L 123.626364 22.302125 
L 123.757273 17.478296 
L 123.888182 17.351014 
L 124.019091 19.394686 
L 124.15 18.195808 
L 124.280909 12.248266 
L 124.411818 11.900583 
L 124.673636 23.926552 
L 125.066364 16.560005 
L 125.328182 19.313396 
L 125.459091 19.692045 
L 125.59 10.175701 
L 125.720909 10.540487 
L 125.982727 21.159821 
L 126.113636 16.373064 
L 126.244545 16.624048 
L 126.375455 15.153922 
L 126.637273 19.941677 
L 126.768182 20.003094 
L 127.03 21.72852 
L 127.160909 19.834436 
L 127.422727 11.373268 
L 127.553636 12.199311 
L 127.815455 24.004602 
L 128.077273 18.579302 
L 128.208182 18.272268 
L 128.339091 18.89791 
L 128.47 17.02693 
L 128.600909 17.201314 
L 128.731818 18.242718 
L 128.862727 17.77979 
L 128.993636 13.897541 
L 129.124545 13.958884 
L 129.255455 17.875606 
L 129.386364 16.496801 
L 129.517273 19.562348 
L 129.648182 25.602766 
L 129.779091 23.929521 
L 130.040909 14.6594 
L 130.564545 19.367263 
L 130.957273 16.973495 
L 131.088182 15.793239 
L 131.219091 16.418294 
L 131.35 18.92458 
L 131.480909 19.253471 
L 131.611818 18.829936 
L 131.742727 21.158066 
L 132.004545 15.967121 
L 132.266364 18.978114 
L 132.397273 15.970914 
L 132.528182 16.129864 
L 132.659091 18.91128 
L 132.79 18.233081 
L 132.920909 18.638045 
L 133.051818 21.446448 
L 133.182727 20.137485 
L 133.444545 13.893935 
L 133.575455 13.444979 
L 133.706364 10.041084 
L 133.837273 10.84472 
L 134.099091 23.672777 
L 134.360909 18.844061 
L 134.622727 17.641458 
L 134.753636 13.921201 
L 134.884545 13.68764 
L 135.015455 19.625633 
L 135.146364 18.488292 
L 135.277273 20.381412 
L 135.408182 25.258582 
L 135.67 16.953312 
L 135.800909 9.539829 
L 136.062727 13.034526 
L 136.324545 25.49287 
L 136.586364 7.480507 
L 136.717273 8.607851 
L 136.979091 25.436488 
L 137.11 17.175686 
L 137.11 17.175686 
" clip-path="url(#p614c80845d)" style="fill: none; stroke: #2166ac; stroke-width: 0.8; stroke-linecap: square"/>
   </g>
   <g id="line2d_6">
    <path d="M 36.702727 18.540254 
L 36.964545 15.288666 
L 37.095455 16.647707 
L 37.357273 20.021009 
L 37.488182 16.59842 
L 37.75 15.969801 
L 38.142727 19.698538 
L 38.273636 20.516257 
L 38.404545 19.036156 
L 38.535455 16.193481 
L 39.19 21.302899 
L 39.320909 20.832241 
L 39.582727 14.195437 
L 39.975455 19.297597 
L 40.368182 17.184849 
L 40.63 18.523415 
L 40.760909 18.924585 
L 40.891818 18.296445 
L 41.153636 21.653981 
L 41.284545 21.185933 
L 41.546364 14.803018 
L 41.677273 13.551121 
L 42.07 18.468853 
L 42.331818 15.771489 
L 42.462727 16.140019 
L 42.724545 21.672247 
L 42.855455 22.77063 
L 43.248182 9.786995 
L 43.771818 29.147483 
L 44.164545 9.725253 
L 44.295455 8.69013 
L 44.557273 15.631079 
L 44.688182 17.702827 
L 44.819091 17.457027 
L 44.95 18.036316 
L 45.080909 18.09668 
L 45.342727 20.097797 
L 45.604545 15.686267 
L 45.997273 18.577269 
L 46.128182 15.463681 
L 46.39 14.855645 
L 46.782727 21.111434 
L 46.913636 21.295792 
L 47.044545 19.822213 
L 47.306364 14.319964 
L 47.437273 12.954196 
L 47.699091 17.201732 
L 48.091818 22.265647 
L 48.222727 22.806326 
L 48.484545 14.315826 
L 48.615455 14.595502 
L 48.746364 14.965124 
L 48.877273 17.409563 
L 49.008182 17.505154 
L 49.139091 18.533294 
L 49.27 18.087699 
L 49.400909 18.442215 
L 49.531818 18.427628 
L 49.662727 19.297795 
L 50.055455 14.461 
L 50.448182 24.683376 
L 50.579091 23.844733 
L 50.840909 12.431805 
L 50.971818 13.857351 
L 51.102727 13.85952 
L 51.233636 16.622342 
L 51.364545 16.466511 
L 51.626364 20.221302 
L 51.888182 25.584937 
L 52.15 13.015962 
L 52.280909 13.975308 
L 52.411818 13.498378 
L 52.673636 19.63356 
L 52.804545 19.605773 
L 53.066364 16.996119 
L 53.328182 21.989998 
L 53.459091 20.60542 
L 53.720909 15.309026 
L 53.851818 16.220181 
L 53.982727 15.697864 
L 54.506364 23.329714 
L 54.899091 14.437875 
L 55.03 14.085445 
L 55.422727 21.818654 
L 55.815455 16.401523 
L 56.208182 18.520563 
L 56.47 17.960486 
L 56.600909 17.96577 
L 56.862727 22.616216 
L 56.993636 21.52045 
L 57.386364 13.824309 
L 57.779091 22.850802 
L 57.91 21.837482 
L 58.171818 7.232907 
L 58.564545 24.173314 
L 58.695455 25.363572 
L 58.826364 25.109419 
L 59.219091 11.396974 
L 59.611818 17.36841 
L 59.742727 18.044886 
L 60.004545 21.7235 
L 60.135455 21.612405 
L 60.266364 20.665773 
L 60.528182 12.112197 
L 60.920909 22.12795 
L 61.182727 16.718022 
L 61.313636 17.359434 
L 61.444545 19.224246 
L 61.575455 18.58637 
L 61.837273 14.414734 
L 61.968182 15.569636 
L 62.23 18.819113 
L 62.360909 15.959614 
L 62.491818 16.271295 
L 62.622727 17.53727 
L 62.884545 21.668582 
L 63.146364 14.466027 
L 63.277273 15.175954 
L 63.408182 13.487375 
L 63.931818 26.235892 
L 64.193636 11.992778 
L 64.324545 12.658559 
L 64.455455 12.715996 
L 64.717273 18.866367 
L 64.979091 19.834733 
L 65.240909 15.669199 
L 65.633636 19.244492 
L 65.764545 16.527304 
L 66.026364 21.364508 
L 66.288182 15.067996 
L 66.55 15.997309 
L 66.680909 16.268762 
L 66.811818 15.301142 
L 66.942727 17.726187 
L 67.204545 25.800759 
L 67.466364 13.841988 
L 67.597273 13.86091 
L 67.728182 15.86401 
L 67.859091 15.595725 
L 68.120909 21.164351 
L 68.382727 13.673847 
L 68.513636 15.034207 
L 68.775455 19.99734 
L 68.906364 16.692163 
L 69.037273 17.749009 
L 69.168182 20.288061 
L 69.299091 20.353906 
L 69.43 20.286111 
L 69.953636 14.166883 
L 70.215455 25.348856 
L 70.477273 14.247069 
L 70.608182 14.514937 
L 70.87 20.582299 
L 71.000909 18.751389 
L 71.131818 10.808027 
L 71.262727 12.658377 
L 71.524545 19.413491 
L 71.655455 18.292675 
L 71.786364 18.304639 
L 71.917273 15.243202 
L 72.048182 14.971842 
L 72.571818 21.401305 
L 72.833636 16.178256 
L 72.964545 15.497424 
L 73.095455 16.325281 
L 73.357273 23.052261 
L 73.880909 11.736247 
L 74.011818 13.215478 
L 74.142727 16.171149 
L 74.404545 27.276622 
L 74.666364 20.579121 
L 74.797273 13.052075 
L 74.928182 13.224042 
L 75.320909 17.739985 
L 75.451818 22.994695 
L 75.582727 20.973032 
L 75.844545 12.447939 
L 75.975455 14.85114 
L 76.237273 23.376017 
L 76.63 15.681458 
L 76.760909 15.899261 
L 76.891818 15.523191 
L 77.153636 18.404348 
L 77.284545 18.332562 
L 77.415455 17.204939 
L 77.546364 17.251243 
L 77.808182 20.586461 
L 77.939091 19.778523 
L 78.07 20.481991 
L 78.462727 16.099024 
L 78.593636 17.014565 
L 78.855455 21.043861 
L 78.986364 16.733733 
L 79.117273 17.090327 
L 79.248182 20.38746 
L 79.379091 20.068865 
L 79.51 14.11133 
L 79.640909 14.801536 
L 79.902727 20.046372 
L 80.033636 18.695536 
L 80.164545 19.427631 
L 80.557273 15.89753 
L 80.688182 16.649094 
L 80.95 23.859016 
L 81.080909 21.591974 
L 81.342727 10.375124 
L 81.473636 13.774405 
L 81.604545 20.832641 
L 81.735455 21.808638 
L 81.997273 14.290305 
L 82.520909 27.224992 
L 82.913636 12.277635 
L 83.044545 13.350466 
L 83.175455 15.520218 
L 83.306364 15.436999 
L 83.568182 16.864993 
L 83.83 23.104889 
L 84.091818 18.690405 
L 84.222727 12.63069 
L 84.353636 13.307387 
L 84.484545 12.941638 
L 84.615455 14.488492 
L 84.877273 21.866236 
L 85.139091 19.720239 
L 85.27 17.493505 
L 85.400909 18.048036 
L 85.531818 15.446034 
L 85.662727 15.692419 
L 85.793636 15.639533 
L 85.924545 16.20467 
L 86.055455 15.426547 
L 86.186364 15.629902 
L 86.448182 22.372496 
L 86.579091 17.951428 
L 86.71 17.319329 
L 86.971818 18.908488 
L 87.233636 16.253494 
L 87.364545 15.834026 
L 87.495455 16.007146 
L 87.888182 21.529268 
L 88.019091 20.443892 
L 88.15 12.988734 
L 88.280909 12.611769 
L 88.804545 18.673573 
L 88.935455 19.220222 
L 89.066364 20.503807 
L 89.459091 16.317946 
L 89.720909 16.860509 
L 90.113636 20.432521 
L 90.375455 17.063208 
L 90.506364 17.860709 
L 90.637273 17.570235 
L 90.768182 14.423439 
L 91.03 15.04993 
L 91.160909 16.09954 
L 91.422727 22.071333 
L 91.553636 17.224204 
L 91.815455 17.949855 
L 91.946364 17.28411 
L 92.077273 15.409367 
L 92.47 18.335773 
L 92.600909 16.604929 
L 92.731818 16.642322 
L 92.862727 18.174778 
L 92.993636 21.275091 
L 93.124545 21.353376 
L 93.255455 20.804462 
L 93.386364 14.486635 
L 93.517273 13.628435 
L 93.91 21.175586 
L 94.040909 24.473427 
L 94.302727 14.374734 
L 94.433636 14.138451 
L 94.695455 16.409506 
L 94.826364 15.745724 
L 95.088182 19.077676 
L 95.35 24.694137 
L 95.611818 17.427187 
L 95.873636 13.519614 
L 96.266364 19.668644 
L 96.397273 24.018698 
L 96.659091 19.75112 
L 96.79 13.939473 
L 96.920909 14.73272 
L 97.182727 19.21829 
L 97.444545 15.462459 
L 97.575455 15.837833 
L 97.706364 16.985607 
L 97.968182 25.280067 
L 98.360909 12.638066 
L 98.491818 14.171084 
L 98.753636 23.353854 
L 99.015455 15.020686 
L 99.146364 14.27765 
L 99.277273 15.702972 
L 99.539091 20.326238 
L 99.67 13.317738 
L 99.800909 13.273415 
L 100.455455 22.86337 
L 100.586364 21.840054 
L 100.979091 14.355275 
L 101.240909 14.511801 
L 101.371818 15.034262 
L 101.633636 19.940145 
L 101.764545 19.004383 
L 101.895455 18.933054 
L 102.026364 19.65725 
L 102.157273 21.62528 
L 102.811818 14.613223 
L 102.942727 15.693983 
L 103.335455 23.687976 
L 103.466364 20.333427 
L 103.597273 13.359561 
L 103.597273 13.359561 
" clip-path="url(#p614c80845d)" style="fill: none; stroke: #e66101; stroke-width: 0.8; stroke-linecap: square"/>
   </g>
   <g id="line2d_7">
    <path d="M 3.19 41.699565 
L 3.320909 42.048445 
L 3.451818 45.624621 
L 3.582727 44.960353 
L 3.713636 45.392966 
L 3.844545 43.078187 
L 3.975455 38.526848 
L 4.237273 42.353409 
L 4.499091 45.752681 
L 4.63 44.428589 
L 4.760909 39.96902 
L 5.153636 44.661854 
L 5.284545 49.387348 
L 5.415455 45.636831 
L 5.546364 38.209111 
L 5.677273 38.358267 
L 5.939091 42.976782 
L 6.07 50.531629 
L 6.200909 51.398334 
L 6.331818 50.592433 
L 6.462727 46.008064 
L 6.724545 32.041513 
L 7.379091 53.481665 
L 7.51 50.080449 
L 7.640909 41.022598 
L 7.771818 41.419567 
L 7.902727 40.164926 
L 8.033636 40.369756 
L 8.295455 40.045697 
L 8.426364 43.52353 
L 8.557273 42.625459 
L 8.688182 45.840463 
L 8.819091 43.827357 
L 8.95 38.909014 
L 9.342727 41.770801 
L 9.473636 44.977399 
L 9.604545 44.519265 
L 9.735455 45.983547 
L 9.866364 44.716373 
L 9.997273 42.164693 
L 10.128182 43.996653 
L 10.259091 48.125456 
L 10.39 47.46697 
L 10.651818 42.788056 
L 10.782727 43.394243 
L 10.913636 42.487142 
L 11.175455 42.405496 
L 11.306364 37.745515 
L 11.437273 38.46091 
L 12.091818 49.878108 
L 12.222727 48.096973 
L 12.484545 40.54918 
L 12.615455 41.172532 
L 12.746364 40.593217 
L 12.877273 42.534033 
L 13.27 40.329842 
L 13.400909 43.921345 
L 13.531818 43.805948 
L 13.662727 46.360278 
L 13.793636 45.312087 
L 13.924545 40.826526 
L 14.186364 43.064235 
L 14.448182 39.178959 
L 14.579091 39.708548 
L 14.71 42.39668 
L 14.840909 42.637068 
L 14.971818 47.524015 
L 15.102727 45.122969 
L 15.364545 39.444098 
L 15.626364 43.343541 
L 15.757273 39.316841 
L 15.888182 40.447366 
L 16.019091 44.996496 
L 16.15 44.169458 
L 16.280909 39.381395 
L 16.411818 39.46482 
L 16.804545 47.383833 
L 17.066364 43.643361 
L 17.328182 45.985326 
L 17.459091 45.443869 
L 17.59 38.581631 
L 17.720909 38.547438 
L 17.982727 41.864839 
L 18.113636 41.063421 
L 18.244545 42.159736 
L 18.375455 42.192282 
L 18.506364 42.484932 
L 18.768182 43.440397 
L 18.899091 47.908998 
L 19.03 46.906589 
L 19.160909 47.087287 
L 19.291818 45.35373 
L 19.553636 38.304946 
L 19.684545 36.291701 
L 19.946364 42.736696 
L 20.077273 41.452605 
L 20.208182 38.610035 
L 20.339091 40.140196 
L 20.600909 43.675091 
L 20.731818 42.509651 
L 20.993636 38.132415 
L 21.124545 39.044701 
L 21.386364 45.440278 
L 21.517273 45.401361 
L 21.648182 46.37954 
L 21.779091 45.915554 
L 21.91 43.659457 
L 22.040909 38.350473 
L 22.171818 40.758732 
L 22.302727 45.528189 
L 22.433636 44.618657 
L 22.564545 36.662101 
L 22.695455 36.834744 
L 22.957273 48.860662 
L 23.088182 49.356251 
L 23.219091 47.031833 
L 23.35 39.906785 
L 23.480909 41.372515 
L 23.611818 45.810441 
L 23.742727 46.200839 
L 23.873636 41.564012 
L 24.004545 42.30459 
L 24.135455 41.75309 
L 24.659091 48.533661 
L 24.79 46.859195 
L 25.051818 39.72228 
L 25.444545 49.273135 
L 25.575455 46.394967 
L 25.706364 38.66188 
L 25.837273 37.874847 
L 25.968182 40.179691 
L 26.099091 39.788807 
L 26.23 38.738044 
L 26.360909 40.360611 
L 26.491818 48.234493 
L 26.753636 47.389754 
L 26.884545 47.736652 
L 27.146364 45.126372 
L 27.408182 38.935427 
L 27.539091 39.334554 
L 27.800909 43.29516 
L 27.931818 42.460585 
L 28.062727 42.408598 
L 28.193636 43.161514 
L 28.455455 46.177205 
L 28.717273 42.758801 
L 28.848182 42.826312 
L 28.979091 43.076256 
L 29.240909 45.032728 
L 29.371818 39.681182 
L 29.502727 39.836777 
L 29.633636 41.377323 
L 29.895455 47.218428 
L 30.026364 45.043704 
L 30.157273 40.370699 
L 30.288182 40.324523 
L 30.419091 39.551641 
L 30.55 39.905243 
L 30.680909 37.225336 
L 30.811818 38.751652 
L 31.073636 46.310304 
L 31.204545 48.590853 
L 31.466364 39.960308 
L 31.597273 40.278531 
L 31.728182 40.371655 
L 31.859091 39.601095 
L 31.99 38.034757 
L 32.251818 43.64288 
L 32.382727 43.185391 
L 32.513636 40.782851 
L 32.644545 41.475513 
L 32.906364 47.276713 
L 33.037273 49.451527 
L 33.168182 47.693416 
L 33.691818 32.580263 
L 33.953636 46.311047 
L 34.084545 42.689889 
L 34.215455 43.068513 
L 34.346364 48.445427 
L 34.739091 42.448039 
L 34.87 41.111461 
L 35.000909 41.827744 
L 35.131818 40.514814 
L 35.262727 41.179964 
L 35.393636 43.514817 
L 35.524545 43.486939 
L 35.786364 44.790104 
L 36.048182 48.385026 
L 36.179091 50.054676 
L 36.571818 35.262045 
L 36.964545 49.712087 
L 37.095455 46.604124 
L 37.226364 39.788965 
L 37.488182 41.214068 
L 37.75 45.326161 
L 37.880909 45.768245 
L 38.011818 49.403108 
L 38.142727 47.171772 
L 38.404545 40.487353 
L 38.666364 43.262645 
L 38.797273 41.520413 
L 39.059091 43.620582 
L 39.19 43.561615 
L 39.451818 41.593278 
L 39.582727 44.416506 
L 39.713636 44.486892 
L 39.844545 43.482955 
L 39.975455 43.414632 
L 40.106364 42.200505 
L 40.368182 44.132082 
L 40.499091 43.630714 
L 40.63 43.806463 
L 40.891818 43.496432 
L 41.022727 42.69597 
L 41.284545 40.238991 
L 41.677273 44.534425 
L 41.808182 44.237546 
L 41.939091 39.674389 
L 42.07 39.15097 
L 42.331818 44.04311 
L 42.462727 43.686897 
L 42.724545 39.170928 
L 43.248182 50.898409 
L 43.640909 33.060421 
L 44.164545 40.144608 
L 44.295455 49.038284 
L 44.557273 42.600101 
L 44.819091 38.913536 
L 44.95 40.577059 
L 45.080909 38.665199 
L 45.342727 42.8401 
L 45.473636 41.840842 
L 45.604545 42.130619 
L 45.866364 40.706279 
L 45.997273 41.137137 
L 46.39 53.461586 
L 46.520909 50.942509 
L 46.651818 39.099732 
L 46.782727 38.360639 
L 46.913636 39.356174 
L 47.044545 38.34556 
L 47.175455 41.39728 
L 47.437273 50.316627 
L 47.83 46.196313 
L 48.091818 40.806854 
L 48.222727 40.785715 
L 48.353636 40.112206 
L 48.484545 37.148638 
L 48.746364 46.656036 
L 48.877273 46.547816 
L 49.008182 49.168481 
L 49.139091 46.751007 
L 49.27 42.000756 
L 49.400909 43.066577 
L 49.662727 42.400524 
L 49.793636 41.281325 
L 49.924545 41.999319 
L 50.055455 46.54098 
L 50.317273 42.565547 
L 50.448182 43.435461 
L 50.840909 39.685087 
L 51.102727 42.267786 
L 51.233636 42.421627 
L 51.495455 48.079396 
L 52.019091 37.17261 
L 52.15 38.58431 
L 52.411818 48.009308 
L 52.542727 45.797843 
L 52.673636 40.669992 
L 52.804545 43.536181 
L 52.935455 42.092857 
L 53.066364 42.509149 
L 53.197273 38.438521 
L 53.328182 38.175236 
L 53.459091 38.878746 
L 53.59 40.214623 
L 53.720909 45.464293 
L 53.851818 46.000665 
L 53.982727 47.513853 
L 54.113636 46.996406 
L 54.244545 41.453769 
L 54.375455 40.792464 
L 54.506364 41.085896 
L 54.637273 39.891645 
L 54.768182 41.228285 
L 55.03 46.569664 
L 55.160909 44.390128 
L 55.291818 38.262465 
L 55.422727 39.082279 
L 55.553636 38.857446 
L 55.815455 47.168819 
L 55.946364 46.241545 
L 56.077273 42.189511 
L 56.208182 42.646209 
L 56.339091 42.673582 
L 56.47 44.075629 
L 56.600909 44.206257 
L 56.862727 38.514176 
L 57.124545 39.860273 
L 57.386364 40.320272 
L 57.517273 39.977311 
L 57.648182 42.723143 
L 57.779091 42.984488 
L 58.171818 55.019027 
L 58.302727 49.393882 
L 58.433636 38.851164 
L 58.695455 38.004385 
L 58.826364 38.972039 
L 59.219091 45.308598 
L 59.35 43.733981 
L 59.480909 46.736363 
L 59.611818 45.729593 
L 59.742727 39.512968 
L 59.873636 39.098886 
L 60.397273 43.110679 
L 60.528182 48.29916 
L 60.79 41.290542 
L 61.051818 42.207991 
L 61.182727 41.53221 
L 61.313636 38.903174 
L 61.444545 39.128316 
L 61.706364 44.239701 
L 61.968182 46.794284 
L 62.099091 43.833381 
L 62.23 44.008789 
L 62.360909 46.277279 
L 62.491818 44.904424 
L 62.753636 39.660005 
L 62.884545 38.428775 
L 63.408182 44.312629 
L 63.67 41.944551 
L 63.800909 42.709977 
L 63.931818 41.198833 
L 64.062727 41.345272 
L 64.455455 47.769703 
L 64.586364 47.015818 
L 64.848182 40.918233 
L 65.371818 45.040281 
L 65.502727 40.641197 
L 65.895455 43.895325 
L 66.026364 39.306171 
L 66.157273 39.228751 
L 66.55 46.723954 
L 66.811818 53.429459 
L 66.942727 48.726594 
L 67.073636 34.858835 
L 67.204545 32.98758 
L 67.597273 47.296255 
L 67.728182 46.079563 
L 67.859091 46.197291 
L 68.120909 41.423292 
L 68.513636 46.943323 
L 68.644545 41.418246 
L 69.037273 44.434316 
L 69.299091 38.990973 
L 69.43 39.849326 
L 69.560909 41.750626 
L 69.691818 40.447623 
L 69.953636 48.235454 
L 70.084545 46.062362 
L 70.346364 33.681843 
L 70.477273 36.390771 
L 70.608182 50.558743 
L 70.739091 48.473989 
L 70.87 41.341899 
L 71.131818 45.519298 
L 71.393636 43.164973 
L 71.655455 37.754594 
L 71.786364 40.520549 
L 71.917273 46.525058 
L 72.048182 46.35549 
L 72.179091 43.16607 
L 72.440909 45.083613 
L 72.702727 35.087246 
L 72.833636 37.619225 
L 72.964545 46.870933 
L 73.095455 45.440468 
L 73.226364 41.824711 
L 73.357273 41.66255 
L 73.619091 42.563229 
L 73.75 41.859405 
L 73.880909 42.689734 
L 74.011818 45.273763 
L 74.273636 43.785027 
L 74.404545 41.791359 
L 74.535455 35.888554 
L 74.928182 43.416318 
L 75.059091 49.701445 
L 75.19 48.30958 
L 75.451818 38.989236 
L 75.582727 34.642142 
L 75.713636 38.674029 
L 75.844545 51.577065 
L 75.975455 49.070121 
L 76.237273 42.167299 
L 76.368182 41.25502 
L 76.499091 42.176231 
L 76.63 43.962286 
L 76.760909 43.106121 
L 76.891818 40.626221 
L 77.022727 41.433188 
L 77.284545 44.929943 
L 77.415455 46.238473 
L 77.546364 46.024074 
L 77.677273 45.290488 
L 77.808182 43.868254 
L 77.939091 40.696626 
L 78.07 40.912081 
L 78.200909 42.759644 
L 78.331818 42.187326 
L 78.724545 45.476749 
L 78.855455 45.054972 
L 78.986364 40.815845 
L 79.117273 42.13637 
L 79.379091 47.72717 
L 79.640909 44.408968 
L 79.771818 45.529372 
L 79.902727 44.381927 
L 80.033636 39.777284 
L 80.164545 40.846841 
L 80.426364 45.509528 
L 80.557273 47.140379 
L 80.819091 43.794459 
L 81.080909 38.535919 
L 81.211818 39.518687 
L 81.342727 44.672684 
L 81.473636 44.107244 
L 81.604545 44.713206 
L 81.866364 49.142861 
L 81.997273 47.137506 
L 82.128182 41.142491 
L 82.39 44.352945 
L 82.520909 40.637899 
L 82.651818 32.478876 
L 82.782727 36.65078 
L 82.913636 47.755126 
L 83.044545 45.925865 
L 83.175455 47.861799 
L 83.568182 42.790817 
L 83.699091 37.179933 
L 84.091818 45.8456 
L 84.353636 42.480207 
L 84.484545 45.60494 
L 84.615455 44.661205 
L 85.008182 35.360565 
L 85.400909 43.971761 
L 85.531818 42.38274 
L 85.662727 42.155699 
L 85.793636 44.678779 
L 86.055455 41.968329 
L 86.186364 43.607219 
L 86.317273 43.273074 
L 86.448182 42.091122 
L 86.579091 39.510853 
L 86.71 40.20787 
L 86.840909 45.554796 
L 86.971818 44.154917 
L 87.102727 39.762603 
L 87.233636 41.635764 
L 87.364545 46.232678 
L 87.495455 44.613349 
L 87.626364 40.928449 
L 87.757273 42.509352 
L 88.019091 40.525184 
L 88.15 37.775179 
L 88.280909 40.697898 
L 88.411818 50.785021 
L 88.935455 41.409645 
L 89.066364 41.048343 
L 89.197273 40.167352 
L 89.328182 42.776375 
L 89.459091 48.228348 
L 89.59 46.081783 
L 89.720909 41.843481 
L 89.851818 42.983368 
L 90.244545 39.134938 
L 90.375455 39.308914 
L 90.768182 44.476525 
L 90.899091 44.418701 
L 91.03 47.360451 
L 91.160909 47.445899 
L 91.422727 41.123851 
L 91.553636 38.436528 
L 91.684545 38.599451 
L 91.946364 42.705782 
L 92.077273 51.432195 
L 92.339091 44.337171 
L 92.47 43.935863 
L 92.862727 39.29718 
L 92.993636 40.489609 
L 93.386364 37.233444 
L 93.517273 39.938512 
L 93.648182 45.832847 
L 93.779091 45.588601 
L 93.91 44.903976 
L 94.171818 33.678712 
L 94.302727 38.19668 
L 94.433636 50.290252 
L 94.564545 49.594679 
L 94.826364 45.68616 
L 94.957273 40.288606 
L 95.088182 40.829659 
L 95.219091 42.372553 
L 95.35 42.024841 
L 95.742727 38.793452 
L 95.873636 40.707444 
L 96.004545 48.880491 
L 96.266364 44.094863 
L 96.397273 44.356185 
L 96.528182 42.140773 
L 96.79 47.294877 
L 97.051818 44.067274 
L 97.182727 43.701424 
L 97.313636 43.704271 
L 97.444545 43.860665 
L 97.706364 43.737169 
L 97.837273 43.269191 
L 98.099091 41.523705 
L 98.23 42.663027 
L 98.360909 47.311594 
L 98.622727 45.633694 
L 98.884545 35.967412 
L 99.015455 39.108805 
L 99.146364 47.457613 
L 99.277273 46.562514 
L 99.408182 43.400361 
L 99.67 47.244829 
L 100.324545 39.582947 
L 100.455455 35.479865 
L 100.848182 39.374136 
L 101.11 41.636688 
L 101.240909 50.457537 
L 101.502727 46.478395 
L 101.633636 45.559887 
L 101.764545 41.393677 
L 102.026364 40.239993 
L 102.157273 40.460484 
L 102.288182 40.237707 
L 102.55 44.731702 
L 102.680909 44.03828 
L 102.811818 45.79679 
L 103.073636 46.161179 
L 103.335455 35.36258 
L 103.466364 39.512987 
L 103.597273 49.606033 
L 103.728182 47.879544 
L 103.859091 44.416624 
L 103.99 44.296918 
L 104.251818 42.439371 
L 104.382727 42.095901 
L 104.513636 43.159053 
L 104.644545 43.218698 
L 104.775455 42.497529 
L 104.906364 42.691884 
L 105.168182 39.822914 
L 105.299091 42.053341 
L 105.560909 48.325418 
L 105.953636 35.873186 
L 106.215455 41.722776 
L 106.346364 41.092778 
L 106.477273 39.419456 
L 106.608182 40.973852 
L 106.739091 47.224023 
L 106.87 47.498905 
L 107.000909 42.302 
L 107.131818 42.599648 
L 107.262727 41.416384 
L 107.393636 42.289577 
L 107.524545 42.111448 
L 107.786364 45.966903 
L 107.917273 44.764763 
L 108.048182 46.737194 
L 108.31 39.139333 
L 108.571818 44.208961 
L 108.964545 40.928852 
L 109.226364 43.645568 
L 109.357273 42.319964 
L 109.488182 42.893054 
L 109.619091 42.164524 
L 109.75 43.482144 
L 109.880909 47.333715 
L 110.011818 47.500382 
L 110.273636 42.26925 
L 110.404545 36.610047 
L 110.535455 40.233877 
L 110.666364 50.502249 
L 110.797273 50.623895 
L 111.19 36.362595 
L 111.320909 39.174602 
L 111.451818 47.021007 
L 111.975455 42.501614 
L 112.106364 42.577411 
L 112.237273 44.187264 
L 112.368182 43.331636 
L 112.499091 41.235114 
L 112.63 42.022672 
L 112.891818 43.960256 
L 113.022727 43.515809 
L 113.284545 38.397582 
L 113.808182 46.736443 
L 113.939091 45.858199 
L 114.07 45.699849 
L 114.200909 47.844114 
L 114.593636 33.403541 
L 114.724545 37.366182 
L 114.855455 49.840637 
L 114.986364 48.782275 
L 115.117273 49.750932 
L 115.248182 48.479306 
L 115.640909 34.722899 
L 115.771818 36.207025 
L 115.902727 41.216669 
L 116.033636 40.681287 
L 116.295455 44.195569 
L 116.557273 42.767434 
L 116.95 48.362539 
L 117.080909 49.435968 
L 117.342727 40.648209 
L 117.473636 43.891286 
L 117.604545 42.374391 
L 117.735455 38.725406 
L 117.997273 43.337525 
L 118.128182 44.085534 
L 118.520909 36.922534 
L 118.651818 39.67817 
L 118.782727 44.875018 
L 118.913636 45.099091 
L 119.044545 45.589348 
L 119.175455 44.943077 
L 119.437273 38.243606 
L 119.568182 32.594202 
L 119.699091 36.066837 
L 119.83 47.112859 
L 119.960909 45.974867 
L 120.222727 41.243614 
L 120.353636 41.900517 
L 120.484545 41.437807 
L 120.615455 40.305092 
L 120.877273 44.43856 
L 121.008182 44.147645 
L 121.139091 40.455798 
L 121.27 41.407174 
L 121.400909 40.613459 
L 121.662727 38.120508 
L 121.924545 45.199025 
L 122.055455 43.669094 
L 122.186364 40.274046 
L 122.317273 41.466356 
L 122.448182 46.06599 
L 122.579091 45.697565 
L 122.840909 40.283297 
L 122.971818 39.249626 
L 123.364545 41.812746 
L 123.495455 43.378924 
L 123.757273 37.348282 
L 123.888182 38.854197 
L 124.019091 44.313815 
L 124.15 44.587671 
L 124.280909 44.462509 
L 124.804545 36.875232 
L 125.197273 44.494003 
L 125.328182 42.475732 
L 125.59 51.137729 
L 125.720909 49.130991 
L 125.851818 49.843364 
L 125.982727 46.333609 
L 126.113636 39.713612 
L 126.244545 42.095112 
L 126.375455 48.862238 
L 126.506364 44.944921 
L 126.637273 34.709414 
L 126.899091 45.617699 
L 127.160909 41.0029 
L 127.291818 44.161956 
L 127.422727 51.369425 
L 127.815455 43.529713 
L 127.946364 39.490414 
L 128.47 43.942269 
L 128.600909 43.11965 
L 128.731818 43.852417 
L 128.862727 43.568979 
L 128.993636 42.537566 
L 129.124545 42.98038 
L 129.386364 45.772082 
L 129.517273 45.776964 
L 129.779091 31.056195 
L 129.91 36.436779 
L 130.040909 47.776696 
L 130.171818 45.926397 
L 130.302727 46.144024 
L 130.826364 43.143264 
L 130.957273 43.383808 
L 131.088182 44.525352 
L 131.219091 44.339409 
L 131.480909 46.238271 
L 131.742727 42.414812 
L 131.873636 38.285803 
L 132.004545 40.092656 
L 132.135455 45.63372 
L 132.266364 44.375763 
L 132.528182 45.744665 
L 132.659091 45.446788 
L 132.79 45.774641 
L 133.051818 42.862471 
L 133.182727 40.071534 
L 133.313636 40.536043 
L 133.706364 48.021501 
L 133.968182 45.537902 
L 134.23 35.809473 
L 134.360909 38.304891 
L 134.491818 43.808338 
L 134.622727 43.536813 
L 134.753636 45.573438 
L 135.146364 43.862952 
L 135.408182 39.769397 
L 135.539091 39.93749 
L 135.800909 45.320554 
L 135.931818 42.122363 
L 136.062727 41.649657 
L 136.324545 34.007809 
L 136.586364 51.911609 
L 136.717273 50.320403 
L 136.848182 41.972384 
L 136.979091 40.912426 
L 137.11 41.324739 
L 137.11 41.324739 
" clip-path="url(#p614c80845d)" style="fill: none; stroke: #2166ac; stroke-width: 0.8; stroke-linecap: square"/>
   </g>
   <g id="line2d_8">
    <path d="M 36.702727 42.093348 
L 36.833636 43.464142 
L 36.964545 47.461825 
L 37.095455 46.069489 
L 37.226364 40.249918 
L 37.357273 39.910735 
L 37.619091 44.340838 
L 37.75 43.428326 
L 37.880909 43.764076 
L 38.011818 46.392874 
L 38.142727 45.143367 
L 38.273636 42.529841 
L 38.404545 42.516113 
L 38.535455 43.214501 
L 38.666364 43.075821 
L 38.797273 41.986996 
L 38.928182 41.90844 
L 39.19 42.667723 
L 39.320909 42.23058 
L 39.713636 43.579797 
L 39.844545 43.288163 
L 39.975455 43.412739 
L 40.237273 45.080991 
L 40.63 42.075693 
L 40.760909 41.762009 
L 40.891818 43.085593 
L 41.022727 42.366816 
L 41.153636 39.791812 
L 41.284545 39.711721 
L 41.677273 46.951566 
L 41.808182 45.355644 
L 41.939091 39.150316 
L 42.07 39.565265 
L 42.331818 45.053013 
L 42.462727 45.053663 
L 42.593636 43.610046 
L 42.724545 40.614806 
L 42.855455 41.316301 
L 43.117273 46.332046 
L 43.248182 49.009434 
L 43.379091 44.441079 
L 43.51 33.733904 
L 43.640909 32.729238 
L 44.295455 46.403459 
L 44.426364 45.445006 
L 44.557273 45.374231 
L 44.688182 44.966494 
L 44.819091 43.739676 
L 44.95 45.348354 
L 45.080909 44.924623 
L 45.473636 41.8941 
L 45.604545 42.438216 
L 45.735455 42.275378 
L 45.866364 41.380497 
L 46.259091 47.093431 
L 46.39 50.462852 
L 46.782727 39.279095 
L 46.913636 40.084635 
L 47.437273 48.674939 
L 47.568182 48.012916 
L 47.699091 48.062174 
L 48.222727 40.348869 
L 48.353636 40.412689 
L 48.484545 38.777871 
L 48.615455 40.523745 
L 48.746364 44.726938 
L 48.877273 44.753255 
L 49.008182 45.728995 
L 49.139091 45.268375 
L 49.27 43.256304 
L 49.400909 43.979337 
L 49.531818 43.474002 
L 49.662727 43.900933 
L 49.793636 42.2338 
L 49.924545 42.357783 
L 50.055455 45.301551 
L 50.186364 44.008468 
L 50.317273 39.473575 
L 50.448182 39.804509 
L 50.579091 41.185829 
L 50.840909 40.881196 
L 51.233636 43.442282 
L 51.364545 46.060386 
L 51.495455 45.423956 
L 51.757273 41.100357 
L 52.019091 39.54628 
L 52.15 40.449762 
L 52.411818 45.745231 
L 52.542727 44.57454 
L 52.673636 40.276073 
L 52.804545 40.161207 
L 52.935455 44.920271 
L 53.066364 43.97967 
L 53.197273 38.183188 
L 53.328182 38.814633 
L 53.459091 40.883463 
L 53.59 40.5144 
L 53.982727 47.569662 
L 54.113636 46.956454 
L 54.375455 42.017163 
L 54.506364 40.345241 
L 54.637273 40.297557 
L 55.03 47.310132 
L 55.160909 45.503796 
L 55.422727 36.746245 
L 55.553636 38.322071 
L 55.946364 47.243747 
L 56.077273 44.80183 
L 56.208182 44.512195 
L 56.339091 44.925078 
L 56.600909 43.88137 
L 56.731818 43.0628 
L 56.862727 40.88149 
L 56.993636 40.725023 
L 57.255455 40.064291 
L 57.386364 40.222168 
L 57.779091 43.744535 
L 58.171818 53.072861 
L 58.302727 49.805011 
L 58.564545 36.196474 
L 58.695455 37.520211 
L 58.957273 42.493393 
L 59.088182 42.185842 
L 59.480909 46.178673 
L 59.611818 44.981608 
L 59.742727 40.498576 
L 59.873636 41.674035 
L 60.004545 41.085484 
L 60.135455 41.613394 
L 60.528182 46.995459 
L 60.659091 45.964817 
L 60.79 40.133353 
L 60.920909 40.348952 
L 61.182727 39.908373 
L 61.313636 39.085035 
L 61.444545 39.425403 
L 61.706364 46.139465 
L 61.837273 47.462779 
L 61.968182 46.026753 
L 62.099091 41.917307 
L 62.23 41.771097 
L 62.360909 44.407452 
L 62.491818 44.530371 
L 62.753636 40.536028 
L 62.884545 41.58374 
L 63.146364 40.730001 
L 63.408182 44.25184 
L 63.539091 43.863938 
L 63.931818 40.26893 
L 64.062727 39.84198 
L 64.455455 47.77681 
L 64.586364 46.593751 
L 64.848182 41.032765 
L 65.11 44.316497 
L 65.240909 45.457904 
L 65.371818 45.118391 
L 65.502727 41.797198 
L 65.633636 42.022842 
L 65.764545 44.776399 
L 65.895455 44.936431 
L 66.157273 40.413209 
L 66.55 46.032487 
L 66.680909 48.272463 
L 66.811818 52.797291 
L 66.942727 48.429493 
L 67.073636 34.569493 
L 67.204545 34.394908 
L 67.597273 44.789912 
L 67.728182 45.088975 
L 67.859091 46.334708 
L 68.120909 42.322264 
L 68.251818 43.268098 
L 68.382727 46.289614 
L 68.513636 45.174351 
L 68.644545 40.171593 
L 68.775455 40.71265 
L 68.906364 42.119237 
L 69.037273 42.098276 
L 69.299091 38.832394 
L 69.43 40.580093 
L 69.560909 40.437474 
L 69.691818 41.208209 
L 69.953636 47.242239 
L 70.084545 44.019672 
L 70.346364 33.019472 
L 70.477273 38.128553 
L 70.608182 50.109258 
L 70.739091 47.528827 
L 70.87 40.250037 
L 71.131818 46.176842 
L 71.393636 44.048607 
L 71.655455 38.567057 
L 71.786364 40.585378 
L 71.917273 45.570138 
L 72.179091 43.181301 
L 72.440909 43.91368 
L 72.571818 41.468639 
L 72.702727 36.68732 
L 72.833636 38.851515 
L 72.964545 44.817212 
L 73.095455 44.627169 
L 73.357273 41.137315 
L 73.488182 39.857808 
L 73.880909 45.083474 
L 74.011818 48.326257 
L 74.142727 46.288742 
L 74.535455 33.452998 
L 75.059091 48.882306 
L 75.19 47.569859 
L 75.451818 39.330532 
L 75.582727 35.385569 
L 75.713636 39.97836 
L 75.844545 50.763359 
L 75.975455 48.78369 
L 76.237273 40.106169 
L 76.368182 38.355558 
L 76.499091 40.252586 
L 76.63 44.554033 
L 76.760909 43.543511 
L 76.891818 41.264361 
L 77.022727 41.15499 
L 77.284545 44.988579 
L 77.415455 47.070163 
L 77.546364 46.229643 
L 77.939091 40.950148 
L 78.07 40.924169 
L 78.200909 41.294948 
L 78.331818 42.028932 
L 78.593636 44.027562 
L 78.724545 44.929666 
L 78.855455 44.252465 
L 78.986364 42.548648 
L 79.117273 43.433934 
L 79.379091 48.407829 
L 79.640909 45.188394 
L 79.771818 46.192349 
L 79.902727 44.633606 
L 80.033636 40.792391 
L 80.164545 41.06679 
L 80.295455 44.511369 
L 80.557273 45.258037 
L 80.819091 44.211433 
L 80.95 42.739046 
L 81.080909 38.808729 
L 81.211818 40.513287 
L 81.473636 45.855671 
L 81.735455 48.484963 
L 81.866364 47.306747 
L 82.128182 42.653918 
L 82.39 44.398159 
L 82.520909 42.096941 
L 82.651818 34.472556 
L 82.782727 35.534455 
L 83.044545 45.498546 
L 83.175455 46.866719 
L 83.306364 45.769075 
L 83.437273 45.915138 
L 83.568182 43.824542 
L 83.699091 38.148595 
L 83.83 39.781553 
L 84.091818 45.115283 
L 84.353636 43.920174 
L 84.484545 44.669309 
L 85.008182 37.511307 
L 85.400909 42.732199 
L 85.531818 41.875161 
L 85.662727 42.200981 
L 85.793636 44.868088 
L 86.055455 43.861344 
L 86.186364 44.00903 
L 86.448182 42.991465 
L 86.579091 40.655662 
L 86.71 41.059942 
L 86.840909 44.408428 
L 86.971818 43.537959 
L 87.102727 41.070617 
L 87.233636 41.406724 
L 87.364545 42.400254 
L 87.495455 42.430693 
L 87.757273 44.623846 
L 87.888182 44.279566 
L 88.019091 45.017954 
L 88.15 43.296631 
L 88.280909 43.497413 
L 88.411818 46.777746 
L 88.804545 40.276041 
L 88.935455 40.200031 
L 89.197273 41.491912 
L 89.59 44.054235 
L 89.720909 43.687716 
L 90.113636 41.160051 
L 90.375455 43.061913 
L 90.506364 46.147467 
L 90.637273 45.763457 
L 90.768182 42.15165 
L 90.899091 43.488494 
L 91.03 49.445129 
L 91.160909 48.402591 
L 91.291818 43.030556 
L 91.422727 43.625198 
L 91.684545 38.422608 
L 91.815455 38.15199 
L 92.077273 48.880198 
L 92.208182 47.162834 
L 92.339091 44.943553 
L 92.47 44.995462 
L 92.731818 42.925773 
L 92.862727 42.251775 
L 92.993636 42.330825 
L 93.124545 40.497718 
L 93.255455 41.980288 
L 93.386364 41.589155 
L 93.517273 42.176456 
L 93.648182 44.853849 
L 93.779091 45.003085 
L 94.040909 42.452518 
L 94.171818 36.779144 
L 94.302727 39.252484 
L 94.433636 49.67889 
L 94.564545 48.343619 
L 94.957273 41.291871 
L 95.088182 42.151946 
L 95.219091 44.159374 
L 95.35 43.012505 
L 95.480909 36.771166 
L 95.611818 38.723219 
L 95.873636 45.792595 
L 96.004545 47.987215 
L 96.135455 46.832459 
L 96.528182 38.172844 
L 96.79 46.546157 
L 96.920909 45.578281 
L 97.051818 44.983289 
L 97.313636 42.815953 
L 97.444545 43.424284 
L 97.575455 44.862122 
L 97.706364 44.741243 
L 98.099091 38.578913 
L 98.360909 46.280015 
L 98.491818 46.019063 
L 98.753636 43.408226 
L 98.884545 38.436758 
L 99.015455 40.54032 
L 99.146364 46.601868 
L 99.408182 44.407271 
L 99.539091 45.673287 
L 99.67 45.283345 
L 99.931818 43.149151 
L 100.062727 42.60857 
L 100.324545 39.777632 
L 100.455455 36.380029 
L 101.11 43.878886 
L 101.240909 49.723348 
L 101.371818 48.297757 
L 101.633636 42.835837 
L 101.764545 40.069289 
L 101.895455 39.901076 
L 102.026364 38.598641 
L 102.157273 39.192547 
L 102.288182 38.524193 
L 102.419091 39.350754 
L 102.811818 44.763567 
L 102.942727 44.787431 
L 103.073636 45.270421 
L 103.335455 34.909239 
L 103.597273 47.725285 
L 103.597273 47.725285 
" clip-path="url(#p614c80845d)" style="fill: none; stroke: #e66101; stroke-width: 0.8; stroke-linecap: square"/>
   </g>
   <g id="line2d_9">
    <path d="M 3.19 71.930948 
L 3.320909 70.618723 
L 3.582727 63.272108 
L 3.713636 62.663367 
L 3.975455 73.010969 
L 4.106364 73.299872 
L 4.368182 66.025725 
L 4.499091 65.892401 
L 4.760909 70.724879 
L 4.891818 70.591792 
L 5.153636 62.383303 
L 5.284545 62.729951 
L 5.546364 70.487947 
L 5.677273 72.641472 
L 6.07 64.203903 
L 6.200909 65.686897 
L 6.331818 59.763207 
L 6.724545 75.530728 
L 7.117273 63.783192 
L 7.248182 66.591493 
L 7.379091 57.158454 
L 7.771818 72.835741 
L 8.033636 65.472308 
L 8.164545 66.564184 
L 8.426364 65.996203 
L 8.557273 67.936696 
L 8.688182 63.730361 
L 8.95 72.427626 
L 9.080909 72.16375 
L 9.342727 64.47897 
L 9.604545 69.645202 
L 9.735455 66.473422 
L 9.866364 67.484456 
L 9.997273 66.923033 
L 10.128182 67.248394 
L 10.259091 65.314081 
L 10.39 66.198959 
L 10.782727 70.83164 
L 10.913636 69.922931 
L 11.044545 64.471162 
L 11.175455 67.054643 
L 11.437273 74.212614 
L 11.83 64.235066 
L 11.960909 65.377436 
L 12.091818 62.194695 
L 12.746364 75.525088 
L 13.008182 65.077923 
L 13.139091 65.0614 
L 13.27 68.965984 
L 13.400909 66.777198 
L 13.793636 71.251663 
L 14.055455 69.554701 
L 14.317273 66.844071 
L 14.579091 69.837311 
L 14.71 67.124883 
L 14.840909 68.432662 
L 14.971818 68.159507 
L 15.233636 71.935364 
L 15.364545 72.015196 
L 15.495455 67.105858 
L 15.626364 66.872963 
L 15.888182 72.856729 
L 16.019091 67.688496 
L 16.15 69.336097 
L 16.280909 73.695686 
L 16.411818 71.731253 
L 16.673636 63.863557 
L 16.804545 65.179209 
L 16.935455 69.552821 
L 17.066364 65.427795 
L 17.328182 64.979947 
L 17.459091 65.348353 
L 17.720909 70.240028 
L 17.982727 68.493021 
L 18.113636 71.202899 
L 18.244545 71.380374 
L 18.375455 67.630468 
L 18.506364 67.942954 
L 18.768182 63.630375 
L 19.160909 68.412573 
L 19.291818 70.991039 
L 19.422727 70.985596 
L 19.553636 70.70581 
L 19.684545 69.163737 
L 19.946364 65.123397 
L 20.208182 70.816554 
L 20.339091 70.795577 
L 20.600909 63.421069 
L 20.862727 69.168378 
L 21.124545 66.807181 
L 21.255455 68.25041 
L 21.648182 64.893383 
L 21.779091 61.802988 
L 22.040909 71.013453 
L 22.171818 69.626099 
L 22.302727 66.796997 
L 22.433636 67.493571 
L 22.695455 73.94743 
L 23.088182 63.056094 
L 23.35 70.605651 
L 23.480909 70.541852 
L 23.611818 67.3139 
L 23.742727 67.035905 
L 24.004545 71.344667 
L 24.266364 67.460079 
L 24.397273 68.169992 
L 24.528182 68.258342 
L 24.659091 65.432942 
L 25.051818 73.697587 
L 25.444545 63.38148 
L 25.837273 76.605719 
L 26.099091 64.309704 
L 26.360909 68.30184 
L 26.491818 67.085617 
L 26.622727 68.808558 
L 26.753636 63.010299 
L 27.146364 68.613262 
L 27.408182 74.423783 
L 27.67 66.495021 
L 27.800909 66.841704 
L 27.931818 69.320117 
L 28.062727 68.090717 
L 28.193636 68.262551 
L 28.324545 64.88601 
L 28.455455 64.959501 
L 28.979091 72.074689 
L 29.11 65.999359 
L 29.240909 66.344933 
L 29.502727 72.43465 
L 29.764545 64.689785 
L 29.895455 64.44902 
L 30.157273 71.090216 
L 30.288182 70.223322 
L 30.419091 67.285641 
L 30.55 68.864999 
L 30.811818 73.648693 
L 31.073636 62.729206 
L 31.204545 61.860364 
L 31.466364 71.359753 
L 31.597273 72.938703 
L 31.859091 67.474752 
L 31.99 67.74747 
L 32.251818 66.48599 
L 32.382727 68.235113 
L 32.513636 67.984019 
L 32.644545 69.571979 
L 33.037273 61.804035 
L 33.168182 65.944672 
L 33.299091 64.805192 
L 33.691818 77.64886 
L 33.953636 64.736972 
L 34.084545 66.078355 
L 34.215455 68.967984 
L 34.346364 62.84284 
L 34.608182 69.256008 
L 34.87 64.89337 
L 35.000909 66.268792 
L 35.131818 69.296736 
L 35.262727 68.717684 
L 35.393636 68.71513 
L 35.524545 69.168865 
L 35.655455 70.88058 
L 35.786364 70.900319 
L 35.917273 64.217724 
L 36.048182 63.548567 
L 36.179091 61.21704 
L 36.571818 78.619833 
L 36.833636 65.619257 
L 36.964545 62.078427 
L 37.226364 71.031239 
L 37.357273 71.972743 
L 37.619091 66.201806 
L 37.75 65.864115 
L 37.880909 69.075876 
L 38.011818 68.960026 
L 38.142727 71.19772 
L 38.404545 68.983518 
L 38.535455 67.99423 
L 38.666364 68.508327 
L 38.928182 71.231241 
L 39.059091 69.328303 
L 39.19 70.06363 
L 39.320909 69.599469 
L 39.451818 68.136353 
L 39.582727 65.340118 
L 39.975455 74.21921 
L 40.237273 64.581494 
L 40.499091 69.018348 
L 40.63 68.061215 
L 40.760909 68.917053 
L 40.891818 68.372573 
L 41.022727 69.283056 
L 41.153636 71.285247 
L 41.415455 70.716991 
L 41.677273 66.973583 
L 41.808182 67.389826 
L 42.07 69.489557 
L 42.331818 67.387119 
L 42.462727 68.472332 
L 42.593636 70.895619 
L 42.724545 71.124779 
L 42.855455 69.721307 
L 43.117273 61.256697 
L 43.248182 59.688897 
L 43.640909 80.82 
L 43.902727 63.73479 
L 44.033636 63.191994 
L 44.164545 64.812529 
L 44.295455 61.728932 
L 44.426364 68.131521 
L 44.557273 67.574181 
L 44.688182 69.758088 
L 44.819091 69.425289 
L 44.95 67.854621 
L 45.080909 69.142408 
L 45.342727 65.471009 
L 45.473636 65.036853 
L 45.604545 65.978705 
L 45.735455 68.449601 
L 45.997273 68.923736 
L 46.259091 62.664146 
L 46.39 61.516152 
L 47.044545 76.22552 
L 47.437273 60.018475 
L 47.568182 66.062668 
L 47.699091 65.154943 
L 47.83 67.163176 
L 47.960909 67.327996 
L 48.091818 67.880189 
L 48.222727 72.62257 
L 48.353636 71.806264 
L 48.615455 64.398829 
L 48.746364 62.778397 
L 49.139091 68.803999 
L 49.27 70.722491 
L 49.531818 68.936767 
L 49.793636 65.830218 
L 50.186364 70.630945 
L 50.317273 70.647144 
L 50.448182 70.915963 
L 50.71 66.347822 
L 50.971818 67.111701 
L 51.233636 69.276441 
L 51.364545 64.037242 
L 51.495455 64.942454 
L 51.757273 71.408251 
L 51.888182 71.807374 
L 52.019091 71.471824 
L 52.280909 63.525241 
L 52.411818 62.398167 
L 52.673636 70.415326 
L 52.935455 67.224026 
L 53.066364 67.27623 
L 53.328182 72.083816 
L 53.59 66.804269 
L 53.851818 69.543102 
L 53.982727 65.237779 
L 54.375455 71.645349 
L 54.637273 69.118472 
L 54.768182 69.343616 
L 54.899091 67.83314 
L 55.03 64.897938 
L 55.291818 69.927709 
L 55.422727 70.669523 
L 55.553636 70.185066 
L 55.815455 66.829358 
L 56.077273 71.189578 
L 56.208182 71.33985 
L 56.47 67.275401 
L 56.600909 67.791761 
L 56.862727 73.62303 
L 56.993636 73.005001 
L 57.255455 66.027982 
L 57.517273 70.732701 
L 57.648182 69.375117 
L 57.779091 70.864558 
L 58.040909 59.186376 
L 58.171818 57.135393 
L 58.433636 72.289904 
L 58.564545 74.104505 
L 58.695455 73.617917 
L 58.826364 74.290586 
L 59.088182 66.003722 
L 59.219091 64.180182 
L 59.35 68.964705 
L 59.480909 67.021159 
L 59.611818 68.710658 
L 59.873636 75.015446 
L 60.135455 66.907773 
L 60.397273 64.360581 
L 60.528182 64.752645 
L 60.79 70.940694 
L 60.920909 71.281645 
L 61.182727 64.570236 
L 61.444545 69.714459 
L 61.575455 69.211434 
L 61.706364 67.681114 
L 61.837273 63.10208 
L 61.968182 64.911025 
L 62.099091 68.810125 
L 62.23 68.709421 
L 62.360909 64.498355 
L 62.622727 70.354412 
L 62.753636 69.802626 
L 62.884545 70.424524 
L 63.015455 67.553793 
L 63.146364 68.095681 
L 63.277273 69.161955 
L 63.408182 64.630355 
L 63.67 68.699613 
L 63.800909 68.575122 
L 64.062727 65.367564 
L 64.193636 68.830134 
L 64.324545 66.88441 
L 64.455455 61.680352 
L 64.848182 69.308757 
L 64.979091 71.572014 
L 65.11 70.285144 
L 65.240909 67.389369 
L 65.371818 68.101133 
L 65.502727 71.401281 
L 65.633636 71.471531 
L 65.764545 67.188267 
L 65.895455 67.494649 
L 66.026364 70.769558 
L 66.157273 70.819542 
L 66.419091 65.1117 
L 66.680909 63.54605 
L 66.811818 58.978033 
L 67.204545 78.997333 
L 67.466364 65.004656 
L 67.597273 63.318352 
L 67.728182 67.49753 
L 67.859091 63.766882 
L 68.120909 69.458472 
L 68.382727 63.811554 
L 68.513636 65.768425 
L 68.644545 71.09058 
L 68.775455 71.284905 
L 69.037273 64.33382 
L 69.43 71.350708 
L 69.953636 63.335002 
L 70.084545 67.482198 
L 70.215455 75.381672 
L 70.477273 64.929737 
L 70.608182 65.053533 
L 70.739091 68.085054 
L 71.131818 63.19588 
L 71.524545 69.251654 
L 71.786364 68.068356 
L 71.917273 67.228006 
L 72.048182 65.129158 
L 72.179091 66.78952 
L 72.440909 64.445311 
L 72.571818 73.024071 
L 72.702727 73.236163 
L 72.964545 59.450105 
L 73.095455 61.722415 
L 73.357273 71.325191 
L 73.488182 71.47557 
L 73.619091 69.961461 
L 73.75 66.6236 
L 73.880909 66.894385 
L 74.011818 64.549585 
L 74.142727 64.813578 
L 74.404545 74.797255 
L 74.666364 66.65344 
L 74.797273 63.874018 
L 74.928182 65.225184 
L 75.059091 61.66405 
L 75.19 62.257427 
L 75.320909 65.553014 
L 75.451818 74.362147 
L 75.582727 71.476379 
L 75.844545 61.443562 
L 76.237273 70.407051 
L 76.368182 71.528886 
L 76.63 66.939784 
L 76.891818 68.369488 
L 77.153636 68.793319 
L 77.284545 68.297045 
L 77.415455 66.040666 
L 77.546364 66.038288 
L 77.677273 67.908764 
L 77.808182 72.341541 
L 77.939091 72.915086 
L 78.200909 67.191534 
L 78.462727 70.097492 
L 78.724545 68.979241 
L 78.855455 73.922271 
L 79.117273 66.802887 
L 79.248182 66.851076 
L 79.379091 69.310868 
L 79.51 64.93881 
L 79.902727 69.582011 
L 80.033636 66.184522 
L 80.295455 72.245846 
L 80.426364 70.541072 
L 80.557273 67.192849 
L 80.819091 66.268313 
L 81.080909 76.194608 
L 81.342727 63.627354 
L 81.604545 67.994902 
L 81.735455 68.65989 
L 81.997273 63.991004 
L 82.128182 71.651338 
L 82.259091 70.116559 
L 82.39 66.857325 
L 82.520909 78.27411 
L 82.651818 74.445777 
L 82.913636 58.854502 
L 83.175455 69.178071 
L 83.306364 68.613116 
L 83.437273 69.275933 
L 83.699091 67.596122 
L 83.83 71.085488 
L 83.960909 67.316585 
L 84.091818 69.132986 
L 84.222727 66.159295 
L 84.484545 68.020953 
L 84.615455 67.368858 
L 84.877273 73.123279 
L 85.139091 68.32799 
L 85.27 69.930214 
L 85.531818 66.569816 
L 85.662727 68.060875 
L 85.793636 67.413707 
L 85.924545 68.363826 
L 86.055455 68.147904 
L 86.186364 65.312753 
L 86.317273 65.140202 
L 86.448182 70.904729 
L 86.579091 69.969436 
L 86.71 68.135891 
L 86.840909 69.055763 
L 86.971818 70.884235 
L 87.364545 64.420887 
L 87.495455 65.692727 
L 87.626364 71.169885 
L 87.757273 71.143548 
L 87.888182 67.55508 
L 88.15 70.798952 
L 88.411818 61.319316 
L 88.673636 65.868818 
L 88.804545 65.742045 
L 88.935455 67.539154 
L 89.066364 71.406115 
L 89.197273 71.737369 
L 89.328182 69.21203 
L 89.459091 64.242925 
L 89.59 65.103609 
L 89.720909 69.399086 
L 89.851818 69.063382 
L 90.113636 71.078764 
L 90.244545 70.453472 
L 90.375455 70.814621 
L 90.768182 64.605661 
L 90.899091 66.126701 
L 91.160909 64.627139 
L 91.291818 67.175252 
L 91.422727 72.240596 
L 91.553636 68.246129 
L 91.684545 67.988085 
L 91.815455 65.255839 
L 91.946364 66.435377 
L 92.077273 62.410576 
L 92.339091 68.716728 
L 92.600909 68.120154 
L 92.731818 69.230456 
L 92.862727 72.907127 
L 92.993636 73.138287 
L 93.124545 70.920667 
L 93.255455 72.660829 
L 93.648182 61.816668 
L 94.040909 72.932548 
L 94.433636 64.627809 
L 94.564545 65.740275 
L 94.695455 65.587256 
L 94.826364 65.716731 
L 94.957273 67.509469 
L 95.088182 67.718826 
L 95.35 74.249101 
L 95.742727 67.624947 
L 95.873636 67.64234 
L 96.004545 64.877381 
L 96.266364 69.291435 
L 96.397273 68.708586 
L 96.528182 65.795949 
L 96.659091 65.511199 
L 96.920909 69.097028 
L 97.051818 69.361512 
L 97.182727 69.245715 
L 97.313636 69.610717 
L 97.444545 69.159074 
L 97.575455 67.319913 
L 97.706364 67.420318 
L 97.968182 74.707744 
L 98.099091 72.768468 
L 98.360909 60.90406 
L 98.622727 68.19746 
L 98.753636 74.72615 
L 98.884545 72.967874 
L 99.146364 63.391888 
L 99.277273 66.543721 
L 99.408182 66.980682 
L 99.539091 68.939524 
L 99.800909 63.814657 
L 100.062727 68.889391 
L 100.324545 72.592978 
L 100.455455 74.478175 
L 100.848182 70.878707 
L 100.979091 65.587002 
L 101.11 65.03545 
L 101.240909 58.539407 
L 101.371818 62.303098 
L 101.502727 70.7167 
L 101.633636 69.799259 
L 101.895455 66.680001 
L 102.157273 72.545674 
L 102.419091 68.347802 
L 102.55 63.381802 
L 102.680909 64.993941 
L 102.811818 64.555743 
L 102.942727 64.919582 
L 103.204545 74.627528 
L 103.335455 73.050546 
L 103.597273 62.482043 
L 103.728182 63.510881 
L 104.251818 74.082973 
L 104.644545 58.848584 
L 105.037273 70.460058 
L 105.168182 65.924765 
L 105.299091 65.475248 
L 105.43 67.742503 
L 105.560909 64.980952 
L 105.691818 67.815609 
L 105.822727 74.61141 
L 105.953636 73.551308 
L 106.084545 68.368155 
L 106.215455 69.205392 
L 106.346364 71.663579 
L 106.739091 65.593959 
L 106.87 64.298836 
L 107.000909 65.675226 
L 107.262727 69.230103 
L 107.524545 65.943584 
L 107.655455 66.232028 
L 107.786364 65.900888 
L 107.917273 68.447132 
L 108.048182 65.620951 
L 108.179091 66.357997 
L 108.440909 68.34631 
L 108.571818 69.117003 
L 108.702727 72.069885 
L 108.964545 67.796234 
L 109.095455 70.897313 
L 109.226364 70.694856 
L 109.619091 65.420211 
L 109.75 66.219752 
L 110.011818 68.757248 
L 110.142727 65.181347 
L 110.535455 70.925006 
L 110.797273 65.539786 
L 110.928182 67.444155 
L 111.059091 76.191869 
L 111.19 75.785063 
L 111.451818 62.268403 
L 111.713636 66.741469 
L 111.844545 66.978389 
L 111.975455 64.989989 
L 112.106364 65.772675 
L 112.368182 68.671511 
L 112.63 70.216598 
L 112.760909 69.966736 
L 112.891818 69.085415 
L 113.022727 69.300094 
L 113.153636 73.927744 
L 113.415455 66.745743 
L 113.546364 66.001154 
L 113.808182 67.852628 
L 113.939091 68.439254 
L 114.200909 60.385892 
L 114.331818 64.933462 
L 114.462727 76.847519 
L 114.593636 74.695914 
L 114.855455 57.578493 
L 115.379091 68.376783 
L 115.51 75.438632 
L 115.640909 74.154971 
L 115.902727 65.27471 
L 116.033636 70.697636 
L 116.164545 70.893323 
L 116.426364 69.103619 
L 116.557273 68.42916 
L 116.688182 71.151621 
L 116.819091 70.261467 
L 116.95 63.99857 
L 117.080909 67.502163 
L 117.211818 63.421181 
L 117.473636 70.648191 
L 117.604545 70.567068 
L 117.866364 66.887851 
L 117.997273 66.608706 
L 118.128182 69.083668 
L 118.259091 68.23841 
L 118.39 70.715107 
L 118.520909 70.900216 
L 118.913636 66.424091 
L 119.044545 70.387474 
L 119.306364 67.285732 
L 119.437273 72.552972 
L 119.568182 71.609189 
L 119.83 67.304367 
L 119.960909 69.001291 
L 120.091818 69.000271 
L 120.222727 69.482931 
L 120.353636 69.242966 
L 120.484545 68.099384 
L 120.746364 68.705345 
L 120.877273 68.031774 
L 121.139091 63.457619 
L 121.531818 71.725374 
L 121.662727 71.524663 
L 121.924545 66.714882 
L 122.055455 67.067603 
L 122.186364 70.157698 
L 122.317273 70.594093 
L 122.448182 67.046068 
L 122.579091 68.541142 
L 122.71 65.942016 
L 122.971818 70.587863 
L 123.102727 69.858983 
L 123.233636 67.388063 
L 123.364545 67.626197 
L 123.495455 68.278034 
L 123.626364 73.517017 
L 123.757273 72.044324 
L 124.019091 68.069035 
L 124.15 69.141703 
L 124.411818 68.552165 
L 124.542727 68.212022 
L 124.673636 73.160923 
L 124.804545 72.567616 
L 124.935455 69.82674 
L 125.066364 71.415594 
L 125.197273 71.03759 
L 125.328182 65.05749 
L 125.459091 66.70478 
L 125.720909 62.737752 
L 125.851818 63.822161 
L 125.982727 69.472108 
L 126.113636 67.207244 
L 126.244545 68.598027 
L 126.375455 67.138882 
L 126.506364 67.769776 
L 126.768182 71.093095 
L 126.899091 71.238666 
L 127.03 73.601101 
L 127.160909 72.315228 
L 127.422727 62.521394 
L 127.553636 63.916338 
L 127.815455 72.408049 
L 128.208182 67.035913 
L 128.339091 69.221199 
L 128.47 68.602926 
L 128.600909 68.796657 
L 128.731818 70.761309 
L 128.862727 70.191467 
L 128.993636 66.61682 
L 129.124545 67.489273 
L 129.255455 69.69036 
L 129.517273 66.674778 
L 129.648182 74.24153 
L 129.779091 72.864483 
L 130.040909 61.879293 
L 130.302727 68.627289 
L 130.433636 68.670742 
L 130.695455 67.539594 
L 130.826364 69.944633 
L 130.957273 70.061342 
L 131.088182 70.795142 
L 131.219091 70.589565 
L 131.480909 68.646137 
L 131.611818 64.246122 
L 131.873636 71.522291 
L 132.135455 66.765441 
L 132.266364 68.395814 
L 132.659091 66.084576 
L 132.920909 67.162295 
L 133.051818 72.322892 
L 133.182727 72.822456 
L 133.444545 58.867404 
L 133.575455 60.386553 
L 134.23 74.076987 
L 134.491818 68.133127 
L 134.622727 69.675342 
L 134.884545 66.71926 
L 135.015455 66.859085 
L 135.146364 64.472764 
L 135.277273 65.729622 
L 135.408182 72.917559 
L 135.67 65.890418 
L 135.800909 59.126925 
L 136.193636 74.190735 
L 136.324545 73.031278 
L 136.586364 59.149655 
L 136.848182 61.359159 
L 136.979091 67.996544 
L 137.11 66.872819 
L 137.11 66.872819 
" clip-path="url(#p614c80845d)" style="fill: none; stroke: #2166ac; stroke-width: 0.8; stroke-linecap: square"/>
   </g>
   <g id="line2d_10">
    <path d="M 36.702727 68.957147 
L 36.964545 64.729323 
L 37.095455 66.694643 
L 37.357273 72.102235 
L 37.619091 67.308626 
L 37.75 66.66543 
L 37.880909 68.318938 
L 38.011818 68.142262 
L 38.142727 69.875205 
L 38.535455 67.901829 
L 38.928182 71.313386 
L 39.059091 70.473724 
L 39.19 70.579236 
L 39.582727 65.962926 
L 39.975455 71.216468 
L 40.106364 67.54262 
L 40.368182 68.489045 
L 40.499091 69.736699 
L 40.63 68.468727 
L 40.760909 69.590793 
L 40.891818 68.268204 
L 41.153636 70.187307 
L 41.284545 70.922404 
L 41.677273 64.762216 
L 41.939091 68.252017 
L 42.07 69.86908 
L 42.331818 66.52705 
L 42.462727 66.666184 
L 42.724545 70.794676 
L 42.855455 71.229364 
L 43.117273 60.595089 
L 43.248182 61.98942 
L 43.640909 78.737705 
L 44.033636 63.910902 
L 44.295455 61.382081 
L 44.557273 65.562754 
L 44.688182 67.925597 
L 44.819091 66.983094 
L 44.95 67.445924 
L 45.211818 67.555152 
L 45.342727 66.380914 
L 45.473636 66.397135 
L 45.604545 67.001941 
L 45.997273 69.626354 
L 46.259091 64.230103 
L 46.39 62.924343 
L 46.913636 73.094649 
L 47.044545 72.205027 
L 47.306364 65.514742 
L 47.437273 63.313067 
L 47.83 68.276497 
L 47.960909 68.734187 
L 48.222727 71.23494 
L 48.353636 70.714586 
L 48.484545 66.446391 
L 48.615455 65.889907 
L 48.746364 66.053009 
L 48.877273 68.164998 
L 49.008182 67.553593 
L 49.139091 68.599767 
L 49.27 68.405543 
L 49.400909 69.539746 
L 49.662727 69.164608 
L 49.793636 65.691135 
L 49.924545 65.646405 
L 50.055455 66.731726 
L 50.317273 71.19485 
L 50.448182 73.112685 
L 50.71 65.195683 
L 50.971818 68.4072 
L 51.102727 66.311373 
L 51.233636 67.323049 
L 51.364545 66.483038 
L 51.757273 71.68759 
L 52.019091 67.644573 
L 52.15 68.80198 
L 52.280909 68.370946 
L 52.411818 64.284416 
L 52.673636 69.539638 
L 52.804545 70.279334 
L 52.935455 66.648515 
L 53.066364 67.019839 
L 53.328182 73.316523 
L 53.59 67.735213 
L 53.851818 68.37516 
L 53.982727 67.143728 
L 54.113636 68.292708 
L 54.244545 68.373452 
L 54.375455 70.252596 
L 54.506364 70.513461 
L 54.637273 70.175858 
L 54.768182 69.247418 
L 54.899091 67.410578 
L 55.03 63.71933 
L 55.422727 73.598621 
L 55.815455 67.63445 
L 55.946364 67.704437 
L 56.077273 67.039707 
L 56.208182 68.518218 
L 56.339091 68.420821 
L 56.731818 71.748566 
L 57.255455 67.095608 
L 57.517273 71.384595 
L 57.779091 69.410577 
L 58.171818 58.625049 
L 58.564545 77.494189 
L 59.219091 63.489398 
L 59.611818 70.556394 
L 59.873636 72.672164 
L 60.135455 67.431402 
L 60.266364 66.456774 
L 60.397273 64.549264 
L 60.528182 64.763733 
L 60.79 69.818978 
L 60.920909 71.570725 
L 61.051818 65.834265 
L 61.182727 65.40465 
L 61.444545 71.493936 
L 61.837273 62.320593 
L 62.23 69.880318 
L 62.360909 66.311385 
L 62.491818 66.993501 
L 62.753636 70.609576 
L 62.884545 68.418971 
L 63.015455 68.158455 
L 63.146364 68.674705 
L 63.277273 67.585341 
L 63.408182 63.303887 
L 63.800909 70.462833 
L 64.062727 65.696458 
L 64.193636 66.919972 
L 64.324545 66.667696 
L 64.455455 64.20538 
L 64.848182 69.914969 
L 64.979091 70.347338 
L 65.240909 66.286352 
L 65.633636 70.791142 
L 65.764545 67.449204 
L 65.895455 67.783075 
L 66.026364 68.655764 
L 66.157273 68.497604 
L 66.288182 66.932662 
L 66.419091 67.166298 
L 66.55 66.646738 
L 66.680909 65.429269 
L 66.811818 62.095499 
L 67.204545 77.593149 
L 67.466364 65.417542 
L 67.597273 64.916774 
L 67.728182 65.660738 
L 67.859091 64.185731 
L 68.120909 69.329843 
L 68.251818 67.729667 
L 68.382727 64.731026 
L 68.513636 66.542987 
L 68.775455 72.867385 
L 68.906364 66.16208 
L 69.037273 66.687158 
L 69.299091 69.424759 
L 69.43 68.695981 
L 69.560909 69.249368 
L 69.691818 68.752477 
L 69.953636 65.96068 
L 70.215455 75.368092 
L 70.346364 71.928755 
L 70.608182 62.845584 
L 70.87 67.124508 
L 71.000909 66.538603 
L 71.131818 63.945099 
L 71.393636 66.278373 
L 71.524545 67.354898 
L 71.655455 67.100462 
L 71.786364 68.991297 
L 72.179091 66.965667 
L 72.31 66.91068 
L 72.440909 68.66426 
L 72.571818 73.161196 
L 72.702727 71.411549 
L 72.964545 63.972644 
L 73.095455 64.710085 
L 73.226364 67.195428 
L 73.357273 72.445901 
L 73.619091 68.524963 
L 73.75 64.821485 
L 73.880909 65.086783 
L 74.142727 67.903239 
L 74.404545 77.019259 
L 74.666364 69.78375 
L 74.797273 63.442015 
L 74.928182 63.393803 
L 75.059091 63.113866 
L 75.19 63.400577 
L 75.451818 73.129074 
L 75.582727 71.35161 
L 75.844545 63.827384 
L 76.237273 72.527564 
L 76.63 66.412624 
L 76.891818 67.913979 
L 77.022727 68.509156 
L 77.153636 68.117667 
L 77.415455 65.862078 
L 77.677273 68.824324 
L 77.808182 71.509654 
L 78.07 69.829078 
L 78.200909 69.24276 
L 78.331818 69.669336 
L 78.593636 67.786974 
L 78.724545 68.644932 
L 78.855455 71.477308 
L 79.248182 66.124328 
L 79.379091 67.722356 
L 79.51 65.512716 
L 79.640909 65.719477 
L 79.771818 66.592829 
L 79.902727 68.693325 
L 80.033636 68.192725 
L 80.164545 69.854863 
L 80.295455 69.760684 
L 80.426364 69.331789 
L 80.688182 67.153275 
L 80.819091 68.400307 
L 80.95 72.630736 
L 81.080909 71.211335 
L 81.342727 64.112085 
L 81.735455 69.155344 
L 81.866364 66.644967 
L 81.997273 66.802123 
L 82.128182 68.425175 
L 82.259091 66.820848 
L 82.39 67.163651 
L 82.520909 75.977204 
L 82.651818 73.780762 
L 82.913636 62.343631 
L 83.306364 68.635123 
L 83.437273 68.800041 
L 83.568182 67.372421 
L 83.699091 67.519125 
L 83.83 71.785969 
L 84.091818 66.358833 
L 84.222727 61.413351 
L 84.484545 67.867553 
L 84.615455 68.547562 
L 84.877273 71.485279 
L 85.27 66.647915 
L 85.400909 68.809531 
L 85.793636 66.15626 
L 86.055455 69.318256 
L 86.186364 66.964379 
L 86.317273 66.621548 
L 86.448182 70.878029 
L 86.840909 67.813489 
L 86.971818 69.807077 
L 87.102727 69.024195 
L 87.364545 65.196776 
L 87.626364 70.252057 
L 87.757273 70.147926 
L 87.888182 66.832776 
L 88.019091 66.688398 
L 88.15 64.194042 
L 88.411818 67.709827 
L 88.542727 67.632072 
L 88.804545 69.346032 
L 88.935455 68.97768 
L 89.066364 70.03831 
L 89.197273 68.731994 
L 89.328182 69.189839 
L 89.459091 67.337121 
L 89.59 67.234015 
L 89.851818 68.805136 
L 89.982727 69.054336 
L 90.113636 70.816987 
L 90.244545 70.23324 
L 90.506364 64.667574 
L 90.637273 65.245467 
L 90.768182 64.861486 
L 91.03 68.879678 
L 91.291818 64.22617 
L 91.553636 69.764422 
L 91.684545 71.07403 
L 91.946364 66.309963 
L 92.077273 66.120063 
L 92.339091 68.324821 
L 92.47 68.841199 
L 92.600909 67.690753 
L 92.862727 68.474166 
L 92.993636 70.881011 
L 93.124545 69.626845 
L 93.255455 70.2083 
L 93.517273 66.621788 
L 93.648182 67.554141 
L 93.779091 66.486634 
L 93.91 66.923582 
L 94.040909 71.252014 
L 94.302727 65.917555 
L 94.433636 66.539836 
L 94.564545 68.621177 
L 94.695455 67.728532 
L 94.826364 65.15193 
L 94.957273 64.978773 
L 95.219091 69.812507 
L 95.35 74.836406 
L 95.873636 65.065592 
L 96.004545 66.722648 
L 96.135455 66.57732 
L 96.266364 68.257512 
L 96.397273 72.375295 
L 96.79 64.727004 
L 97.182727 70.174808 
L 97.313636 69.13825 
L 97.444545 65.98341 
L 97.575455 66.007786 
L 97.706364 66.617969 
L 97.837273 68.940326 
L 97.968182 75.974135 
L 98.099091 73.487192 
L 98.360909 62.045097 
L 98.491818 63.455417 
L 98.753636 71.961909 
L 98.884545 70.394415 
L 99.146364 65.438492 
L 99.277273 66.336785 
L 99.408182 65.581038 
L 99.539091 66.944838 
L 99.67 64.932537 
L 100.062727 68.520427 
L 100.455455 73.780019 
L 100.979091 65.77382 
L 101.11 66.057191 
L 101.371818 65.926359 
L 101.764545 70.622957 
L 101.895455 70.065764 
L 102.026364 68.947384 
L 102.157273 72.106912 
L 102.419091 70.253142 
L 102.680909 65.435811 
L 102.811818 64.583119 
L 102.942727 66.138344 
L 103.204545 73.973996 
L 103.335455 73.077487 
L 103.597273 63.548357 
L 103.597273 63.548357 
" clip-path="url(#p614c80845d)" style="fill: none; stroke: #e66101; stroke-width: 0.8; stroke-linecap: square"/>
   </g>
   <g id="patch_3">
    <path d="M 3.19 84.6 
L 137.11 84.6 
" style="fill: none; stroke: #000000; stroke-width: 0.6; stroke-linejoin: miter; stroke-linecap: square"/>
   </g>
  </g>
 </g>
 <defs>
  <clipPath id="p614c80845d">
   <rect x="3.19" y="1.44" width="133.92" height="83.16"/>
  </clipPath>
 </defs>
</svg>
