<?xml version="1.0" encoding="utf-8" standalone="no"?>
<!DOCTYPE svg PUBLIC "-//W3C//DTD SVG 1.1//EN"
  "http://www.w3.org/Graphics/SVG/1.1/DTD/svg11.dtd">
<svg xmlns:xlink="http://www.w3.org/1999/xlink" width="138.55pt" height="98.291465pt" viewBox="0 0 138.55 98.291465" xmlns="http://www.w3.org/2000/svg" version="1.1">
 <metadata>
  <rdf:RDF xmlns:dc="http://purl.org/dc/elements/1.1/" xmlns:cc="http://creativecommons.org/ns#" xmlns:rdf="http://www.w3.org/1999/02/22-rdf-syntax-ns#">
   <cc:Work>
    <dc:type rdf:resource="http://purl.org/dc/dcmitype/StillImage"/>
    <dc:date>2026-10-08T08:20:35.402706</dc:date>
    <dc:format>image/svg+xml</dc:format>
    <dc:creator>
     <cc:Agent>
      <dc:title>Matplotlib v3.11.1, https://matplotlib.org/</dc:title>
     </cc:Agent>
    </dc:creator>
   </cc:Work>
  </rdf:RDF>
 </metadata>
 <defs>
  <style type="text/css">*{stroke-linejoin: round; stroke-linecap: butt}</style>
 </defs>
 <g id="figure_1">
  <g id="patch_1">
   <path d="M 0 98.291465 
L 138.55 98.291465 
L 138.55 0 
L 0 0 
L 0 98.291465 
z
" style="fill: none; opacity: 0"/>
  </g>
  <g id="axes_1">
   <g id="patch_2">
    <path d="M 3.19 84.6 
L 137.11 84.6 
L 137.11 1.44 
L 3.19 1.44 
L 3.19 84.6 
z
" style="fill: none; opacity: 0"/>
   </g>
   <g id="matplotlib.axis_1">
    <g id="xtick_1">
     <g id="line2d_1">
      <defs>
       <path id="m7b103034b7" d="M 0 0 
L 0 2.5 
" style="stroke: #000000; stroke-width: 0.6"/>
      </defs>
      <g>
       <use xlink:href="#m7b103034b7" x="3.19" y="84.6" style="stroke: #000000; stroke-width: 0.6"/>
      </g>
     </g>
     <g id="text_1">
      <text style="font-weight: 700; font-size: 7px; font-family: 'Times New Roman', 'Times', 'Liberation Serif', 'Nimbus Roman', 'Nimbus Roman No9 L', 'STIXGeneral', serif; text-anchor: middle" x="3.19" y="95.340723" transform="rotate(-0 3.19 95.340723)">0</text>
     </g>
    </g>
    <g id="xtick_2">
     <g id="line2d_2">
      <g>
       <use xlink:href="#m7b103034b7" x="36.686356" y="84.6" style="stroke: #000000; stroke-width: 0.6"/>
      </g>
     </g>
     <g id="text_2">
      <text style="font-weight: 700; font-size: 7px; font-family: 'Times New Roman', 'Times', 'Liberation Serif', 'Nimbus Roman', 'Nimbus Roman No9 L', 'STIXGeneral', serif; text-anchor: middle" x="36.686356" y="95.340723" transform="rotate(-0 36.686356 95.340723)">1</text>
     </g>
    </g>
    <g id="xtick_3">
     <g id="line2d_3">
      <g>
       <use xlink:href="#m7b103034b7" x="70.182711" y="84.6" style="stroke: #000000; stroke-width: 0.6"/>
      </g>
     </g>
     <g id="text_3">
      <text style="font-weight: 700; font-size: 7px; font-family: 'Times New Roman', 'Times', 'Liberation Serif', 'Nimbus Roman', 'Nimbus Roman No9 L', 'STIXGeneral', serif; text-anchor: middle" x="70.182711" y="95.340723" transform="rotate(-0 70.182711 95.340723)">2</text>
     </g>
    </g>
    <g id="xtick_4">
     <g id="line2d_4">
      <g>
       <use xlink:href="#m7b103034b7" x="103.679067" y="84.6" style="stroke: #000000; stroke-width: 0.6"/>
      </g>
     </g>
     <g id="text_4">
      <text style="font-weight: 700; font-size: 7px; font-family: 'Times New Roman', 'Times', 'Liberation Serif', 'Nimbus Roman', 'Nimbus Roman No9 L', 'STIXGeneral', serif; text-anchor: middle" x="103.679067" y="95.340723" transform="rotate(-0 103.679067 95.340723)">3</text>
     </g>
    </g>
   </g>
   <g id="matplotlib.axis_2"/>
   <g id="line2d_5">
    <path d="M 3.19 14.575874 
L 3.255423 14.471122 
L 3.320845 14.046389 
L 3.45169 14.76805 
L 3.517113 14.694215 
L 3.647958 14.51558 
L 3.778803 15.604682 
L 3.844226 15.451075 
L 3.975071 15.719271 
L 4.040493 15.251499 
L 4.105916 15.308381 
L 4.236761 15.409281 
L 4.433029 15.166977 
L 4.498451 15.398027 
L 4.563874 15.344313 
L 4.629297 15.420935 
L 4.694719 15.709875 
L 4.760142 15.601776 
L 4.825564 15.702085 
L 5.087255 16.783864 
L 5.152677 16.757319 
L 5.414367 13.534419 
L 5.47979 14.336462 
L 5.545213 13.394347 
L 5.806903 18.022297 
L 6.395706 20.206355 
L 6.657396 18.972517 
L 6.853664 19.830689 
L 6.984509 19.782791 
L 7.115354 19.296891 
L 7.311622 18.02899 
L 7.377044 17.634822 
L 7.76958 19.461896 
L 7.835002 19.407789 
L 7.965848 18.703756 
L 8.03127 19.012413 
L 8.096693 18.935999 
L 8.162115 19.351798 
L 8.227538 19.283361 
L 8.29296 18.79329 
L 8.358383 18.899457 
L 8.620073 20.610153 
L 8.685496 20.188585 
L 8.750918 20.130989 
L 8.816341 20.266536 
L 8.881764 19.723157 
L 8.947186 20.057375 
L 9.012609 19.897162 
L 9.208876 17.83308 
L 9.274299 18.291756 
L 9.535989 20.002991 
L 9.601412 19.139938 
L 9.666834 19.45582 
L 10.190215 15.902985 
L 10.32106 15.932511 
L 10.451905 15.779641 
L 10.517328 15.70465 
L 10.58275 14.556926 
L 10.648173 14.968294 
L 10.779018 17.041615 
L 10.909863 17.203599 
L 11.302399 18.939953 
L 11.367821 17.997962 
L 11.433244 18.45611 
L 11.498666 19.807931 
L 11.564089 19.087152 
L 11.629511 19.718684 
L 11.694934 19.382943 
L 11.760357 18.862305 
L 12.022047 21.480074 
L 12.152892 19.632126 
L 12.218315 20.5941 
L 12.34916 19.223018 
L 12.414582 20.003688 
L 12.480005 19.508197 
L 12.545427 19.69946 
L 12.61085 19.40252 
L 12.676273 20.145975 
L 12.937963 16.977126 
L 13.003385 16.785265 
L 13.068808 17.149016 
L 13.134231 18.223546 
L 13.199653 17.905081 
L 13.265076 17.326614 
L 13.395921 18.025429 
L 13.723034 16.982123 
L 13.788456 17.258814 
L 13.984724 17.695007 
L 14.050147 17.649717 
L 14.311837 16.59717 
L 14.573527 17.05025 
L 14.63895 16.859576 
L 14.90064 17.502626 
L 15.031485 17.041984 
L 15.293175 18.612856 
L 15.424021 18.498604 
L 15.489443 18.951134 
L 15.554866 18.751162 
L 15.620288 18.558533 
L 15.685711 18.910736 
L 15.816556 18.492956 
L 15.881979 18.519164 
L 15.947401 18.136743 
L 16.012824 18.240402 
L 16.078246 18.295739 
L 16.274514 16.832828 
L 16.470782 15.871655 
L 16.536204 15.926591 
L 16.601627 16.198666 
L 16.667049 15.428677 
L 16.732472 15.605648 
L 16.797894 16.320889 
L 16.863317 15.985974 
L 17.059585 16.606846 
L 17.125007 16.596711 
L 17.582965 18.474763 
L 17.648388 18.324022 
L 17.844656 19.190902 
L 17.910078 19.791638 
L 17.975501 19.772508 
L 18.040923 19.837684 
L 18.368036 18.989241 
L 18.433459 19.169931 
L 18.629726 18.188439 
L 18.695149 18.076401 
L 18.760572 17.618581 
L 18.891417 18.082376 
L 18.956839 17.963669 
L 19.283952 19.085313 
L 19.349375 19.184846 
L 19.414797 19.640482 
L 19.48022 19.285736 
L 19.938178 22.027718 
L 20.069023 21.840812 
L 20.134446 22.136328 
L 20.854094 14.757334 
L 20.919516 14.619574 
L 21.115784 13.062128 
L 21.312052 12.764406 
L 21.442897 13.001705 
L 21.573742 12.594945 
L 21.966277 15.552069 
L 22.0317 15.831052 
L 22.097123 15.55889 
L 22.29339 17.213887 
L 22.424235 17.037701 
L 22.489658 19.39225 
L 22.555081 19.211492 
L 22.685926 17.093334 
L 22.882193 17.920797 
L 22.947616 18.885541 
L 23.013039 18.527747 
L 23.209306 19.127747 
L 23.274729 19.128205 
L 23.340151 17.477257 
L 23.405574 17.596745 
L 23.470997 17.874031 
L 23.536419 17.382811 
L 23.863532 19.283182 
L 23.928955 19.236356 
L 23.994377 19.403454 
L 24.0598 19.920034 
L 24.125222 19.767279 
L 24.32149 18.706991 
L 24.386913 18.891063 
L 24.452335 18.79443 
L 24.517758 18.549949 
L 24.58318 18.943912 
L 24.648603 18.909301 
L 24.714025 18.121849 
L 24.779448 18.331982 
L 24.844871 18.883307 
L 24.910293 17.114333 
L 25.041138 20.202653 
L 25.106561 19.212208 
L 25.302829 17.820213 
L 25.499096 20.27768 
L 25.629941 19.414543 
L 25.695364 19.864359 
L 25.760787 19.663158 
L 25.826209 19.130683 
L 25.891632 19.705366 
L 26.022477 17.861932 
L 26.087899 18.193867 
L 26.218745 17.882955 
L 26.284167 18.200797 
L 26.415012 16.772147 
L 26.480435 16.911531 
L 26.545857 16.777373 
L 26.61128 16.935552 
L 26.807548 18.093293 
L 26.938393 17.639986 
L 27.003815 18.153905 
L 27.069238 18.126055 
L 27.13466 17.850073 
L 27.200083 18.328828 
L 27.265506 18.194264 
L 27.330928 18.08744 
L 27.396351 18.75459 
L 27.461773 18.479033 
L 27.527196 18.503089 
L 27.788886 19.380604 
L 27.854309 19.307382 
L 28.181422 22.524628 
L 28.246844 22.719763 
L 28.443112 24.352304 
L 28.508534 24.45173 
L 28.573957 24.398168 
L 28.63938 24.13204 
L 28.704802 24.692146 
L 28.90107 28.292379 
L 29.097338 30.407833 
L 29.16276 30.092063 
L 29.359028 20.062292 
L 29.42445 20.896593 
L 29.489873 19.608266 
L 29.555296 20.357079 
L 29.882408 18.114217 
L 29.947831 18.124123 
L 30.209521 16.592624 
L 30.471212 15.360575 
L 30.602057 15.646364 
L 30.667479 15.669724 
L 30.863747 16.093202 
L 31.060015 17.152569 
L 31.321705 17.701666 
L 31.387128 17.351523 
L 31.45255 17.722566 
L 31.71424 16.954995 
L 31.845085 17.144048 
L 31.975931 16.920455 
L 32.041353 16.924835 
L 32.172198 16.263992 
L 32.237621 16.250295 
L 32.303043 15.913318 
L 32.368466 16.127416 
L 32.761001 18.306252 
L 32.826424 18.218242 
L 32.957269 17.10007 
L 33.022692 17.221761 
L 33.088114 18.707012 
L 33.153537 18.672268 
L 33.218959 18.813227 
L 33.284382 16.961992 
L 33.349805 17.015098 
L 33.415227 16.945348 
L 33.48065 17.283524 
L 33.546072 17.08453 
L 33.611495 16.931952 
L 33.676917 17.138949 
L 34.461988 13.653134 
L 34.658256 10.841485 
L 34.919946 9.161707 
L 34.985369 9.364301 
L 35.312482 13.555162 
L 35.377904 16.950706 
L 35.443327 16.826105 
L 35.508749 17.235218 
L 35.574172 16.968855 
L 35.705017 16.604925 
L 35.901285 18.354175 
L 35.966707 18.867827 
L 36.097553 17.798353 
L 36.228398 18.373128 
L 36.424665 16.46794 
L 36.490088 16.563401 
L 36.555511 14.101068 
L 36.620933 16.035649 
L 36.686356 16.028078 
L 36.948046 15.116967 
L 37.078891 15.650777 
L 37.209736 13.649859 
L 37.275159 13.695612 
L 37.406004 13.499926 
L 37.602272 14.837366 
L 37.798539 17.815265 
L 37.929384 17.354441 
L 38.191075 19.341214 
L 38.32192 19.512991 
L 38.387342 19.355542 
L 38.452765 18.741778 
L 38.518188 19.216197 
L 38.58361 19.075072 
L 38.779878 17.685106 
L 38.8453 17.73535 
L 38.910723 17.928882 
L 39.106991 17.518183 
L 39.303258 16.382222 
L 39.434104 16.524853 
L 39.499526 16.749185 
L 39.695794 15.515658 
L 39.761216 15.203175 
L 39.826639 15.333927 
L 39.892062 15.183354 
L 40.088329 11.007248 
L 40.153752 8.891985 
L 40.219174 9.207998 
L 40.284597 9.137216 
L 40.35002 9.434834 
L 40.546287 14.286115 
L 40.8734 16.836518 
L 41.004245 17.074721 
L 41.069668 16.603959 
L 41.13509 17.02177 
L 41.200513 16.519493 
L 41.265936 16.59267 
L 41.527626 17.687053 
L 41.593048 17.231863 
L 41.658471 17.63811 
L 41.723894 17.479582 
L 41.789316 17.011267 
L 41.854739 17.229603 
L 41.920161 17.311018 
L 41.985584 17.138795 
L 42.116429 18.030959 
L 42.181851 17.805761 
L 42.247274 17.89053 
L 42.312697 17.853539 
L 42.378119 17.667064 
L 42.443542 17.965251 
L 42.508964 17.806526 
L 42.705232 18.573647 
L 42.9015 19.448697 
L 42.966922 19.369019 
L 43.032345 19.545216 
L 43.16319 19.144972 
L 43.228613 19.282296 
L 43.294035 19.16106 
L 43.359458 19.26404 
L 43.42488 19.266495 
L 43.751993 17.077212 
L 43.948261 16.614533 
L 44.079106 15.449346 
L 44.144529 15.535426 
L 44.209951 15.315311 
L 44.406219 16.059482 
L 44.537064 16.360231 
L 44.602487 16.262353 
L 44.733332 17.092968 
L 44.798754 16.954456 
L 45.060445 18.687363 
L 45.387557 17.088958 
L 45.649248 18.193807 
L 45.845515 16.891518 
L 46.107206 16.521209 
L 46.172628 16.908553 
L 46.303473 15.8131 
L 46.368896 15.874371 
L 46.434319 15.780121 
L 46.565164 16.71732 
L 46.696009 16.565065 
L 46.761431 16.72242 
L 46.957699 10.564602 
L 47.023122 10.01238 
L 47.219389 10.582227 
L 47.415657 19.660608 
L 47.48108 19.650199 
L 47.611925 19.255206 
L 47.677347 19.562322 
L 47.74277 19.061413 
L 47.808192 19.645023 
L 47.873615 19.533518 
L 47.939038 19.259334 
L 48.00446 19.760991 
L 48.069883 19.740396 
L 48.135305 19.584516 
L 48.200728 19.928257 
L 48.658686 17.057476 
L 48.854954 17.626031 
L 48.985799 17.899357 
L 49.051221 17.634976 
L 49.247489 18.173235 
L 49.705447 19.934421 
L 49.836292 19.480865 
L 50.097982 20.50999 
L 50.228828 19.769194 
L 50.29425 20.512862 
L 50.55594 17.818088 
L 50.752208 11.840419 
L 50.817631 10.803648 
L 50.883053 11.411699 
L 51.275589 17.185141 
L 51.341011 19.148129 
L 51.537279 11.669115 
L 51.602702 12.202924 
L 51.668124 11.123821 
L 51.733547 12.150427 
L 51.798969 11.821703 
L 51.864392 10.275275 
L 51.995237 27.495175 
L 52.06066 27.024242 
L 52.32235 5.22 
L 52.58404 25.416363 
L 52.649463 24.16315 
L 52.780308 25.553481 
L 52.84573 24.985519 
L 53.172843 13.245172 
L 53.238266 13.518056 
L 53.369111 10.852969 
L 53.434533 11.111957 
L 53.696224 10.545331 
L 53.761646 10.668453 
L 54.415872 18.867854 
L 54.546717 19.658672 
L 54.742985 17.565184 
L 54.808407 17.291685 
L 54.87383 17.377866 
L 54.939253 17.286165 
L 55.13552 18.539372 
L 55.462633 17.547991 
L 55.593478 17.258356 
L 55.658901 17.741397 
L 55.724323 17.632142 
L 55.855169 17.920106 
L 55.920591 17.40562 
L 55.986014 17.610966 
L 56.051436 17.582394 
L 56.116859 17.364878 
L 56.247704 17.857882 
L 56.313127 17.140519 
L 56.378549 17.306551 
L 57.032775 15.44055 
L 57.098197 15.347074 
L 57.229043 15.604818 
L 57.294465 15.550306 
L 57.490733 16.591837 
L 57.556155 16.529549 
L 57.621578 16.683061 
L 57.687 16.652638 
L 57.752423 16.374873 
L 57.817846 16.405077 
L 57.948691 16.745702 
L 58.014113 16.546124 
L 58.079536 16.830995 
L 58.210381 16.36934 
L 58.275804 16.472682 
L 58.341226 16.345689 
L 58.602916 15.140503 
L 58.799184 14.970916 
L 58.864607 15.13938 
L 59.060874 13.914313 
L 59.19172 13.599421 
L 59.45341 13.92584 
L 59.7151 11.995481 
L 59.911368 13.65428 
L 59.97679 13.785922 
L 60.107636 13.019374 
L 60.696439 17.121819 
L 60.761861 16.588729 
L 60.827284 16.864466 
L 61.023552 17.720784 
L 61.088974 17.441562 
L 61.350664 16.252272 
L 61.48151 16.528153 
L 61.546932 16.209154 
L 61.612355 16.601773 
L 61.7432 15.596712 
L 61.808622 15.924405 
L 61.874045 15.809421 
L 61.939468 15.827848 
L 62.00489 16.330979 
L 62.070313 15.754173 
L 62.135735 15.978966 
L 62.201158 15.793961 
L 62.332003 17.719111 
L 62.397426 16.972666 
L 62.528271 17.673781 
L 62.659116 17.424453 
L 62.724538 17.627321 
L 62.789961 17.588182 
L 63.378764 15.199806 
L 63.509609 15.35023 
L 63.575032 15.191439 
L 63.902145 16.320331 
L 63.967567 16.392374 
L 64.098412 16.937106 
L 64.229257 16.946124 
L 64.360103 14.835839 
L 64.490948 17.252648 
L 64.55637 16.541056 
L 64.621793 16.409742 
L 64.687215 17.631062 
L 64.752638 16.758486 
L 64.818061 13.736585 
L 64.883483 15.03671 
L 64.948906 15.657505 
L 65.014328 15.581601 
L 65.079751 15.408621 
L 65.145173 15.7545 
L 65.210596 15.419858 
L 65.276019 15.66242 
L 65.341441 15.925949 
L 65.406864 15.528647 
L 65.537709 16.933342 
L 65.603131 16.768109 
L 65.733977 16.908775 
L 65.799399 16.87631 
L 65.930244 17.16884 
L 66.388202 15.172221 
L 66.58447 15.983502 
L 66.780738 17.633039 
L 67.042428 18.050176 
L 67.107851 17.062129 
L 67.173273 17.419297 
L 67.304118 17.040021 
L 67.369541 17.248623 
L 67.500386 16.873542 
L 67.565809 17.14339 
L 67.631231 17.045967 
L 67.762076 17.560622 
L 67.892921 16.94582 
L 67.958344 17.093565 
L 68.023766 16.942659 
L 68.089189 17.075301 
L 68.154612 17.767369 
L 68.285457 16.971605 
L 68.350879 17.380775 
L 68.61257 15.75438 
L 68.677992 16.047086 
L 68.743415 15.89562 
L 68.808837 15.675112 
L 68.87426 16.343458 
L 68.939682 16.171587 
L 69.005105 16.223808 
L 69.070528 16.645312 
L 69.201373 16.143291 
L 69.266795 16.28625 
L 69.332218 15.858922 
L 69.39764 15.893623 
L 69.790176 16.550252 
L 69.855598 16.349271 
L 69.921021 16.434273 
L 69.986444 16.734475 
L 70.117289 16.261295 
L 70.378979 17.698063 
L 70.444402 17.568758 
L 70.575247 18.279819 
L 70.640669 18.081138 
L 70.771514 18.528501 
L 70.836937 18.299274 
L 71.098627 17.176937 
L 71.16405 17.291506 
L 71.229472 17.240918 
L 71.294895 17.919319 
L 71.360318 17.81687 
L 71.42574 17.573418 
L 71.622008 18.261815 
L 71.883698 19.446436 
L 71.949121 19.262435 
L 72.079966 19.578532 
L 72.276234 18.794251 
L 72.341656 18.232911 
L 72.407079 18.509206 
L 72.472501 18.140637 
L 72.603346 18.809566 
L 72.734191 18.182698 
L 72.799614 18.352246 
L 72.930459 17.103037 
L 72.995882 17.19238 
L 73.257572 16.574198 
L 73.388417 16.977936 
L 73.45384 16.915865 
L 73.584685 17.684519 
L 73.650107 17.67007 
L 73.911798 18.494418 
L 74.042643 18.0204 
L 74.108065 18.150348 
L 74.173488 17.94386 
L 74.238911 18.063104 
L 74.304333 18.612363 
L 74.369756 18.311549 
L 74.435178 18.398167 
L 74.500601 18.241335 
L 74.696869 17.238521 
L 74.893136 16.834552 
L 75.089404 15.987228 
L 75.154827 15.810008 
L 75.285672 15.969268 
L 75.481939 15.563968 
L 75.678207 15.460348 
L 76.00532 16.819523 
L 76.070743 16.767426 
L 76.136165 17.003417 
L 76.26701 16.432176 
L 76.463278 16.656635 
L 76.528701 17.068772 
L 76.594123 16.868165 
L 76.659546 16.931015 
L 76.921236 18.100092 
L 76.986659 17.916917 
L 77.117504 18.250764 
L 77.313771 17.84582 
L 77.444617 17.560704 
L 77.575462 16.916027 
L 77.640884 17.22728 
L 77.706307 16.876019 
L 77.771729 16.967074 
L 77.967997 17.541104 
L 78.098842 17.032673 
L 78.360532 17.844543 
L 78.491378 17.390376 
L 78.5568 17.775079 
L 78.622223 17.585886 
L 78.753068 17.768312 
L 78.883913 17.061462 
L 78.949336 17.262622 
L 79.145603 16.253827 
L 79.407294 14.858063 
L 79.472716 15.295667 
L 79.538139 15.153885 
L 79.603561 14.975659 
L 79.668984 15.340947 
L 79.734406 15.11052 
L 79.799829 15.064896 
L 79.996097 12.195087 
L 80.061519 13.42179 
L 80.126942 12.724231 
L 80.257787 15.361646 
L 80.454055 19.687698 
L 80.519477 19.679195 
L 80.5849 19.952287 
L 80.715745 19.660812 
L 80.781168 19.748519 
L 81.042858 18.853767 
L 81.173703 20.39292 
L 81.239126 20.329834 
L 81.369971 20.043249 
L 81.631661 18.804852 
L 81.697084 18.815626 
L 81.762506 18.644776 
L 81.827929 17.514177 
L 81.893351 17.821525 
L 82.089619 20.094682 
L 82.155042 20.12853 
L 82.351309 19.597177 
L 82.416732 19.451177 
L 82.482154 19.69055 
L 82.678422 19.221278 
L 82.940112 16.799437 
L 83.070957 17.350712 
L 83.13638 16.895693 
L 83.39807 12.641371 
L 83.594338 11.851112 
L 83.986873 18.416547 
L 84.052296 18.216326 
L 84.313986 18.914317 
L 84.379409 18.91494 
L 84.444831 18.292831 
L 84.641099 15.666723 
L 84.706522 16.343886 
L 84.771944 14.882685 
L 84.837367 14.910597 
L 85.033635 15.025436 
L 85.16448 18.293052 
L 85.295325 18.69637 
L 85.360747 18.492842 
L 85.557015 19.501498 
L 85.622438 19.513954 
L 85.884128 18.093026 
L 85.949551 18.132909 
L 86.080396 18.7621 
L 86.211241 19.988421 
L 86.276663 19.345656 
L 86.342086 19.520719 
L 86.538354 19.00358 
L 86.669199 18.856802 
L 86.734621 19.139277 
L 86.800044 19.08918 
L 86.865467 19.179291 
L 86.930889 19.537422 
L 86.996312 19.188816 
L 87.061734 19.310876 
L 87.127157 19.202522 
L 87.258002 18.399298 
L 87.585115 19.401274 
L 87.650537 19.999223 
L 87.71596 19.674125 
L 87.781383 19.688598 
L 87.97765 19.396732 
L 88.370186 20.184938 
L 88.435608 20.23787 
L 88.501031 19.632334 
L 88.566453 19.884889 
L 88.631876 19.920284 
L 88.958989 21.454773 
L 89.024411 21.45359 
L 89.089834 21.143728 
L 89.155256 21.406216 
L 89.482369 19.452985 
L 89.678637 20.083094 
L 90.00575 18.018106 
L 90.071172 18.060257 
L 90.136595 18.086687 
L 90.26744 18.591709 
L 90.332863 18.139936 
L 90.52913 14.379522 
L 90.659976 16.227086 
L 90.725398 15.783393 
L 90.790821 19.407978 
L 90.856243 19.337616 
L 90.921666 19.357468 
L 91.183356 20.796582 
L 91.510469 19.468466 
L 91.575892 19.665459 
L 91.641314 19.496694 
L 91.837582 20.216496 
L 91.903004 20.295162 
L 91.968427 20.218975 
L 92.099272 19.74464 
L 92.29554 20.142737 
L 92.622653 18.805651 
L 92.688075 18.983379 
L 92.81892 18.246483 
L 92.884343 18.140424 
L 93.146033 16.355741 
L 93.211456 16.505107 
L 93.473146 18.154126 
L 93.538569 15.753906 
L 93.603991 16.970716 
L 93.669414 18.284571 
L 93.734836 16.700526 
L 93.865681 19.333906 
L 93.931104 18.275061 
L 93.996527 18.734771 
L 94.061949 18.88044 
L 94.127372 18.761095 
L 94.192794 18.892433 
L 94.258217 18.672934 
L 94.323639 18.746479 
L 94.389062 19.188787 
L 94.454485 19.042527 
L 94.519907 19.161701 
L 94.84702 18.16276 
L 94.912443 18.555092 
L 94.977865 18.455632 
L 95.174133 17.561368 
L 95.239555 17.672051 
L 95.435823 18.384963 
L 95.632091 18.042418 
L 95.697513 16.283148 
L 95.762936 16.696422 
L 95.828359 16.941117 
L 96.155471 13.483965 
L 96.220894 14.221657 
L 96.286317 15.480571 
L 96.351739 14.543675 
L 96.809697 19.550592 
L 96.87512 19.157717 
L 96.940542 19.347908 
L 97.005965 19.560877 
L 97.071387 19.347074 
L 97.13681 20.124518 
L 97.202233 20.04382 
L 97.267655 19.833755 
L 97.333078 19.997385 
L 97.3985 19.706034 
L 97.463923 19.903164 
L 97.529345 19.971805 
L 97.921881 12.823587 
L 97.987303 11.650322 
L 98.052726 12.033668 
L 98.248994 14.433881 
L 98.314416 18.427497 
L 98.379839 18.24804 
L 98.641529 18.965127 
L 98.706952 18.75152 
L 98.772374 18.844864 
L 98.837797 18.818747 
L 98.968642 17.958552 
L 99.034064 17.884304 
L 99.099487 17.617738 
L 99.230332 18.466066 
L 99.295755 17.951289 
L 99.361177 18.407766 
L 99.492022 16.017573 
L 99.68829 13.659159 
L 99.753713 13.526034 
L 99.819135 14.415262 
L 99.884558 13.883202 
L 99.94998 14.623455 
L 100.015403 14.448709 
L 100.080826 13.69098 
L 100.146248 13.935312 
L 100.277093 13.466917 
L 100.342516 15.68538 
L 100.407938 14.911832 
L 100.473361 14.765052 
L 100.865896 18.840774 
L 100.931319 18.444786 
L 101.258432 20.299534 
L 101.323854 20.103541 
L 101.520122 20.56771 
L 101.585545 20.698544 
L 101.781812 20.034026 
L 102.043503 18.633376 
L 102.23977 18.845268 
L 102.305193 18.783266 
L 102.370616 18.970969 
L 102.763151 15.601614 
L 102.828574 14.102581 
L 102.893996 14.451105 
L 102.959419 14.76827 
L 103.024841 17.07974 
L 103.090264 16.706998 
L 103.155686 16.398641 
L 103.221109 16.680005 
L 103.286532 17.651662 
L 103.417377 16.747159 
L 103.482799 16.883395 
L 103.613644 16.095537 
L 103.679067 16.610637 
L 103.744489 16.316594 
L 104.398715 12.043801 
L 104.791251 15.932618 
L 104.922096 18.476378 
L 105.052941 18.309492 
L 105.183786 18.644482 
L 105.249209 18.392356 
L 105.576321 19.757957 
L 105.641744 19.190768 
L 105.707167 19.611538 
L 105.838012 18.277876 
L 105.903434 18.789858 
L 105.968857 18.493272 
L 106.165125 17.464312 
L 106.230547 17.700695 
L 106.361392 17.709364 
L 106.426815 17.635322 
L 106.55766 16.86148 
L 106.753928 14.878407 
L 106.81935 15.576668 
L 106.884773 15.320949 
L 107.015618 14.734791 
L 107.081041 14.759447 
L 107.146463 14.683358 
L 107.211886 14.867484 
L 107.342731 13.892154 
L 107.408153 14.272597 
L 107.538999 13.478437 
L 107.669844 14.368042 
L 107.735266 13.81537 
L 107.800689 14.120269 
L 108.062379 16.931884 
L 108.193224 14.846362 
L 108.258647 14.958302 
L 108.324069 15.280965 
L 108.58576 13.189184 
L 108.651182 13.338083 
L 108.716605 14.078801 
L 108.782027 13.87116 
L 108.912872 13.431537 
L 109.10914 13.915387 
L 109.174563 13.704612 
L 109.436253 15.26376 
L 109.501676 15.321361 
L 109.567098 15.189461 
L 109.763366 16.104178 
L 110.025056 17.388539 
L 110.090479 17.093437 
L 110.155901 17.232792 
L 110.221324 17.238627 
L 110.286746 16.829732 
L 110.352169 16.972424 
L 110.483014 16.90732 
L 110.679282 16.651007 
L 110.744704 16.665474 
L 110.810127 16.531947 
L 110.87555 16.63978 
L 110.940972 16.64539 
L 111.071817 16.463586 
L 111.464353 17.783046 
L 111.529775 17.819256 
L 111.726043 18.872074 
L 111.856888 18.616388 
L 111.922311 19.11959 
L 112.118578 17.062013 
L 112.184001 17.103183 
L 112.314846 18.158302 
L 112.445691 16.456879 
L 112.511114 16.822229 
L 112.576536 16.728376 
L 112.707382 15.434303 
L 112.903649 18.387153 
L 112.969072 17.048939 
L 113.034494 17.245862 
L 113.099917 16.883155 
L 113.361607 18.151065 
L 113.42703 17.755586 
L 113.557875 18.157546 
L 113.754143 17.097656 
L 113.819565 16.571253 
L 113.884988 16.85065 
L 113.95041 16.987629 
L 114.015833 16.933034 
L 114.081255 16.75012 
L 114.997171 21.221683 
L 115.062594 21.053497 
L 115.258862 21.686224 
L 115.847665 18.02637 
L 115.913087 17.376751 
L 115.97851 17.523243 
L 116.043933 17.679752 
L 116.2402 18.572456 
L 116.371045 18.834572 
L 116.436468 18.777159 
L 116.501891 19.035992 
L 116.567313 19.000872 
L 116.698158 18.160196 
L 116.829003 17.197902 
L 117.025271 19.186558 
L 117.090694 19.086606 
L 117.352384 15.936682 
L 117.417807 16.192268 
L 117.744919 11.54659 
L 117.810342 11.582661 
L 118.00661 14.967046 
L 118.137455 13.954686 
L 118.2683 17.477474 
L 118.333723 17.590346 
L 118.595413 19.496565 
L 118.791681 21.112933 
L 118.987948 20.416703 
L 119.053371 20.648005 
L 119.118793 20.41798 
L 119.184216 20.47697 
L 119.315061 20.728579 
L 119.642174 21.6884 
L 119.903864 19.913766 
L 120.165554 18.800573 
L 120.230977 18.698794 
L 120.2964 18.742585 
L 120.427245 18.954111 
L 120.492667 18.822669 
L 120.623512 19.174564 
L 120.81978 18.87068 
L 120.885203 18.740359 
L 121.016048 18.941449 
L 121.08147 18.647325 
L 121.146893 18.783784 
L 121.212316 18.642914 
L 121.343161 19.256764 
L 121.539428 20.073032 
L 121.604851 19.891788 
L 121.735696 20.305698 
L 122.193654 18.639753 
L 122.259077 18.795955 
L 122.520767 17.329162 
L 122.58619 16.460048 
L 122.651612 17.474859 
L 122.717035 17.117555 
L 122.782457 16.501934 
L 122.84788 16.690434 
L 122.913302 17.464147 
L 122.978725 14.47172 
L 123.044148 17.95655 
L 123.10957 17.197027 
L 123.174993 17.075476 
L 123.240415 19.433587 
L 123.37126 15.159303 
L 123.502106 20.746477 
L 123.567528 21.032665 
L 123.632951 22.35036 
L 123.763796 20.776162 
L 124.025486 19.197649 
L 124.221754 18.119858 
L 124.352599 19.014334 
L 124.418021 19.001459 
L 124.483444 19.873038 
L 124.548867 19.743037 
L 124.679712 18.671554 
L 125.072247 14.993444 
L 125.13767 15.20689 
L 125.203092 14.949546 
L 125.268515 15.243607 
L 125.333937 14.485321 
L 125.39936 14.495161 
L 125.464783 14.38672 
L 125.726473 12.508101 
L 125.791895 12.7233 
L 125.922741 12.30056 
L 125.988163 12.404321 
L 126.053586 12.247827 
L 126.576966 14.337511 
L 127.034924 12.981569 
L 127.165769 13.284631 
L 127.231192 12.831788 
L 127.362037 14.159316 
L 127.42746 13.953013 
L 127.558305 14.412834 
L 127.623727 14.167657 
L 127.819995 15.841351 
L 128.016263 15.356915 
L 128.277953 14.309689 
L 128.343376 14.986834 
L 128.474221 14.439044 
L 128.735911 17.138041 
L 128.801334 16.065278 
L 128.866756 16.560707 
L 129.063024 14.954724 
L 129.390137 17.668791 
L 129.586404 18.877062 
L 129.913517 19.400459 
L 130.567743 17.204258 
L 130.633166 17.584626 
L 130.894856 15.814013 
L 130.960278 15.722064 
L 131.025701 15.782027 
L 131.091124 15.247609 
L 131.156546 15.466882 
L 131.221969 15.145249 
L 131.352814 13.441354 
L 131.418236 13.535307 
L 131.483659 13.171604 
L 131.549082 13.246846 
L 131.614504 13.393562 
L 131.679927 12.518108 
L 131.745349 12.54336 
L 131.810772 12.767263 
L 131.876194 12.48782 
L 131.941617 12.737991 
L 132.334152 10.779311 
L 132.399575 10.847215 
L 132.464998 10.758671 
L 132.53042 11.557406 
L 132.595843 11.528536 
L 132.661265 11.768368 
L 132.857533 13.331697 
L 133.053801 19.896135 
L 133.119223 19.88679 
L 133.315491 20.969201 
L 133.380914 20.936212 
L 133.446336 21.233472 
L 133.511759 20.971948 
L 133.577181 21.407746 
L 133.642604 21.176586 
L 133.708026 20.947812 
L 133.773449 21.182643 
L 134.231407 19.703077 
L 134.29683 19.552439 
L 134.623942 16.752823 
L 134.689365 16.923774 
L 134.754787 16.883374 
L 135.016478 15.639316 
L 135.0819 16.282047 
L 135.278168 14.906565 
L 135.343591 14.85998 
L 135.409013 14.101531 
L 135.539858 15.147529 
L 135.605281 15.017404 
L 135.670703 14.973553 
L 135.932394 15.574198 
L 135.997816 15.610631 
L 136.194084 16.431244 
L 136.259507 16.445248 
L 136.324929 16.609069 
L 136.586619 15.00284 
L 136.652042 16.64268 
L 136.717465 15.589901 
L 136.84831 17.672828 
L 136.913732 17.39604 
L 136.979155 17.254617 
L 137.044577 16.477774 
L 137.11 17.735547 
L 137.11 17.735547 
" clip-path="url(#p913fb38f31)" style="fill: none; stroke: #5e3c99; stroke-width: 0.8; stroke-linecap: square"/>
   </g>
   <g id="line2d_6">
    <path d="M 3.19 45.326678 
L 3.255423 44.988244 
L 3.386268 45.561453 
L 3.517113 44.195265 
L 3.582535 44.507872 
L 3.647958 44.808431 
L 3.713381 43.413087 
L 3.778803 43.700188 
L 3.844226 43.674354 
L 3.909648 43.3424 
L 3.975071 43.976847 
L 4.040493 43.695338 
L 4.105916 43.645282 
L 4.367606 45.088328 
L 4.498451 44.418291 
L 4.563874 44.695429 
L 4.629297 43.45575 
L 4.694719 43.748706 
L 4.760142 43.738342 
L 4.825564 43.224104 
L 4.890987 43.720597 
L 4.956409 43.521489 
L 5.2181 41.73072 
L 5.283522 41.969204 
L 5.610635 40.168582 
L 5.676058 40.798512 
L 5.74148 40.183857 
L 5.872325 41.404947 
L 6.00317 40.798393 
L 6.068593 40.744399 
L 6.134016 40.334618 
L 6.199438 41.275887 
L 6.264861 40.765536 
L 6.330283 40.346793 
L 6.395706 40.922088 
L 6.526551 40.283033 
L 6.788241 41.281555 
L 6.919086 40.577343 
L 7.115354 41.679436 
L 7.180777 42.001213 
L 7.246199 41.356712 
L 7.311622 41.620216 
L 7.442467 40.919151 
L 7.50789 41.098349 
L 7.573312 41.085515 
L 7.76958 39.729776 
L 7.835002 39.512513 
L 8.03127 40.756183 
L 8.096693 40.985992 
L 8.162115 40.824659 
L 8.227538 40.669065 
L 8.29296 41.005674 
L 8.358383 40.528154 
L 8.423806 40.677706 
L 8.489228 41.013088 
L 8.554651 40.044456 
L 8.620073 40.392234 
L 8.685496 40.65888 
L 8.750918 40.242574 
L 8.881764 41.453952 
L 8.947186 41.215836 
L 9.078031 41.698423 
L 9.143454 41.548073 
L 9.208876 42.570575 
L 9.274299 42.375626 
L 9.339722 41.991124 
L 9.405144 42.30197 
L 9.470567 40.706442 
L 9.535989 40.776592 
L 9.666834 40.16371 
L 9.79768 40.964587 
L 9.863102 40.36242 
L 9.928525 40.956521 
L 9.993947 40.719333 
L 10.05937 40.089889 
L 10.124792 41.351425 
L 10.190215 41.015682 
L 10.255638 40.814195 
L 10.32106 41.521796 
L 10.386483 40.972826 
L 10.648173 42.107205 
L 10.713596 41.962806 
L 10.779018 41.40835 
L 10.844441 41.644363 
L 10.975286 40.920151 
L 11.040708 41.588879 
L 11.106131 41.400395 
L 11.302399 40.218649 
L 11.367821 40.092142 
L 11.498666 41.754863 
L 11.564089 41.637278 
L 11.629511 42.146292 
L 11.694934 41.764577 
L 11.760357 41.976102 
L 11.825779 42.628773 
L 11.956624 41.728519 
L 12.022047 41.965869 
L 12.087469 40.922213 
L 12.152892 41.514385 
L 12.218315 41.439779 
L 12.283737 40.813427 
L 12.34916 41.167623 
L 12.414582 41.463354 
L 12.61085 38.699781 
L 12.807118 37.632436 
L 13.134231 40.610122 
L 13.265076 39.377359 
L 13.395921 41.001905 
L 13.461343 40.455852 
L 13.526766 40.884494 
L 13.723034 38.853931 
L 13.919301 36.97778 
L 14.050147 36.763984 
L 14.311837 34.836037 
L 14.377259 35.351131 
L 14.90064 31.235133 
L 15.031485 32.189248 
L 15.096908 32.891806 
L 15.16233 32.187879 
L 15.227753 32.483428 
L 15.293175 32.785073 
L 15.358598 32.737438 
L 15.424021 32.383873 
L 15.554866 33.800747 
L 15.620288 33.669333 
L 15.751133 34.641425 
L 15.816556 34.119943 
L 15.947401 35.41721 
L 16.209091 34.296387 
L 16.274514 34.732372 
L 16.339936 34.499789 
L 16.536204 33.912427 
L 16.667049 34.381496 
L 16.732472 34.062907 
L 16.797894 34.543744 
L 16.863317 34.200922 
L 16.92874 34.126588 
L 16.994162 34.646125 
L 17.059585 34.441412 
L 17.125007 34.039418 
L 17.19043 34.792763 
L 17.255852 34.513964 
L 17.321275 34.458027 
L 17.386698 35.066713 
L 17.517543 33.773108 
L 17.648388 34.469121 
L 17.71381 34.14562 
L 17.779233 34.516534 
L 17.910078 33.935503 
L 17.975501 34.688647 
L 18.040923 34.273555 
L 18.171768 34.72886 
L 18.237191 33.823627 
L 18.302614 34.06264 
L 18.629726 32.234191 
L 18.695149 32.723612 
L 18.760572 31.640608 
L 18.825994 31.82145 
L 18.891417 31.872609 
L 18.956839 31.231753 
L 19.022262 31.325513 
L 19.087684 31.358259 
L 19.283952 30.214721 
L 19.349375 29.854454 
L 19.414797 30.036679 
L 19.545642 29.268488 
L 19.611065 29.763777 
L 19.74191 29.292941 
L 19.938178 30.454438 
L 20.0036 30.988767 
L 20.069023 30.865092 
L 20.134446 30.811175 
L 20.330713 34.265924 
L 20.396136 34.850867 
L 20.461558 34.435094 
L 20.526981 35.071861 
L 20.592404 34.901518 
L 20.657826 34.527191 
L 20.723249 35.190713 
L 20.788671 34.899881 
L 20.854094 34.522567 
L 20.919516 34.943643 
L 20.984939 34.140757 
L 21.050362 34.280564 
L 21.115784 34.447529 
L 21.377474 33.109009 
L 21.442897 33.137644 
L 21.77001 31.676128 
L 21.835432 32.146837 
L 21.966277 31.299438 
L 22.0317 31.947453 
L 22.097123 31.299462 
L 22.162545 31.732175 
L 22.29339 31.445722 
L 22.358813 31.415982 
L 22.555081 32.964553 
L 22.620503 33.155675 
L 22.685926 33.997329 
L 22.751348 33.364813 
L 22.816771 33.736591 
L 22.882193 33.54102 
L 22.947616 33.82157 
L 23.078461 32.950913 
L 23.143884 33.903446 
L 23.274729 32.695757 
L 23.340151 32.849594 
L 23.470997 32.380163 
L 23.536419 33.152302 
L 23.601842 31.886935 
L 23.667264 32.13833 
L 23.732687 32.416451 
L 23.798109 31.774846 
L 23.863532 32.455188 
L 23.928955 32.333408 
L 23.994377 32.34329 
L 24.125222 33.144662 
L 24.190645 33.055108 
L 24.256067 33.981742 
L 24.32149 33.963621 
L 24.517758 32.51974 
L 24.58318 32.479458 
L 24.648603 33.31082 
L 24.714025 32.642816 
L 24.779448 33.077406 
L 24.844871 33.340808 
L 24.910293 32.56285 
L 24.975716 32.943349 
L 25.041138 33.387715 
L 25.106561 32.844674 
L 25.237406 33.579728 
L 25.302829 33.073337 
L 25.368251 33.628639 
L 25.433674 33.013334 
L 25.564519 34.691146 
L 25.629941 34.551193 
L 25.760787 34.891401 
L 25.826209 34.346673 
L 25.891632 34.558105 
L 26.022477 34.45942 
L 26.153322 35.055438 
L 26.218745 34.69814 
L 26.34959 35.580794 
L 26.415012 35.637591 
L 26.480435 36.700732 
L 26.545857 36.104441 
L 26.61128 36.200065 
L 26.807548 35.610646 
L 26.87297 35.842693 
L 26.938393 35.822107 
L 27.003815 35.620256 
L 27.069238 36.192624 
L 27.13466 36.053992 
L 27.200083 35.98556 
L 27.396351 37.278382 
L 27.461773 37.384493 
L 27.527196 36.221209 
L 27.592618 36.383367 
L 27.723464 35.200768 
L 27.919731 36.199687 
L 28.115999 36.251066 
L 28.377689 39.308168 
L 28.443112 39.234835 
L 28.770225 43.782657 
L 28.966492 43.724304 
L 29.228183 41.011653 
L 29.293605 41.600904 
L 29.489873 40.42868 
L 29.555296 40.126797 
L 29.816986 41.019032 
L 30.078676 42.971154 
L 30.144099 43.048111 
L 30.209521 43.398053 
L 30.340366 42.98035 
L 30.405789 43.520686 
L 30.471212 43.497126 
L 30.602057 43.911232 
L 30.732902 43.025603 
L 30.798324 43.6115 
L 30.863747 43.169214 
L 30.994592 43.924839 
L 31.19086 43.086078 
L 31.256282 42.937548 
L 31.910508 46.95622 
L 31.975931 46.130191 
L 32.041353 46.13839 
L 32.106776 46.240851 
L 32.172198 45.986863 
L 32.303043 46.728487 
L 32.368466 46.290683 
L 32.433889 46.779146 
L 32.499311 46.673301 
L 32.564734 46.35022 
L 32.630156 46.926387 
L 32.695579 46.661192 
L 32.761001 46.535964 
L 32.826424 46.772833 
L 32.891847 46.20481 
L 33.088114 47.940765 
L 33.284382 45.881723 
L 33.349805 46.329742 
L 33.415227 46.157018 
L 33.48065 45.550909 
L 33.546072 45.841415 
L 33.611495 45.946564 
L 33.676917 44.9784 
L 33.74234 45.683333 
L 33.807763 45.339204 
L 33.873185 44.835367 
L 33.938608 44.900513 
L 34.00403 44.839424 
L 34.069453 44.422611 
L 34.134875 44.775127 
L 34.200298 44.206107 
L 34.265721 44.344056 
L 34.461988 45.016647 
L 34.723679 45.507814 
L 34.789101 45.072851 
L 34.854524 45.70983 
L 34.919946 45.59478 
L 35.116214 44.454948 
L 35.181637 44.168708 
L 35.247059 44.817136 
L 35.312482 43.903234 
L 35.443327 45.230466 
L 35.508749 45.13218 
L 35.835862 48.347671 
L 36.097553 46.368677 
L 36.162975 46.541207 
L 36.228398 47.046434 
L 36.29382 46.118203 
L 36.359243 46.637231 
L 36.424665 46.503691 
L 36.490088 46.586132 
L 36.555511 46.659041 
L 36.620933 46.504477 
L 36.751778 47.138196 
L 36.817201 46.76087 
L 36.882623 46.93174 
L 36.948046 47.080057 
L 37.209736 45.752384 
L 37.275159 45.702714 
L 37.406004 44.39573 
L 37.471426 44.845206 
L 37.536849 44.538877 
L 37.602272 44.383193 
L 37.667694 45.107415 
L 37.733117 44.834513 
L 37.929384 45.87895 
L 38.06023 46.973704 
L 38.191075 46.318172 
L 38.256497 46.318756 
L 38.32192 45.62581 
L 38.387342 46.494836 
L 38.452765 46.243895 
L 38.518188 45.594009 
L 38.58361 46.127319 
L 38.714455 45.256262 
L 38.779878 45.584374 
L 38.910723 44.794061 
L 38.976146 45.158643 
L 39.106991 44.450078 
L 39.172413 44.97829 
L 39.237836 44.688779 
L 39.303258 44.721376 
L 39.368681 45.130581 
L 39.434104 43.943523 
L 39.499526 43.983161 
L 39.761216 43.147215 
L 39.957484 41.238797 
L 40.022907 41.248307 
L 40.153752 41.027833 
L 40.284597 41.804332 
L 40.415442 41.662687 
L 40.480865 41.805083 
L 40.546287 41.483573 
L 40.677132 41.898488 
L 40.742555 41.543963 
L 40.807978 41.67809 
L 40.8734 41.851765 
L 40.938823 41.539262 
L 41.069668 42.245303 
L 41.13509 42.096842 
L 41.200513 42.56119 
L 41.331358 41.421795 
L 41.396781 41.596634 
L 41.527626 40.689485 
L 41.593048 41.079422 
L 41.658471 40.729991 
L 41.789316 41.437357 
L 41.854739 41.124583 
L 41.985584 41.6771 
L 42.051006 41.072961 
L 42.116429 41.87235 
L 42.181851 41.590221 
L 42.247274 41.264687 
L 42.312697 42.515371 
L 42.378119 42.217434 
L 42.443542 42.414575 
L 42.508964 42.97732 
L 42.639809 41.759068 
L 42.705232 41.702352 
L 42.836077 41.12521 
L 42.9015 41.353471 
L 42.966922 40.501174 
L 43.032345 40.824648 
L 43.097767 40.960699 
L 43.16319 40.515181 
L 43.228613 41.141219 
L 43.294035 41.009339 
L 43.359458 40.528112 
L 43.42488 41.107751 
L 43.555725 40.115283 
L 43.621148 41.036149 
L 43.686571 40.69749 
L 43.817416 41.318993 
L 43.882838 40.980651 
L 44.209951 42.999162 
L 44.275374 42.600047 
L 44.406219 43.091785 
L 44.471641 42.582504 
L 44.537064 43.964358 
L 44.602487 43.90083 
L 44.667909 43.642643 
L 44.733332 44.349806 
L 44.864177 42.976234 
L 44.929599 43.194016 
L 45.060445 42.080939 
L 45.125867 42.591624 
L 45.19129 41.850064 
L 45.256712 42.121647 
L 45.322135 42.418234 
L 45.387557 42.138275 
L 45.518403 42.592851 
L 45.71467 41.358291 
L 45.780093 41.182556 
L 45.845515 41.674726 
L 45.910938 41.455188 
L 46.041783 42.235953 
L 46.107206 42.072457 
L 46.172628 41.725836 
L 46.238051 42.544676 
L 46.303473 41.927762 
L 46.368896 41.985574 
L 46.434319 42.271074 
L 46.630586 40.271753 
L 46.696009 39.718676 
L 46.826854 40.745329 
L 46.892277 40.648017 
L 46.957699 41.347606 
L 47.023122 41.284187 
L 47.088544 41.142171 
L 47.153967 42.474962 
L 47.284812 40.851889 
L 47.350234 40.911318 
L 47.415657 40.91505 
L 47.74277 45.099453 
L 47.808192 44.676508 
L 47.873615 44.952051 
L 48.200728 43.784053 
L 48.26615 44.222216 
L 48.331573 43.596842 
L 48.396996 43.641218 
L 48.462418 44.422361 
L 48.527841 44.17879 
L 48.658686 44.979658 
L 48.724108 44.217016 
L 48.789531 44.452654 
L 48.854954 44.807779 
L 48.920376 43.934857 
L 48.985799 44.383786 
L 49.051221 44.487628 
L 49.116644 43.676821 
L 49.182066 44.193976 
L 49.247489 44.325564 
L 49.312912 44.058465 
L 49.378334 45.128076 
L 49.443757 44.841622 
L 49.574602 45.478848 
L 49.705447 44.635665 
L 49.77087 44.640297 
L 49.901715 43.57848 
L 49.967137 43.871825 
L 50.03256 41.935761 
L 50.097982 42.237728 
L 50.163405 42.369996 
L 50.228828 42.028259 
L 50.29425 42.056506 
L 50.55594 44.066786 
L 50.621363 43.244512 
L 50.686786 44.105186 
L 51.144744 39.92235 
L 51.210166 40.364744 
L 51.275589 40.272956 
L 51.341011 40.287356 
L 51.406434 39.65246 
L 51.471856 39.690038 
L 51.537279 39.701615 
L 51.668124 40.417548 
L 51.733547 39.456682 
L 51.864392 41.358243 
L 51.929814 38.726347 
L 51.995237 41.234647 
L 52.06066 39.717042 
L 52.126082 40.965604 
L 52.191505 48.961154 
L 52.256927 48.035901 
L 52.32235 48.164782 
L 52.387772 49.932435 
L 52.58404 42.604263 
L 52.780308 34.90472 
L 52.84573 35.247431 
L 53.041998 37.232669 
L 53.107421 37.066257 
L 53.303688 35.966099 
L 53.369111 35.686668 
L 53.499956 36.46313 
L 53.565379 35.459854 
L 53.630801 35.641158 
L 53.696224 35.565509 
L 53.957914 33.685268 
L 54.023337 34.294758 
L 54.154182 33.944799 
L 54.350449 37.32493 
L 54.415872 37.965325 
L 54.546717 36.637629 
L 54.61214 36.71847 
L 54.742985 36.425311 
L 54.808407 36.609069 
L 55.004675 35.069065 
L 55.070098 34.246514 
L 55.200943 35.177347 
L 55.266365 34.580823 
L 55.331788 35.089577 
L 55.397211 34.778473 
L 55.462633 34.628343 
L 55.528056 35.467896 
L 55.593478 35.1468 
L 55.658901 35.117147 
L 55.724323 35.412298 
L 55.789746 34.449933 
L 55.855169 34.532867 
L 55.920591 34.500228 
L 55.986014 34.152212 
L 56.116859 34.625701 
L 56.313127 33.12634 
L 56.378549 32.637316 
L 56.443972 32.835005 
L 56.574817 32.125456 
L 56.640239 32.648157 
L 56.771085 31.689406 
L 56.836507 32.535702 
L 56.90193 32.17976 
L 56.967352 32.06859 
L 57.032775 32.671723 
L 57.098197 31.701971 
L 57.16362 31.725416 
L 57.359888 32.738012 
L 57.490733 32.209734 
L 57.752423 33.450458 
L 57.817846 33.362533 
L 57.948691 34.5061 
L 58.014113 34.039307 
L 58.079536 34.111715 
L 58.144958 34.436236 
L 58.210381 34.003729 
L 58.275804 34.644104 
L 58.341226 34.599951 
L 58.472071 34.030438 
L 58.537494 34.090451 
L 58.602916 33.988923 
L 58.733762 34.789711 
L 58.995452 33.361113 
L 59.126297 34.326955 
L 59.19172 33.952754 
L 59.257142 34.527774 
L 59.322565 34.189205 
L 59.387987 34.085196 
L 59.45341 35.633238 
L 59.518832 35.016581 
L 59.649678 35.249912 
L 59.7151 34.665643 
L 59.845945 35.351455 
L 59.911368 35.129774 
L 59.97679 36.524287 
L 60.042213 36.134666 
L 60.107636 35.896254 
L 60.303903 36.495564 
L 60.565594 39.252505 
L 60.631016 38.982567 
L 60.761861 39.586214 
L 60.827284 39.279293 
L 60.958129 39.627792 
L 61.023552 38.954705 
L 61.088974 39.333718 
L 61.154397 39.616376 
L 61.219819 39.34983 
L 61.285242 40.333071 
L 61.350664 40.178085 
L 61.416087 39.733979 
L 61.48151 40.524293 
L 61.612355 39.541429 
L 61.677777 40.66808 
L 61.7432 40.398784 
L 61.874045 40.977631 
L 62.00489 39.645013 
L 62.070313 40.089929 
L 62.201158 39.386353 
L 62.26658 39.8606 
L 62.462848 39.071908 
L 62.593693 39.459381 
L 62.659116 39.061082 
L 62.789961 40.09014 
L 62.920806 38.993978 
L 62.986229 39.629116 
L 63.051651 39.036816 
L 63.182496 39.949623 
L 63.247919 39.249457 
L 63.313341 39.895394 
L 63.378764 39.577282 
L 63.444187 38.83902 
L 63.509609 39.380986 
L 63.575032 39.301465 
L 63.640454 38.960599 
L 63.705877 39.701285 
L 63.771299 39.432643 
L 63.836722 39.23173 
L 63.902145 40.54428 
L 63.967567 40.096853 
L 64.098412 41.163969 
L 64.163835 40.732867 
L 64.229257 41.132809 
L 64.425525 43.078295 
L 64.490948 43.598317 
L 64.55637 42.930041 
L 64.621793 43.389481 
L 64.752638 45.735552 
L 64.818061 44.49116 
L 64.883483 42.963842 
L 64.948906 43.117647 
L 65.014328 43.017641 
L 65.210596 41.005174 
L 65.276019 40.884217 
L 65.341441 40.935036 
L 65.406864 41.277887 
L 65.472286 40.885482 
L 65.537709 41.052192 
L 65.864822 39.789879 
L 65.930244 40.252873 
L 66.061089 39.677884 
L 66.126512 39.815924 
L 66.257357 39.305245 
L 66.32278 39.506784 
L 66.388202 38.312155 
L 66.453625 38.416935 
L 66.519047 38.430604 
L 66.58447 37.843726 
L 66.715315 38.896278 
L 66.780738 38.408753 
L 66.84616 38.748637 
L 66.911583 39.011336 
L 66.977005 38.293792 
L 67.107851 39.33895 
L 67.173273 38.777269 
L 67.238696 39.306561 
L 67.304118 39.23996 
L 67.369541 39.13901 
L 67.434963 39.72748 
L 67.500386 39.482365 
L 67.696654 37.66953 
L 67.762076 38.070492 
L 67.827499 37.995387 
L 67.892921 37.466284 
L 67.958344 37.634181 
L 68.023766 37.591417 
L 68.089189 36.489376 
L 68.154612 37.027486 
L 68.285457 35.765346 
L 68.350879 36.735406 
L 68.416302 36.160648 
L 68.481724 35.76818 
L 68.547147 36.48115 
L 68.61257 35.266566 
L 68.677992 35.348547 
L 68.743415 36.040351 
L 68.808837 35.520065 
L 68.939682 36.251432 
L 69.13595 34.660041 
L 69.201373 34.467577 
L 69.332218 35.067739 
L 69.39764 34.846964 
L 69.528486 35.268092 
L 69.593908 35.313386 
L 69.790176 35.937562 
L 69.855598 36.016155 
L 70.117289 35.076205 
L 70.313556 33.884485 
L 70.444402 33.911366 
L 71.033205 39.225192 
L 71.16405 38.74375 
L 71.229472 38.198825 
L 71.294895 38.302647 
L 71.360318 38.490274 
L 71.42574 38.074625 
L 71.491163 38.387231 
L 71.622008 37.65883 
L 71.818276 37.557737 
L 71.883698 37.713737 
L 72.014543 37.253406 
L 72.079966 37.357959 
L 72.145388 37.140237 
L 72.407079 37.825073 
L 72.537924 37.968123 
L 72.603346 38.519951 
L 72.668769 38.34898 
L 72.734191 38.364976 
L 72.799614 38.53626 
L 72.995882 37.461846 
L 73.322995 38.194766 
L 73.388417 38.44171 
L 73.45384 37.984847 
L 73.519262 38.305655 
L 73.650107 38.273642 
L 73.780953 38.616755 
L 73.846375 38.232703 
L 74.304333 42.728257 
L 74.369756 42.248653 
L 74.566023 43.336613 
L 74.696869 43.707691 
L 74.827714 43.175214 
L 75.023981 43.929893 
L 75.154827 43.384306 
L 75.220249 43.613398 
L 75.285672 43.539555 
L 75.547362 42.544619 
L 75.612785 42.683301 
L 75.678207 42.5528 
L 75.809052 43.174967 
L 76.136165 41.568954 
L 76.26701 41.713213 
L 76.397855 42.335514 
L 76.463278 42.064124 
L 76.528701 42.487339 
L 76.594123 42.190102 
L 76.724968 42.597928 
L 76.790391 42.35939 
L 76.855813 42.399003 
L 77.117504 43.173951 
L 77.182926 43.182526 
L 77.313771 43.516111 
L 77.379194 43.274185 
L 77.706307 44.106999 
L 77.771729 43.947898 
L 77.837152 44.151291 
L 77.902574 43.825335 
L 77.967997 43.877495 
L 78.03342 44.056186 
L 78.229687 43.072479 
L 78.687645 41.681493 
L 78.753068 41.786621 
L 78.81849 41.847132 
L 78.883913 41.502507 
L 78.949336 41.885387 
L 79.211026 39.754375 
L 79.276448 39.765597 
L 79.341871 39.991106 
L 79.407294 39.656815 
L 79.472716 39.914191 
L 79.799829 38.5683 
L 79.865252 39.308598 
L 79.930674 39.041538 
L 79.996097 39.384503 
L 80.061519 39.34078 
L 80.126942 39.221971 
L 80.192364 39.761638 
L 80.257787 39.368424 
L 80.454055 40.94837 
L 80.519477 40.558328 
L 80.650322 41.624085 
L 80.715745 41.452604 
L 80.781168 41.489222 
L 80.977435 39.576384 
L 81.042858 40.034191 
L 81.239126 38.567118 
L 81.304548 38.165308 
L 81.369971 38.351545 
L 81.435393 38.334183 
L 81.697084 39.496411 
L 81.827929 38.975206 
L 81.958774 39.49297 
L 82.285887 38.638524 
L 82.482154 39.436646 
L 82.743845 38.586481 
L 83.005535 40.003784 
L 83.070957 39.979844 
L 83.332648 39.275201 
L 83.39807 39.488401 
L 83.659761 37.687117 
L 83.725183 37.292067 
L 83.986873 38.31747 
L 84.052296 37.969767 
L 84.248564 38.79834 
L 84.379409 38.255133 
L 84.444831 38.448033 
L 84.510254 37.947555 
L 84.575677 38.597929 
L 84.641099 38.339995 
L 84.706522 38.722424 
L 84.771944 38.696192 
L 84.968212 37.86846 
L 85.033635 38.084942 
L 85.229902 39.043698 
L 85.42617 40.375664 
L 85.491593 40.687096 
L 85.557015 40.553755 
L 85.622438 40.175624 
L 85.68786 40.56141 
L 85.753283 40.254479 
L 85.818705 40.316104 
L 86.014973 41.039049 
L 86.145818 39.897159 
L 86.211241 40.034098 
L 86.342086 40.121376 
L 86.407509 40.479573 
L 86.472931 40.435318 
L 86.538354 40.539092 
L 86.734621 39.849137 
L 86.800044 40.303199 
L 86.865467 40.0532 
L 86.930889 39.920008 
L 87.061734 39.226514 
L 87.127157 39.315271 
L 87.258002 39.003863 
L 87.323425 39.236769 
L 87.388847 39.935263 
L 87.519692 39.399313 
L 87.650537 39.452257 
L 87.781383 39.727538 
L 87.846805 39.709105 
L 88.108495 40.337313 
L 88.173918 40.036034 
L 88.304763 40.576764 
L 88.370186 40.097037 
L 88.631876 41.759349 
L 88.893566 41.502459 
L 88.958989 41.141782 
L 89.024411 41.423238 
L 89.089834 41.236697 
L 89.286102 40.792833 
L 89.351524 40.946028 
L 89.416947 41.831698 
L 89.482369 41.68637 
L 89.547792 42.082357 
L 89.613214 41.841356 
L 89.678637 40.937484 
L 89.74406 41.089245 
L 90.00575 42.395224 
L 90.202018 41.998995 
L 90.332863 42.194548 
L 90.463708 41.499985 
L 90.52913 41.547554 
L 90.659976 40.970408 
L 90.856243 41.857931 
L 90.921666 41.805826 
L 91.183356 40.480188 
L 91.248779 40.721901 
L 91.379624 41.372782 
L 91.641314 44.372488 
L 91.772159 45.177303 
L 91.837582 45.11432 
L 91.968427 44.49695 
L 92.03385 44.597468 
L 92.099272 44.349287 
L 92.164695 44.584308 
L 92.29554 44.073896 
L 92.360962 44.199855 
L 92.491808 43.861042 
L 92.55723 44.312993 
L 92.622653 44.110154 
L 92.688075 43.951064 
L 92.753498 44.12022 
L 92.81892 43.795136 
L 92.884343 43.910642 
L 92.949766 44.17203 
L 93.015188 43.800371 
L 93.146033 44.431301 
L 93.342301 42.662271 
L 93.538569 41.400643 
L 93.734836 40.048353 
L 93.865681 40.940499 
L 93.931104 40.2946 
L 94.389062 43.091014 
L 94.454485 43.149607 
L 94.58533 42.766275 
L 94.650752 42.811937 
L 94.716175 42.294504 
L 94.781597 42.626604 
L 95.043288 41.311917 
L 95.10871 41.314895 
L 95.174133 41.715274 
L 95.239555 41.451755 
L 95.304978 41.736059 
L 95.501246 40.901807 
L 95.566668 41.031681 
L 95.632091 40.982552 
L 95.697513 40.726154 
L 95.893781 37.822031 
L 96.090049 37.117677 
L 96.351739 37.449316 
L 96.548007 38.831525 
L 96.678852 39.797767 
L 96.744275 39.733894 
L 96.809697 41.030702 
L 96.87512 40.757941 
L 97.005965 41.039515 
L 97.071387 40.716956 
L 97.13681 40.748627 
L 97.333078 41.332553 
L 97.3985 41.314218 
L 97.463923 41.141057 
L 97.725613 39.242633 
L 97.921881 40.505427 
L 97.987303 40.428698 
L 98.052726 40.542123 
L 98.183571 39.332644 
L 98.248994 39.71355 
L 98.510684 41.349197 
L 98.576106 40.801474 
L 98.641529 41.088913 
L 98.772374 41.007569 
L 98.837797 40.468721 
L 98.903219 40.73822 
L 98.968642 40.554923 
L 99.099487 40.83451 
L 99.16491 40.285692 
L 99.230332 40.921014 
L 99.295755 40.394717 
L 99.361177 40.559181 
L 99.4266 40.555217 
L 99.492022 39.816312 
L 99.622868 40.660871 
L 100.080826 38.759897 
L 100.146248 39.01894 
L 100.211671 38.765006 
L 100.342516 39.037267 
L 100.407938 38.708253 
L 100.473361 38.867601 
L 100.604206 39.036983 
L 100.669629 39.241548 
L 100.735051 39.172249 
L 100.800474 38.673069 
L 100.865896 38.823963 
L 100.931319 39.003538 
L 100.996742 38.746924 
L 101.062164 38.84811 
L 101.127587 38.821659 
L 101.193009 38.278939 
L 101.520122 40.415663 
L 101.585545 40.337684 
L 101.781812 41.346803 
L 101.847235 41.428757 
L 102.108925 40.355934 
L 102.305193 39.520186 
L 102.370616 39.856586 
L 102.436038 39.594951 
L 102.501461 39.612444 
L 102.828574 40.086526 
L 102.959419 39.478807 
L 103.155686 40.261837 
L 103.417377 38.547507 
L 103.482799 38.628098 
L 103.679067 39.349044 
L 103.744489 39.107553 
L 103.809912 38.034461 
L 103.875335 38.62166 
L 104.00618 38.530472 
L 104.071602 39.075625 
L 104.137025 38.732933 
L 104.26787 38.364368 
L 104.333293 37.804664 
L 104.398715 38.041308 
L 104.464138 38.027381 
L 104.52956 38.363524 
L 104.594983 37.894399 
L 104.660405 38.0127 
L 104.725828 37.939515 
L 105.052941 39.804873 
L 105.118363 39.589203 
L 105.183786 39.90937 
L 105.249209 39.888257 
L 105.314631 39.768807 
L 105.380054 40.360344 
L 105.576321 39.307855 
L 105.707167 38.880378 
L 105.772589 39.200402 
L 105.838012 38.882579 
L 105.903434 39.156901 
L 106.099702 38.418943 
L 106.165125 38.765991 
L 106.230547 38.359707 
L 106.29597 38.853852 
L 106.55766 37.995709 
L 106.688505 38.718963 
L 106.81935 38.26515 
L 106.884773 38.293077 
L 106.950195 37.830231 
L 107.015618 38.067644 
L 107.146463 38.896624 
L 107.211886 38.864774 
L 107.408153 38.443565 
L 107.538999 38.123051 
L 107.604421 38.420219 
L 107.669844 38.171514 
L 107.735266 38.991882 
L 107.800689 38.925399 
L 107.866111 38.927711 
L 108.062379 40.894305 
L 108.127802 40.014557 
L 108.193224 40.786287 
L 108.258647 40.294019 
L 108.520337 41.137013 
L 108.651182 40.786636 
L 108.978295 41.693851 
L 109.174563 40.566233 
L 109.239985 40.600694 
L 109.305408 40.904338 
L 109.37083 40.597149 
L 109.501676 40.8732 
L 109.567098 40.74533 
L 109.828788 42.105483 
L 109.959634 42.180313 
L 110.025056 42.620384 
L 110.090479 42.157135 
L 110.221324 42.874671 
L 110.286746 42.824614 
L 110.417592 43.184732 
L 110.483014 42.904875 
L 110.679282 43.615468 
L 110.810127 43.446038 
L 111.071817 42.73059 
L 111.13724 43.248347 
L 111.39893 41.822885 
L 111.595198 42.130747 
L 111.791466 42.761092 
L 111.922311 44.006446 
L 111.987733 44.04524 
L 112.118578 44.801874 
L 112.184001 44.684593 
L 112.314846 45.10706 
L 112.511114 43.647355 
L 112.576536 43.636522 
L 112.641959 43.897024 
L 112.772804 42.983304 
L 112.838227 43.742515 
L 113.099917 40.979153 
L 113.16534 40.533813 
L 113.230762 40.936879 
L 113.492452 39.720499 
L 113.557875 39.933084 
L 113.819565 39.075369 
L 113.884988 39.236933 
L 113.95041 39.193315 
L 114.015833 38.732829 
L 114.081255 38.93752 
L 114.277523 39.493302 
L 114.342946 39.444331 
L 114.539213 38.567681 
L 114.670059 39.433547 
L 114.866326 40.939488 
L 114.931749 40.750682 
L 115.062594 41.75158 
L 115.128017 41.564415 
L 115.324284 40.679224 
L 115.389707 40.747917 
L 115.455129 41.165253 
L 115.520552 40.89745 
L 115.651397 41.132055 
L 115.782242 40.672063 
L 115.847665 40.959443 
L 115.913087 40.548436 
L 115.97851 41.032204 
L 116.305623 38.616387 
L 116.371045 38.844748 
L 116.436468 38.380183 
L 116.501891 38.496597 
L 116.567313 38.665407 
L 116.632736 38.086001 
L 116.698158 38.451775 
L 116.763581 38.446647 
L 116.894426 39.220259 
L 116.959849 39.107746 
L 117.090694 38.108818 
L 117.286961 39.287845 
L 117.417807 38.113749 
L 117.548652 37.20897 
L 117.614074 37.379345 
L 117.679497 37.286886 
L 117.810342 37.499393 
L 117.941187 36.820973 
L 118.072032 37.121486 
L 118.595413 39.906024 
L 118.660835 39.811543 
L 118.726258 39.34837 
L 118.791681 39.567366 
L 118.857103 39.647137 
L 119.053371 40.662185 
L 119.184216 40.840464 
L 119.249638 40.516466 
L 119.380484 40.983705 
L 119.445906 40.456453 
L 119.511329 41.139212 
L 119.707596 39.868699 
L 119.773019 39.572615 
L 119.969287 40.366457 
L 120.034709 40.292102 
L 120.361822 39.006394 
L 120.427245 39.034291 
L 120.492667 38.912173 
L 120.55809 38.518087 
L 120.623512 38.726692 
L 120.81978 39.454612 
L 120.885203 39.321675 
L 120.950625 38.903756 
L 121.212316 39.800102 
L 121.277738 39.527927 
L 121.343161 39.593768 
L 121.408583 39.71531 
L 121.539428 39.236405 
L 121.604851 39.181745 
L 121.866541 40.01692 
L 121.931964 40.310033 
L 121.997386 40.11306 
L 122.128232 40.276885 
L 122.259077 39.944406 
L 122.455344 39.248123 
L 122.651612 40.240813 
L 122.717035 40.59211 
L 122.782457 39.890361 
L 122.913302 40.764659 
L 123.044148 40.328828 
L 123.10957 40.377271 
L 123.174993 39.018082 
L 123.240415 40.498174 
L 123.305838 40.238341 
L 123.436683 40.816088 
L 123.502106 40.318733 
L 123.567528 40.636689 
L 123.632951 40.779147 
L 123.698373 39.893746 
L 123.763796 40.266082 
L 123.829218 40.552493 
L 123.894641 40.255253 
L 123.960064 40.778953 
L 124.025486 40.535875 
L 124.679712 37.367745 
L 124.745134 37.846657 
L 124.810557 37.625127 
L 125.006825 37.56796 
L 125.203092 36.176847 
L 125.268515 36.6592 
L 125.39936 35.702049 
L 125.464783 35.850516 
L 125.595628 35.327609 
L 125.66105 35.688613 
L 125.922741 34.668786 
L 126.184431 36.132943 
L 126.380699 36.739194 
L 126.511544 36.500688 
L 126.576966 36.687402 
L 126.642389 36.4998 
L 126.773234 36.985444 
L 126.838657 36.638336 
L 126.969502 37.229711 
L 127.034924 36.973983 
L 127.100347 37.191453 
L 127.362037 36.021843 
L 127.492882 36.360099 
L 127.68915 35.917577 
L 127.754573 35.818677 
L 127.819995 35.939073 
L 127.885418 35.88132 
L 128.016263 35.795595 
L 128.081685 35.93904 
L 128.147108 35.722354 
L 128.277953 37.127397 
L 128.408798 37.090312 
L 128.539643 36.680034 
L 128.735911 37.99395 
L 128.932179 36.796795 
L 128.997601 36.73155 
L 129.193869 37.150294 
L 129.259292 37.039856 
L 129.390137 37.5541 
L 129.455559 37.371969 
L 129.71725 38.481999 
L 129.782672 38.421137 
L 129.97894 38.119217 
L 130.044362 38.08952 
L 130.109785 38.326876 
L 130.175208 38.156629 
L 130.24063 38.021064 
L 130.306053 38.115773 
L 130.436898 38.097882 
L 130.50232 38.406103 
L 130.764011 37.342668 
L 130.829433 37.250646 
L 130.894856 37.357088 
L 131.156546 35.008311 
L 131.287391 34.340769 
L 131.614504 36.572364 
L 131.679927 36.211699 
L 131.745349 37.274976 
L 131.810772 37.197174 
L 132.137885 35.337092 
L 132.26873 34.961507 
L 132.334152 35.043962 
L 132.464998 34.448036 
L 132.53042 34.718926 
L 132.595843 34.453009 
L 132.79211 36.458188 
L 132.857533 36.390312 
L 133.315491 40.630632 
L 133.380914 40.527468 
L 133.511759 41.57308 
L 133.969717 39.233894 
L 134.035139 39.690045 
L 134.29683 38.135326 
L 134.362252 37.983729 
L 134.427675 38.564214 
L 134.493097 38.342086 
L 134.623942 38.585038 
L 134.689365 38.081627 
L 134.754787 38.418999 
L 134.82021 38.54573 
L 135.016478 39.348419 
L 135.0819 39.204611 
L 135.147323 39.609675 
L 135.212745 39.357346 
L 135.409013 40.434718 
L 135.474436 40.169424 
L 135.605281 39.014292 
L 135.736126 38.61695 
L 135.801549 38.222089 
L 135.866971 38.472241 
L 136.063239 37.687231 
L 136.128661 36.948709 
L 136.194084 37.153266 
L 136.259507 37.487413 
L 136.324929 37.470117 
L 136.521197 37.221177 
L 136.84831 38.494073 
L 136.913732 37.938035 
L 137.044577 40.001711 
L 137.11 39.798084 
" clip-path="url(#p913fb38f31)" style="fill: none; stroke: #5e3c99; stroke-width: 0.8; stroke-linecap: square"/>
   </g>
   <g id="line2d_7">
    <path d="M 3.19 60.36451 
L 3.255423 60.656868 
L 3.386268 58.244869 
L 3.45169 58.243144 
L 3.517113 57.59688 
L 3.647958 58.73069 
L 3.713381 58.717513 
L 3.778803 58.775745 
L 3.975071 62.126623 
L 4.040493 62.117164 
L 4.236761 64.140603 
L 4.302184 64.133016 
L 4.498451 67.702407 
L 4.563874 68.474621 
L 4.629297 68.149235 
L 4.956409 69.221774 
L 5.152677 66.93104 
L 5.2181 66.53876 
L 5.283522 66.717147 
L 5.348945 66.491195 
L 5.610635 61.993754 
L 5.937748 58.72112 
L 6.00317 58.983502 
L 6.199438 61.287972 
L 6.264861 60.784911 
L 6.330283 61.0723 
L 6.395706 61.874402 
L 6.461128 61.863706 
L 6.526551 61.610961 
L 6.722819 63.350835 
L 6.919086 64.478469 
L 7.180777 69.292747 
L 7.377044 70.73376 
L 7.442467 70.547091 
L 7.50789 71.004648 
L 7.573312 70.741602 
L 7.76958 67.7066 
L 7.965848 66.898568 
L 8.423806 62.232777 
L 8.489228 62.295366 
L 8.554651 60.704717 
L 8.620073 61.201406 
L 8.750918 60.230156 
L 8.816341 60.56556 
L 8.947186 58.276539 
L 9.012609 58.454369 
L 9.143454 56.296504 
L 9.208876 56.171802 
L 9.470567 53.950177 
L 9.601412 54.217312 
L 9.666834 53.898855 
L 9.863102 56.184833 
L 9.993947 57.946058 
L 10.05937 57.631249 
L 10.124792 60.30279 
L 10.190215 60.240605 
L 10.32106 61.586624 
L 10.386483 61.168869 
L 10.451905 61.360879 
L 10.648173 63.390454 
L 10.713596 63.587787 
L 10.844441 62.940618 
L 10.909863 63.349645 
L 10.975286 62.856102 
L 11.040708 64.514392 
L 11.106131 64.439454 
L 11.171553 63.813825 
L 11.302399 64.36964 
L 11.367821 64.136833 
L 11.433244 65.093586 
L 11.498666 64.509457 
L 11.694934 62.571664 
L 11.760357 62.555038 
L 11.825779 62.964274 
L 12.087469 59.455138 
L 12.218315 60.52193 
L 12.34916 59.808219 
L 12.414582 59.593524 
L 12.480005 57.75895 
L 12.545427 58.22104 
L 12.61085 57.732779 
L 12.676273 57.83582 
L 12.87254 59.704218 
L 12.937963 60.288017 
L 13.003385 60.024219 
L 13.068808 60.215003 
L 13.330498 63.843419 
L 13.395921 63.202903 
L 13.461343 63.648364 
L 13.657611 66.75432 
L 13.788456 66.733331 
L 13.853879 67.354377 
L 14.050147 64.630708 
L 14.180992 62.011079 
L 14.246414 62.175137 
L 14.442682 56.569316 
L 14.835217 52.017863 
L 14.90064 51.567387 
L 15.096908 53.661534 
L 15.293175 55.078353 
L 15.489443 59.881784 
L 15.751133 62.19921 
L 15.816556 61.907355 
L 15.881979 64.423638 
L 15.947401 64.325445 
L 16.012824 64.328991 
L 16.078246 65.320317 
L 16.209091 64.319643 
L 16.274514 65.266805 
L 16.339936 65.100948 
L 16.405359 64.779888 
L 16.470782 65.080221 
L 16.536204 63.497788 
L 16.601627 63.827521 
L 16.732472 62.506018 
L 16.797894 63.540695 
L 16.863317 63.228466 
L 16.92874 62.989691 
L 16.994162 63.255148 
L 17.125007 62.000919 
L 17.19043 62.917156 
L 17.255852 62.51435 
L 17.517543 60.799389 
L 17.582965 61.41639 
L 17.648388 60.939205 
L 17.779233 62.045638 
L 17.844656 61.957723 
L 17.910078 62.183151 
L 18.171768 64.70907 
L 18.237191 64.613726 
L 18.302614 65.18782 
L 18.368036 64.876262 
L 18.433459 64.691255 
L 18.498881 66.15104 
L 18.564304 66.136117 
L 19.087684 68.86337 
L 19.153107 67.476519 
L 19.21853 67.72986 
L 19.349375 66.731053 
L 19.414797 66.870664 
L 19.48022 66.673748 
L 19.676488 64.793896 
L 19.74191 64.604322 
L 19.807333 65.653125 
L 19.872755 65.369674 
L 20.0036 66.170835 
L 20.199868 64.0978 
L 20.657826 61.281398 
L 20.723249 62.427095 
L 20.788671 62.219592 
L 20.854094 61.62234 
L 20.919516 62.318499 
L 21.050362 61.118477 
L 21.115784 62.166817 
L 21.181207 61.824686 
L 21.312052 62.711422 
L 21.377474 61.51571 
L 21.442897 61.614015 
L 21.508319 61.793314 
L 21.573742 61.612357 
L 21.639165 61.918767 
L 21.704587 61.866379 
L 21.900855 60.425599 
L 21.966277 59.940613 
L 22.0317 60.49711 
L 22.227968 59.389792 
L 22.29339 59.313102 
L 22.424235 58.839079 
L 22.489658 59.514361 
L 22.555081 59.049964 
L 22.751348 60.639971 
L 22.816771 60.356096 
L 23.013039 59.733888 
L 23.078461 59.603353 
L 23.143884 60.269581 
L 23.274729 59.462334 
L 23.340151 60.094083 
L 23.405574 59.722764 
L 23.470997 59.450551 
L 23.536419 59.554933 
L 23.667264 57.868525 
L 23.732687 57.948315 
L 23.798109 57.418099 
L 23.863532 57.700619 
L 23.928955 57.615778 
L 23.994377 56.044712 
L 24.0598 56.42723 
L 24.190645 55.072512 
L 24.256067 56.461264 
L 24.32149 56.021218 
L 24.386913 55.414152 
L 24.452335 56.441784 
L 24.58318 55.546922 
L 24.648603 57.612056 
L 24.714025 56.832333 
L 24.779448 57.478096 
L 24.844871 57.377969 
L 24.910293 56.32867 
L 24.975716 56.550331 
L 25.041138 56.835829 
L 25.106561 56.370389 
L 25.237406 57.722066 
L 25.302829 55.916529 
L 25.368251 56.699242 
L 25.499096 55.566027 
L 25.564519 56.358547 
L 25.629941 55.855468 
L 25.760787 56.439322 
L 25.826209 55.401293 
L 25.891632 56.094786 
L 25.957054 56.735399 
L 26.022477 56.009529 
L 26.087899 56.473883 
L 26.153322 56.628293 
L 26.218745 55.08376 
L 26.284167 56.187697 
L 26.34959 56.065234 
L 26.415012 55.069523 
L 26.480435 57.51312 
L 26.545857 57.397411 
L 26.61128 56.573867 
L 26.676702 56.779871 
L 26.742125 56.452183 
L 26.807548 56.50784 
L 26.87297 57.816597 
L 26.938393 57.664047 
L 27.069238 58.454756 
L 27.13466 57.710992 
L 27.200083 57.851141 
L 27.396351 58.948039 
L 27.461773 59.549678 
L 27.527196 59.196077 
L 27.592618 59.307154 
L 27.788886 60.754763 
L 27.854309 60.616739 
L 27.919731 60.166512 
L 27.985154 60.50975 
L 28.115999 59.592526 
L 28.181422 60.497552 
L 28.246844 60.06589 
L 28.377689 61.233722 
L 28.443112 60.725475 
L 28.508534 61.022677 
L 28.704802 64.542213 
L 28.770225 64.077611 
L 28.90107 64.785269 
L 28.966492 65.837295 
L 29.031915 65.349092 
L 29.228183 62.551579 
L 29.293605 63.724326 
L 29.359028 63.368181 
L 29.42445 63.465443 
L 29.555296 62.194318 
L 29.686141 63.840544 
L 29.751563 63.579355 
L 29.882408 64.428156 
L 29.947831 63.748789 
L 30.013254 64.875752 
L 30.078676 64.829485 
L 30.274944 63.863631 
L 30.340366 63.623638 
L 30.405789 64.242878 
L 30.471212 64.037248 
L 30.536634 63.972533 
L 30.602057 64.425173 
L 30.667479 64.280773 
L 30.732902 64.371839 
L 30.92917 66.058504 
L 30.994592 66.111466 
L 31.060015 65.148999 
L 31.125437 65.569978 
L 31.256282 64.569215 
L 31.321705 65.280859 
L 31.387128 65.211996 
L 31.45255 64.805129 
L 31.517973 65.155463 
L 31.648818 64.595787 
L 31.71424 65.851786 
L 31.779663 65.297027 
L 31.910508 66.588334 
L 31.975931 65.775635 
L 32.041353 65.943268 
L 32.106776 66.387891 
L 32.172198 65.966824 
L 32.303043 66.677802 
L 32.368466 65.236522 
L 32.433889 65.624848 
L 32.564734 64.81552 
L 32.630156 65.729209 
L 32.695579 65.51291 
L 32.761001 65.468945 
L 33.022692 67.185181 
L 33.153537 65.53924 
L 33.218959 65.738378 
L 33.284382 65.085915 
L 33.349805 65.986191 
L 33.415227 65.803982 
L 33.48065 65.406249 
L 33.546072 65.445307 
L 33.611495 65.543792 
L 33.676917 63.437844 
L 33.74234 64.05376 
L 33.873185 63.007702 
L 33.938608 63.613735 
L 34.00403 63.278102 
L 34.069453 62.811346 
L 34.134875 63.338154 
L 34.265721 61.890778 
L 34.331143 62.436451 
L 34.396566 61.893422 
L 34.527411 62.910308 
L 34.592833 62.438543 
L 34.658256 62.852584 
L 34.985369 67.351582 
L 35.116214 68.909955 
L 35.181637 68.654382 
L 35.247059 70.520488 
L 35.312482 70.226633 
L 35.377904 70.32091 
L 35.443327 70.811709 
L 35.508749 70.235211 
L 35.639595 71.425427 
L 35.705017 70.783366 
L 35.77044 70.814162 
L 35.835862 70.711004 
L 36.03213 66.821932 
L 36.424665 62.846891 
L 36.490088 63.083156 
L 36.555511 64.491776 
L 36.620933 63.410553 
L 36.686356 64.159642 
L 36.751778 64.559293 
L 36.817201 64.381767 
L 36.882623 64.588718 
L 37.144314 67.703286 
L 37.471426 72.066081 
L 37.536849 71.294351 
L 37.667694 71.795164 
L 37.733117 69.816087 
L 37.798539 69.964456 
L 37.929384 69.240528 
L 37.994807 69.499675 
L 38.06023 69.541414 
L 38.256497 67.168007 
L 38.32192 66.67046 
L 38.387342 67.071889 
L 38.714455 64.299495 
L 38.779878 65.240865 
L 38.8453 64.69958 
L 38.976146 65.445021 
L 39.041568 64.526898 
L 39.106991 64.672735 
L 39.303258 66.332081 
L 39.368681 66.477532 
L 39.434104 65.966751 
L 39.499526 66.265988 
L 39.564949 66.416594 
L 39.630371 66.19521 
L 39.695794 67.199515 
L 39.761216 67.114778 
L 39.826639 66.929374 
L 39.892062 67.642994 
L 39.957484 67.182376 
L 40.022907 67.226027 
L 40.088329 68.870274 
L 40.153752 68.582463 
L 40.284597 69.233133 
L 40.480865 65.58382 
L 40.938823 61.827045 
L 41.004245 62.318321 
L 41.069668 61.975993 
L 41.13509 61.718424 
L 41.200513 62.01498 
L 41.265936 61.491457 
L 41.331358 61.674235 
L 41.527626 63.555315 
L 41.593048 63.899287 
L 41.658471 63.496437 
L 41.789316 64.18033 
L 41.854739 63.946147 
L 41.985584 64.557134 
L 42.051006 63.831968 
L 42.116429 64.451372 
L 42.181851 64.310736 
L 42.247274 64.126185 
L 42.312697 65.722034 
L 42.378119 65.296991 
L 42.508964 65.955771 
L 42.574387 64.933655 
L 42.639809 64.97107 
L 42.705232 65.488522 
L 42.770655 64.89768 
L 42.836077 64.936421 
L 42.9015 65.315074 
L 42.966922 63.446917 
L 43.032345 63.577484 
L 43.097767 63.340603 
L 43.16319 62.640706 
L 43.228613 63.387876 
L 43.294035 63.268283 
L 43.359458 62.363986 
L 43.42488 62.80511 
L 43.555725 62.068651 
L 43.621148 63.143948 
L 43.686571 62.783695 
L 43.817416 63.608193 
L 43.882838 62.747339 
L 43.948261 63.056973 
L 44.013683 63.611343 
L 44.079106 63.022584 
L 44.144529 64.037685 
L 44.209951 63.951777 
L 44.275374 63.008557 
L 44.406219 63.9309 
L 44.471641 63.541307 
L 44.537064 65.487037 
L 44.602487 65.12104 
L 44.667909 65.044672 
L 44.733332 65.821745 
L 44.864177 64.777819 
L 44.929599 65.575048 
L 44.995022 64.907102 
L 45.060445 65.148487 
L 45.125867 65.465074 
L 45.19129 64.037583 
L 45.256712 64.585748 
L 45.322135 64.702744 
L 45.387557 64.162471 
L 45.45298 64.782139 
L 45.518403 64.649386 
L 45.583825 63.079044 
L 45.649248 63.629606 
L 45.780093 62.367286 
L 45.845515 63.036488 
L 45.976361 62.01113 
L 46.041783 62.423201 
L 46.172628 61.15998 
L 46.238051 61.687035 
L 46.303473 61.173185 
L 46.368896 61.257624 
L 46.434319 61.390608 
L 46.499741 59.574914 
L 46.565164 59.750755 
L 46.696009 59.235021 
L 46.892277 60.873616 
L 46.957699 61.382523 
L 47.023122 61.365087 
L 47.088544 61.316262 
L 47.153967 62.750501 
L 47.219389 61.929255 
L 47.415657 61.002387 
L 47.677347 63.428832 
L 47.74277 63.26206 
L 47.939038 61.249135 
L 48.00446 60.916276 
L 48.069883 62.092082 
L 48.135305 61.871886 
L 48.200728 61.661685 
L 48.26615 62.40447 
L 48.331573 61.791754 
L 48.396996 61.830535 
L 48.462418 62.990071 
L 48.527841 62.762463 
L 48.593263 62.836269 
L 48.658686 63.23892 
L 48.724108 62.197432 
L 48.789531 62.277289 
L 48.985799 63.769133 
L 49.051221 63.723166 
L 49.116644 63.263589 
L 49.182066 63.672042 
L 49.247489 63.576259 
L 49.312912 63.25425 
L 49.378334 64.416365 
L 49.443757 64.265719 
L 49.574602 64.84543 
L 49.640024 64.580667 
L 49.705447 64.638757 
L 49.77087 65.448603 
L 49.836292 65.306968 
L 49.901715 65.470683 
L 49.967137 65.240795 
L 50.163405 63.346533 
L 50.228828 62.733419 
L 50.29425 63.226945 
L 50.359673 63.166684 
L 50.425095 62.458876 
L 50.490518 63.246308 
L 50.55594 62.907944 
L 50.621363 62.840793 
L 50.686786 64.119708 
L 50.752208 63.67927 
L 50.817631 63.304839 
L 50.883053 63.54042 
L 51.013898 61.535374 
L 51.210166 63.233764 
L 51.275589 63.244802 
L 51.341011 62.867688 
L 51.471856 63.312834 
L 51.668124 62.224818 
L 51.733547 61.780566 
L 51.864392 64.695598 
L 51.929814 63.038586 
L 52.191505 80.82 
L 52.256927 80.409094 
L 52.32235 73.067398 
L 52.387772 76.140643 
L 52.453195 74.377713 
L 52.649463 61.202076 
L 52.84573 60.50758 
L 52.976575 61.237447 
L 53.041998 60.968099 
L 53.107421 61.27572 
L 53.238266 60.359017 
L 53.303688 60.42402 
L 53.369111 59.878389 
L 53.434533 60.212933 
L 53.499956 60.473653 
L 53.565379 59.571378 
L 53.630801 59.876503 
L 53.696224 59.809935 
L 53.761646 59.423305 
L 53.827069 60.40168 
L 53.892491 60.253673 
L 53.957914 59.818386 
L 54.023337 60.595931 
L 54.088759 60.264479 
L 54.154182 59.642913 
L 54.350449 62.04789 
L 54.415872 62.662213 
L 54.481295 62.045728 
L 54.546717 62.28788 
L 54.61214 63.494998 
L 54.677562 62.928671 
L 54.808407 64.080234 
L 54.87383 63.020517 
L 54.939253 63.21561 
L 55.004675 63.290069 
L 55.070098 62.854471 
L 55.200943 64.288492 
L 55.266365 64.23643 
L 55.331788 65.009945 
L 55.462633 64.322533 
L 55.528056 65.045634 
L 55.658901 63.898007 
L 55.724323 64.208222 
L 55.789746 62.180089 
L 55.855169 62.414382 
L 56.182281 60.281181 
L 56.247704 60.923027 
L 56.378549 59.7337 
L 56.443972 60.51604 
L 56.509394 60.22512 
L 56.705662 58.390136 
L 56.771085 58.436092 
L 56.836507 59.122525 
L 56.90193 58.563069 
L 56.967352 58.719216 
L 57.032775 58.848998 
L 57.098197 57.012155 
L 57.16362 57.340194 
L 57.229043 57.223655 
L 57.294465 56.748004 
L 57.359888 58.27604 
L 57.42531 58.09658 
L 57.490733 58.012442 
L 57.556155 58.586155 
L 57.621578 58.57403 
L 57.687 58.185759 
L 57.752423 59.672156 
L 57.817846 59.364849 
L 57.883268 59.456408 
L 57.948691 59.936331 
L 58.014113 59.204199 
L 58.079536 59.253661 
L 58.144958 59.963685 
L 58.210381 59.550223 
L 58.341226 60.166218 
L 58.537494 58.476091 
L 58.602916 58.06231 
L 58.668339 58.647998 
L 58.733762 58.341128 
L 58.799184 57.936277 
L 58.864607 58.446038 
L 58.995452 57.72553 
L 59.060874 58.534538 
L 59.126297 58.177358 
L 59.322565 56.265129 
L 59.387987 56.374419 
L 59.45341 57.29147 
L 59.518832 56.556867 
L 59.649678 57.963929 
L 59.7151 57.323283 
L 59.780523 57.757401 
L 59.97679 59.277064 
L 60.042213 59.087452 
L 60.107636 58.685199 
L 60.173058 59.361503 
L 60.238481 58.940531 
L 60.303903 58.923774 
L 60.500171 60.270082 
L 60.565594 60.688331 
L 60.631016 59.549683 
L 60.761861 60.581773 
L 60.827284 60.281677 
L 60.958129 61.228682 
L 61.023552 60.679167 
L 61.088974 61.025161 
L 61.219819 60.474115 
L 61.285242 61.626381 
L 61.350664 61.299916 
L 61.416087 61.281288 
L 61.48151 62.046312 
L 61.612355 61.265646 
L 61.677777 62.168797 
L 61.7432 61.521158 
L 61.808622 61.649274 
L 61.874045 61.831594 
L 61.939468 60.336265 
L 62.00489 60.537624 
L 62.070313 60.723146 
L 62.135735 60.373868 
L 62.201158 60.500816 
L 62.26658 60.535283 
L 62.528271 58.990874 
L 62.593693 59.281084 
L 62.659116 58.559571 
L 62.724538 58.725993 
L 62.789961 59.215498 
L 62.920806 57.722187 
L 62.986229 58.248643 
L 63.051651 57.761944 
L 63.182496 58.941688 
L 63.247919 58.178377 
L 63.313341 58.644761 
L 63.378764 58.934198 
L 63.444187 58.616126 
L 63.509609 59.96799 
L 63.575032 59.927947 
L 63.640454 59.754404 
L 63.705877 60.185423 
L 63.771299 59.967322 
L 63.836722 59.755021 
L 64.03299 61.949042 
L 64.098412 62.46238 
L 64.163835 62.204105 
L 64.229257 62.364117 
L 64.29468 64.206436 
L 64.360103 63.661946 
L 64.425525 64.58367 
L 64.490948 64.387408 
L 64.55637 62.476397 
L 64.621793 63.015353 
L 64.752638 62.483982 
L 64.883483 63.023836 
L 64.948906 61.958626 
L 65.014328 62.290089 
L 65.145173 62.742915 
L 65.210596 62.827114 
L 65.276019 62.295017 
L 65.406864 63.229291 
L 65.472286 61.829458 
L 65.537709 62.343045 
L 65.668554 61.491909 
L 65.799399 62.322046 
L 65.995667 60.750447 
L 66.061089 60.416003 
L 66.126512 61.198595 
L 66.191935 60.924702 
L 66.257357 60.943808 
L 66.32278 61.321178 
L 66.388202 60.568822 
L 66.453625 60.664753 
L 66.649893 62.022665 
L 66.715315 62.222897 
L 66.780738 61.838066 
L 67.238696 64.915764 
L 67.304118 64.766791 
L 67.369541 64.865354 
L 67.434963 66.140217 
L 67.500386 65.956969 
L 67.631231 66.782793 
L 67.696654 65.972755 
L 67.762076 66.239602 
L 67.958344 65.174962 
L 68.023766 65.231418 
L 68.220034 63.300134 
L 68.285457 62.815143 
L 68.350879 63.568166 
L 68.416302 63.104326 
L 68.481724 62.775899 
L 68.547147 63.247398 
L 68.61257 62.086078 
L 68.677992 62.10826 
L 68.743415 63.045068 
L 68.808837 62.472283 
L 68.939682 63.336451 
L 69.005105 61.749746 
L 69.070528 61.864436 
L 69.201373 60.94444 
L 69.266795 61.47704 
L 69.332218 61.45837 
L 69.39764 61.111466 
L 69.528486 61.62117 
L 69.593908 61.626856 
L 69.659331 62.810977 
L 69.724753 62.643904 
L 69.855598 62.883285 
L 69.986444 61.58265 
L 70.313556 60.452303 
L 70.575247 62.117506 
L 70.706092 62.208783 
L 71.033205 64.530948 
L 71.16405 64.629835 
L 71.229472 64.374558 
L 71.42574 65.646131 
L 71.491163 66.103429 
L 71.68743 64.926226 
L 71.752853 64.818464 
L 71.883698 65.568654 
L 72.210811 63.55488 
L 72.276234 63.6601 
L 72.537924 60.790897 
L 72.603346 60.954359 
L 72.734191 60.527088 
L 72.799614 61.028602 
L 72.930459 60.41889 
L 72.995882 60.457657 
L 73.061304 60.219502 
L 73.257572 61.293794 
L 73.45384 60.516549 
L 73.71553 61.774335 
L 73.780953 61.708433 
L 73.846375 61.409413 
L 74.173488 64.736209 
L 74.238911 64.690668 
L 74.500601 66.465155 
L 74.631446 66.899369 
L 74.762291 66.11289 
L 74.827714 66.195519 
L 75.023981 66.780854 
L 75.220249 65.056249 
L 75.285672 65.073574 
L 75.351094 64.832602 
L 75.416517 65.079516 
L 75.612785 63.300123 
L 75.678207 62.93906 
L 75.74363 63.075832 
L 75.809052 63.434535 
L 76.136165 61.37939 
L 76.201588 61.322653 
L 76.332433 61.685062 
L 76.397855 61.527959 
L 76.463278 61.224857 
L 76.724968 63.301954 
L 76.986659 62.37752 
L 77.117504 63.19463 
L 77.182926 62.959592 
L 77.248349 63.225865 
L 77.379194 62.345654 
L 77.444617 62.500986 
L 77.575462 62.359264 
L 77.640884 62.756599 
L 77.902574 61.745645 
L 78.03342 63.061146 
L 78.098842 62.811587 
L 78.164265 63.026026 
L 78.360532 61.827027 
L 78.5568 62.227239 
L 78.687645 61.386605 
L 78.753068 61.726823 
L 78.81849 61.673119 
L 78.883913 61.526214 
L 78.949336 62.214044 
L 79.276448 58.377241 
L 79.341871 58.476129 
L 79.538139 56.94682 
L 79.603561 56.465176 
L 79.865252 58.651246 
L 79.930674 58.844875 
L 79.996097 58.745712 
L 80.257787 61.371804 
L 80.5849 64.53014 
L 80.912013 66.548195 
L 81.042858 66.359575 
L 81.435393 63.730784 
L 81.566238 64.513006 
L 81.697084 64.450111 
L 81.827929 63.290331 
L 81.893351 63.859355 
L 81.958774 63.494992 
L 82.089619 63.182386 
L 82.220464 61.905954 
L 82.416732 62.350285 
L 82.482154 62.671035 
L 82.678422 61.152548 
L 82.743845 60.761703 
L 82.87469 61.857221 
L 83.201803 59.413028 
L 83.267225 59.465168 
L 83.528915 56.722046 
L 83.594338 57.230116 
L 83.659761 56.188409 
L 83.856028 58.434885 
L 83.986873 59.0321 
L 84.052296 58.776742 
L 84.248564 60.457844 
L 84.313986 60.366216 
L 84.379409 60.526159 
L 84.444831 60.413232 
L 84.641099 62.201862 
L 84.706522 62.17565 
L 84.837367 62.372202 
L 85.033635 64.216572 
L 85.099057 64.216071 
L 85.295325 64.807893 
L 85.360747 64.686961 
L 85.42617 65.388451 
L 85.491593 65.294482 
L 85.557015 65.130818 
L 85.622438 65.488103 
L 85.753283 64.536743 
L 85.818705 64.783167 
L 85.884128 64.752927 
L 85.949551 64.766042 
L 86.014973 65.02509 
L 86.211241 63.610424 
L 86.276663 63.454333 
L 86.407509 63.927126 
L 86.865467 61.522014 
L 86.930889 61.740618 
L 87.061734 60.797543 
L 87.258002 61.611005 
L 87.388847 62.312543 
L 87.519692 62.394269 
L 87.585115 62.243289 
L 87.781383 63.468856 
L 87.912228 63.586578 
L 87.97765 63.386812 
L 88.23934 64.709801 
L 88.370186 64.187066 
L 88.631876 65.732103 
L 88.893566 64.068775 
L 88.958989 64.065515 
L 89.024411 64.294019 
L 89.089834 64.164339 
L 89.155256 64.252109 
L 89.286102 63.651934 
L 89.482369 64.597504 
L 89.547792 64.777598 
L 89.74406 63.806198 
L 89.809482 63.74217 
L 89.940327 64.331252 
L 90.202018 62.221189 
L 90.26744 62.292506 
L 90.463708 63.059356 
L 90.594553 61.971613 
L 90.659976 62.400118 
L 90.725398 62.255914 
L 90.790821 61.971766 
L 90.856243 62.287723 
L 91.052511 60.840576 
L 91.117934 60.342854 
L 91.183356 60.665107 
L 91.314201 60.733716 
L 91.903004 64.653919 
L 92.164695 67.638201 
L 92.230117 67.695286 
L 92.29554 67.945204 
L 92.426385 67.527832 
L 92.688075 68.613207 
L 92.949766 67.910523 
L 93.080611 68.065235 
L 93.342301 65.807839 
L 93.407723 65.845497 
L 93.473146 66.051065 
L 93.603991 64.984464 
L 93.734836 63.308966 
L 93.996527 64.718703 
L 94.127372 63.161106 
L 94.454485 65.784895 
L 94.519907 65.407669 
L 94.781597 66.656579 
L 95.043288 65.498353 
L 95.304978 65.84908 
L 95.435823 64.901685 
L 95.566668 64.849009 
L 95.697513 65.810684 
L 95.762936 65.031761 
L 95.828359 65.175551 
L 95.893781 65.151887 
L 95.959204 64.922508 
L 96.024626 65.759603 
L 96.090049 65.590443 
L 96.155471 65.621647 
L 96.286317 66.255421 
L 96.351739 66.020208 
L 96.548007 68.198991 
L 96.613429 68.396493 
L 96.809697 67.206964 
L 96.87512 67.103309 
L 97.13681 64.930971 
L 97.333078 62.201449 
L 97.660191 60.140714 
L 97.856458 61.534709 
L 97.987303 62.301191 
L 98.052726 62.104819 
L 98.118149 62.691577 
L 98.183571 61.615335 
L 98.379839 63.443508 
L 98.837797 66.477627 
L 99.034064 65.766226 
L 99.099487 65.672211 
L 99.16491 65.094923 
L 99.230332 65.525926 
L 99.4266 63.544047 
L 99.492022 63.560754 
L 99.622868 63.936355 
L 99.753713 63.693351 
L 99.94998 61.612192 
L 100.277093 60.416216 
L 100.342516 60.574458 
L 100.407938 60.176419 
L 100.538784 61.032568 
L 100.604206 60.706255 
L 100.669629 60.803732 
L 100.735051 60.813162 
L 100.800474 60.507173 
L 100.931319 61.636062 
L 100.996742 61.642829 
L 101.062164 61.817112 
L 101.193009 61.198008 
L 101.389277 62.527268 
L 101.520122 63.508935 
L 101.585545 63.44985 
L 101.847235 64.767306 
L 102.108925 62.525184 
L 102.23977 62.419116 
L 102.436038 61.026385 
L 102.501461 60.903159 
L 102.632306 60.343617 
L 102.828574 61.27938 
L 103.024841 60.858878 
L 103.155686 62.355382 
L 103.417377 60.899865 
L 103.679067 62.111052 
L 103.809912 61.506778 
L 103.875335 61.780165 
L 103.940757 61.621988 
L 104.00618 61.755692 
L 104.071602 62.293606 
L 104.333293 59.521423 
L 104.398715 59.539899 
L 104.594983 60.058386 
L 104.725828 59.497816 
L 104.791251 59.622566 
L 104.856673 59.489961 
L 104.987518 60.384091 
L 105.052941 60.071769 
L 105.118363 60.158957 
L 105.380054 62.036805 
L 105.510899 61.918752 
L 105.576321 61.78398 
L 105.641744 61.112437 
L 105.707167 61.500502 
L 105.903434 62.157059 
L 106.034279 61.759705 
L 106.29597 62.478536 
L 106.55766 61.758582 
L 106.753928 63.182908 
L 106.81935 63.250298 
L 107.015618 61.970084 
L 107.081041 62.051504 
L 107.146463 61.818222 
L 107.211886 62.080408 
L 107.408153 61.127776 
L 107.473576 61.177178 
L 107.669844 62.34953 
L 107.735266 62.048365 
L 107.800689 62.659679 
L 107.866111 61.985705 
L 107.996957 63.534724 
L 108.193224 62.638178 
L 108.258647 62.057162 
L 108.324069 62.46493 
L 108.389492 62.53946 
L 108.520337 63.238377 
L 108.782027 61.378453 
L 108.978295 62.206715 
L 109.043718 62.086779 
L 109.10914 62.489312 
L 109.174563 62.079626 
L 109.37083 63.475007 
L 109.436253 63.795481 
L 109.567098 63.327042 
L 109.828788 65.126591 
L 109.959634 65.132054 
L 110.025056 65.627811 
L 110.090479 65.068995 
L 110.286746 66.606626 
L 110.352169 66.911982 
L 110.417592 66.733315 
L 110.483014 66.425703 
L 110.548437 66.843698 
L 110.613859 66.796055 
L 110.679282 66.600664 
L 110.744704 66.983488 
L 110.940972 65.992179 
L 111.071817 65.632078 
L 111.13724 66.163859 
L 111.39893 63.520818 
L 111.595198 64.090264 
L 111.66062 64.27003 
L 111.791466 63.735226 
L 111.856888 65.236425 
L 111.922311 65.006617 
L 112.053156 66.473576 
L 112.118578 65.901914 
L 112.184001 65.644904 
L 112.249424 66.445164 
L 112.314846 66.104111 
L 112.380269 65.837936 
L 112.445691 66.884484 
L 112.511114 65.250701 
L 112.576536 65.431095 
L 112.838227 66.815739 
L 112.903649 66.617322 
L 113.034494 67.403373 
L 113.099917 66.964712 
L 113.16534 67.101043 
L 113.296185 67.736683 
L 113.361607 68.034558 
L 113.68872 64.314727 
L 113.754143 64.537142 
L 113.95041 61.58228 
L 114.015833 60.843289 
L 114.081255 61.143141 
L 114.277523 61.867972 
L 114.342946 61.568468 
L 114.408368 61.111702 
L 114.735481 63.155452 
L 115.258862 67.234634 
L 115.324284 66.98688 
L 115.585975 68.410248 
L 115.71682 67.864935 
L 115.782242 67.906373 
L 115.847665 67.863794 
L 115.913087 67.95912 
L 115.97851 68.377438 
L 116.2402 64.825875 
L 116.436468 63.095488 
L 116.501891 63.164906 
L 116.632736 61.363847 
L 116.698158 61.543782 
L 116.763581 61.337838 
L 116.894426 62.027705 
L 117.090694 60.260384 
L 117.221539 60.018888 
L 117.286961 60.453243 
L 117.548652 57.663451 
L 117.744919 58.538956 
L 117.810342 58.214355 
L 117.875765 58.529627 
L 117.941187 58.033921 
L 118.137455 61.373331 
L 118.333723 62.194464 
L 118.52999 63.333015 
L 118.595413 63.896439 
L 118.660835 63.744167 
L 118.726258 64.044426 
L 118.857103 63.22481 
L 118.922526 63.824223 
L 118.987948 63.788795 
L 119.053371 63.55596 
L 119.118793 63.610343 
L 119.315061 61.851318 
L 119.380484 61.83865 
L 119.445906 61.706411 
L 119.511329 62.134232 
L 119.576751 61.477749 
L 119.642174 61.575026 
L 119.773019 61.065483 
L 119.903864 62.023998 
L 120.361822 60.023988 
L 120.427245 60.343977 
L 120.492667 60.149514 
L 120.55809 59.832939 
L 120.81978 61.397233 
L 120.950625 61.152293 
L 121.016048 61.187534 
L 121.08147 60.79254 
L 121.277738 62.619558 
L 121.343161 63.111632 
L 121.408583 62.864216 
L 121.604851 62.106405 
L 121.670274 62.184968 
L 121.735696 62.448463 
L 121.866541 61.82126 
L 121.931964 62.018934 
L 121.997386 61.64887 
L 122.193654 63.680649 
L 122.324499 63.966836 
L 122.389922 63.664062 
L 122.651612 65.769359 
L 122.782457 64.359531 
L 122.84788 65.567985 
L 122.913302 65.124549 
L 122.978725 64.96185 
L 123.044148 65.220695 
L 123.174993 62.410178 
L 123.240415 64.253332 
L 123.305838 63.891432 
L 123.37126 64.404373 
L 123.436683 64.33093 
L 123.502106 61.714258 
L 123.567528 62.312248 
L 123.698373 60.318897 
L 123.829218 62.009905 
L 123.894641 61.459379 
L 123.960064 62.379491 
L 124.090909 61.343493 
L 124.156331 61.71424 
L 124.221754 61.574846 
L 124.287176 61.558638 
L 124.352599 61.946862 
L 124.548867 61.13374 
L 124.614289 60.826982 
L 124.679712 60.993814 
L 124.745134 61.19996 
L 125.13767 59.436058 
L 125.203092 59.195916 
L 125.268515 59.532856 
L 125.464783 57.23197 
L 125.530205 56.615162 
L 125.595628 56.626788 
L 125.66105 56.690222 
L 125.857318 55.839005 
L 125.922741 55.435179 
L 126.184431 56.967656 
L 126.576966 59.18187 
L 126.642389 58.761521 
L 126.707811 58.671371 
L 126.773234 58.960497 
L 126.838657 58.565153 
L 127.100347 59.322886 
L 127.231192 58.400021 
L 127.296615 58.671683 
L 127.362037 58.720095 
L 127.492882 59.341888 
L 127.558305 59.259173 
L 127.68915 58.806284 
L 127.754573 58.901375 
L 127.885418 59.432287 
L 128.016263 58.415082 
L 128.147108 57.749406 
L 128.212531 58.117539 
L 128.408798 59.582912 
L 128.474221 59.421268 
L 128.539643 59.133154 
L 128.735911 60.568415 
L 128.801334 60.884833 
L 128.866756 60.675505 
L 128.932179 60.632389 
L 128.997601 60.809335 
L 129.128447 61.531561 
L 129.193869 61.539335 
L 129.455559 60.368312 
L 129.71725 61.619557 
L 129.782672 61.177289 
L 129.848095 61.388626 
L 130.109785 62.243252 
L 130.24063 61.747771 
L 130.50232 62.681996 
L 130.633166 62.626786 
L 130.764011 61.898345 
L 130.829433 61.877103 
L 130.894856 62.164623 
L 131.156546 60.059382 
L 131.352814 58.597028 
L 131.418236 58.849905 
L 131.614504 56.457693 
L 131.679927 55.662096 
L 131.745349 55.698267 
L 132.072462 54.506176 
L 132.137885 54.667748 
L 132.203307 54.532591 
L 132.334152 55.167586 
L 132.464998 54.775015 
L 132.857533 58.459323 
L 132.988378 58.774901 
L 133.184646 61.266397 
L 133.250068 61.641543 
L 133.380914 60.996015 
L 133.511759 61.035789 
L 133.577181 60.824294 
L 133.642604 60.862713 
L 133.838872 58.764639 
L 133.904294 58.482237 
L 134.035139 59.049264 
L 134.29683 58.111964 
L 134.427675 58.4658 
L 134.55852 59.283632 
L 134.623942 59.221357 
L 134.689365 59.261392 
L 135.016478 61.554725 
L 135.0819 61.669502 
L 135.409013 63.647878 
L 135.474436 63.809859 
L 135.670703 62.657348 
L 136.128661 59.68376 
L 136.259507 60.096234 
L 136.324929 59.781874 
L 136.390352 59.826316 
L 136.521197 59.675179 
L 136.717465 61.334326 
L 136.782887 61.326744 
L 137.11 63.488154 
L 137.11 63.488154 
" clip-path="url(#p913fb38f31)" style="fill: none; stroke: #5e3c99; stroke-width: 0.8; stroke-linecap: square"/>
   </g>
   <g id="patch_3">
    <path d="M 3.19 84.6 
L 137.11 84.6 
" style="fill: none; stroke: #000000; stroke-width: 0.6; stroke-linejoin: miter; stroke-linecap: square"/>
   </g>
  </g>
 </g>
 <defs>
  <clipPath id="p913fb38f31">
   <rect x="3.19" y="1.44" width="133.92" height="83.16"/>
  </clipPath>
 </defs>
</svg>
